G04 #@! TF.GenerationSoftware,KiCad,Pcbnew,(5.0.2)-1*
G04 #@! TF.CreationDate,2019-03-02T08:42:05-05:00*
G04 #@! TF.ProjectId,ENN-node.v1,454e4e2d-6e6f-4646-952e-76312e6b6963,rev?*
G04 #@! TF.SameCoordinates,Original*
G04 #@! TF.FileFunction,Copper,L1,Top*
G04 #@! TF.FilePolarity,Positive*
%FSLAX46Y46*%
G04 Gerber Fmt 4.6, Leading zero omitted, Abs format (unit mm)*
G04 Created by KiCad (PCBNEW (5.0.2)-1) date 3/2/2019 8:42:05 AM*
%MOMM*%
%LPD*%
G01*
G04 APERTURE LIST*
G04 #@! TA.AperFunction,ComponentPad*
%ADD10C,6.400000*%
G04 #@! TD*
G04 #@! TA.AperFunction,SMDPad,CuDef*
%ADD11R,1.600000X0.550000*%
G04 #@! TD*
G04 #@! TA.AperFunction,SMDPad,CuDef*
%ADD12R,0.550000X1.600000*%
G04 #@! TD*
G04 #@! TA.AperFunction,SMDPad,CuDef*
%ADD13R,1.250000X1.500000*%
G04 #@! TD*
G04 #@! TA.AperFunction,ComponentPad*
%ADD14O,1.700000X1.700000*%
G04 #@! TD*
G04 #@! TA.AperFunction,ComponentPad*
%ADD15R,1.700000X1.700000*%
G04 #@! TD*
G04 #@! TA.AperFunction,ComponentPad*
%ADD16O,1.700000X1.200000*%
G04 #@! TD*
G04 #@! TA.AperFunction,ComponentPad*
%ADD17R,1.700000X1.200000*%
G04 #@! TD*
G04 #@! TA.AperFunction,SMDPad,CuDef*
%ADD18R,1.000000X2.500000*%
G04 #@! TD*
G04 #@! TA.AperFunction,SMDPad,CuDef*
%ADD19R,1.500000X1.200000*%
G04 #@! TD*
G04 #@! TA.AperFunction,SMDPad,CuDef*
%ADD20R,2.200000X1.100000*%
G04 #@! TD*
G04 #@! TA.AperFunction,SMDPad,CuDef*
%ADD21R,0.400000X1.900000*%
G04 #@! TD*
G04 #@! TA.AperFunction,SMDPad,CuDef*
%ADD22R,1.300000X1.500000*%
G04 #@! TD*
G04 #@! TA.AperFunction,SMDPad,CuDef*
%ADD23R,1.500000X1.250000*%
G04 #@! TD*
G04 #@! TA.AperFunction,ViaPad*
%ADD24C,0.685800*%
G04 #@! TD*
G04 #@! TA.AperFunction,Conductor*
%ADD25C,0.177800*%
G04 #@! TD*
G04 #@! TA.AperFunction,Conductor*
%ADD26C,0.203200*%
G04 #@! TD*
G04 #@! TA.AperFunction,Conductor*
%ADD27C,0.152400*%
G04 #@! TD*
G04 #@! TA.AperFunction,Conductor*
%ADD28C,0.254000*%
G04 #@! TD*
G04 APERTURE END LIST*
D10*
G04 #@! TO.P,REF\002A\002A,*
G04 #@! TO.N,*
X151384000Y-90576400D03*
G04 #@! TD*
D11*
G04 #@! TO.P,U1,32*
G04 #@! TO.N,/D2*
X165227000Y-98616000D03*
G04 #@! TO.P,U1,31*
G04 #@! TO.N,/TX*
X165227000Y-99416000D03*
G04 #@! TO.P,U1,30*
G04 #@! TO.N,/RX*
X165227000Y-100216000D03*
G04 #@! TO.P,U1,29*
G04 #@! TO.N,/RST*
X165227000Y-101016000D03*
G04 #@! TO.P,U1,28*
G04 #@! TO.N,/SCL*
X165227000Y-101816000D03*
G04 #@! TO.P,U1,27*
G04 #@! TO.N,/SDA*
X165227000Y-102616000D03*
G04 #@! TO.P,U1,26*
G04 #@! TO.N,Net-(U1-Pad26)*
X165227000Y-103416000D03*
G04 #@! TO.P,U1,25*
G04 #@! TO.N,Net-(U1-Pad25)*
X165227000Y-104216000D03*
D12*
G04 #@! TO.P,U1,24*
G04 #@! TO.N,Net-(U1-Pad24)*
X163777000Y-105666000D03*
G04 #@! TO.P,U1,23*
G04 #@! TO.N,/A0*
X162977000Y-105666000D03*
G04 #@! TO.P,U1,22*
G04 #@! TO.N,Net-(U1-Pad22)*
X162177000Y-105666000D03*
G04 #@! TO.P,U1,21*
G04 #@! TO.N,GND*
X161377000Y-105666000D03*
G04 #@! TO.P,U1,20*
G04 #@! TO.N,Net-(C1-Pad2)*
X160577000Y-105666000D03*
G04 #@! TO.P,U1,19*
G04 #@! TO.N,Net-(U1-Pad19)*
X159777000Y-105666000D03*
G04 #@! TO.P,U1,18*
G04 #@! TO.N,/VCC*
X158977000Y-105666000D03*
G04 #@! TO.P,U1,17*
G04 #@! TO.N,/SCK*
X158177000Y-105666000D03*
D11*
G04 #@! TO.P,U1,16*
G04 #@! TO.N,/MISO*
X156727000Y-104216000D03*
G04 #@! TO.P,U1,15*
G04 #@! TO.N,/MOSI*
X156727000Y-103416000D03*
G04 #@! TO.P,U1,14*
G04 #@! TO.N,/SS*
X156727000Y-102616000D03*
G04 #@! TO.P,U1,13*
G04 #@! TO.N,/D9*
X156727000Y-101816000D03*
G04 #@! TO.P,U1,12*
G04 #@! TO.N,/D8*
X156727000Y-101016000D03*
G04 #@! TO.P,U1,11*
G04 #@! TO.N,Net-(U1-Pad11)*
X156727000Y-100216000D03*
G04 #@! TO.P,U1,10*
G04 #@! TO.N,Net-(U1-Pad10)*
X156727000Y-99416000D03*
G04 #@! TO.P,U1,9*
G04 #@! TO.N,Net-(U1-Pad9)*
X156727000Y-98616000D03*
D12*
G04 #@! TO.P,U1,8*
G04 #@! TO.N,Net-(U1-Pad8)*
X158177000Y-97166000D03*
G04 #@! TO.P,U1,7*
G04 #@! TO.N,Net-(U1-Pad7)*
X158977000Y-97166000D03*
G04 #@! TO.P,U1,6*
G04 #@! TO.N,/VCC*
X159777000Y-97166000D03*
G04 #@! TO.P,U1,5*
G04 #@! TO.N,GND*
X160577000Y-97166000D03*
G04 #@! TO.P,U1,4*
G04 #@! TO.N,/VCC*
X161377000Y-97166000D03*
G04 #@! TO.P,U1,3*
G04 #@! TO.N,GND*
X162177000Y-97166000D03*
G04 #@! TO.P,U1,2*
G04 #@! TO.N,Net-(U1-Pad2)*
X162977000Y-97166000D03*
G04 #@! TO.P,U1,1*
G04 #@! TO.N,Net-(U1-Pad1)*
X163777000Y-97166000D03*
G04 #@! TD*
D13*
G04 #@! TO.P,C9,2*
G04 #@! TO.N,/VCC*
X128778000Y-91806400D03*
G04 #@! TO.P,C9,1*
G04 #@! TO.N,GND*
X128778000Y-89306400D03*
G04 #@! TD*
D14*
G04 #@! TO.P,I2C,4*
G04 #@! TO.N,/SDA*
X177800000Y-88036400D03*
G04 #@! TO.P,I2C,3*
G04 #@! TO.N,/SCL*
X175260000Y-88036400D03*
G04 #@! TO.P,I2C,2*
G04 #@! TO.N,GND*
X172720000Y-88036400D03*
D15*
G04 #@! TO.P,I2C,1*
G04 #@! TO.N,/VCC*
X170180000Y-88036400D03*
G04 #@! TD*
D16*
G04 #@! TO.P,J7,2*
G04 #@! TO.N,GND*
X177749200Y-103854000D03*
D17*
G04 #@! TO.P,J7,1*
G04 #@! TO.N,/VCC*
X177749200Y-101854000D03*
G04 #@! TD*
D15*
G04 #@! TO.P,J4,1*
G04 #@! TO.N,/VCC*
X178181000Y-97028000D03*
D14*
G04 #@! TO.P,J4,2*
G04 #@! TO.N,GND*
X178181000Y-94488000D03*
G04 #@! TO.P,J4,3*
G04 #@! TO.N,/A0*
X178181000Y-91948000D03*
G04 #@! TD*
G04 #@! TO.P,J2,3*
G04 #@! TO.N,/D8*
X161290000Y-88011000D03*
G04 #@! TO.P,J2,2*
G04 #@! TO.N,GND*
X163830000Y-88011000D03*
D15*
G04 #@! TO.P,J2,1*
G04 #@! TO.N,/VCC*
X166370000Y-88011000D03*
G04 #@! TD*
D14*
G04 #@! TO.P,FTDI,6*
G04 #@! TO.N,GND*
X178181000Y-108712000D03*
G04 #@! TO.P,FTDI,5*
X175641000Y-108712000D03*
G04 #@! TO.P,FTDI,4*
G04 #@! TO.N,/VCC*
X173101000Y-108712000D03*
G04 #@! TO.P,FTDI,3*
G04 #@! TO.N,/RX*
X170561000Y-108712000D03*
G04 #@! TO.P,FTDI,2*
G04 #@! TO.N,/TX*
X168021000Y-108712000D03*
D15*
G04 #@! TO.P,FTDI,1*
G04 #@! TO.N,/DTR*
X165481000Y-108712000D03*
G04 #@! TD*
D14*
G04 #@! TO.P,ICSP,6*
G04 #@! TO.N,GND*
X149809200Y-96977200D03*
G04 #@! TO.P,ICSP,5*
G04 #@! TO.N,/RST*
X152349200Y-96977200D03*
G04 #@! TO.P,ICSP,4*
G04 #@! TO.N,/MOSI*
X149809200Y-99517200D03*
G04 #@! TO.P,ICSP,3*
G04 #@! TO.N,/SCK*
X152349200Y-99517200D03*
G04 #@! TO.P,ICSP,2*
G04 #@! TO.N,/VCC*
X149809200Y-102057200D03*
D15*
G04 #@! TO.P,ICSP,1*
G04 #@! TO.N,/MISO*
X152349200Y-102057200D03*
G04 #@! TD*
D18*
G04 #@! TO.P,RFM69,1*
G04 #@! TO.N,Net-(U2-Pad1)*
X146106400Y-89966800D03*
G04 #@! TO.P,RFM69,2*
G04 #@! TO.N,/D2*
X144106400Y-89966800D03*
G04 #@! TO.P,RFM69,3*
G04 #@! TO.N,Net-(U2-Pad3)*
X142106400Y-89966800D03*
G04 #@! TO.P,RFM69,4*
G04 #@! TO.N,Net-(U2-Pad4)*
X140106400Y-89966800D03*
G04 #@! TO.P,RFM69,5*
G04 #@! TO.N,Net-(U2-Pad5)*
X138106400Y-89966800D03*
G04 #@! TO.P,RFM69,6*
G04 #@! TO.N,Net-(U2-Pad6)*
X136106400Y-89966800D03*
G04 #@! TO.P,RFM69,7*
G04 #@! TO.N,Net-(U2-Pad7)*
X134106400Y-89966800D03*
G04 #@! TO.P,RFM69,8*
G04 #@! TO.N,/VCC*
X132106400Y-89966800D03*
G04 #@! TO.P,RFM69,9*
G04 #@! TO.N,GND*
X132106400Y-108166800D03*
G04 #@! TO.P,RFM69,10*
G04 #@! TO.N,Net-(ANT1-Pad1)*
X134106400Y-108166800D03*
G04 #@! TO.P,RFM69,11*
G04 #@! TO.N,GND*
X136106400Y-108166800D03*
G04 #@! TO.P,RFM69,12*
G04 #@! TO.N,/SCK*
X138106400Y-108166800D03*
G04 #@! TO.P,RFM69,13*
G04 #@! TO.N,/MISO*
X140106400Y-108166800D03*
G04 #@! TO.P,RFM69,14*
G04 #@! TO.N,/MOSI*
X142106400Y-108166800D03*
G04 #@! TO.P,RFM69,15*
G04 #@! TO.N,/SS*
X144106400Y-108166800D03*
G04 #@! TO.P,RFM69,16*
G04 #@! TO.N,Net-(U2-Pad16)*
X146106400Y-108166800D03*
G04 #@! TD*
D19*
G04 #@! TO.P,ANT1,1*
G04 #@! TO.N,Net-(ANT1-Pad1)*
X129613600Y-108185200D03*
D20*
G04 #@! TO.P,ANT1,2*
G04 #@! TO.N,GND*
X127863600Y-106735200D03*
X127863600Y-109635200D03*
G04 #@! TD*
D21*
G04 #@! TO.P,Y1,1*
G04 #@! TO.N,Net-(U1-Pad8)*
X155670400Y-93370400D03*
G04 #@! TO.P,Y1,2*
G04 #@! TO.N,GND*
X156870400Y-93370400D03*
G04 #@! TO.P,Y1,3*
G04 #@! TO.N,Net-(U1-Pad7)*
X158070400Y-93370400D03*
G04 #@! TD*
D22*
G04 #@! TO.P,R4,2*
G04 #@! TO.N,/D9*
X128778000Y-94589600D03*
G04 #@! TO.P,R4,1*
G04 #@! TO.N,Net-(D1-Pad2)*
X128778000Y-97289600D03*
G04 #@! TD*
D23*
G04 #@! TO.P,C1,1*
G04 #@! TO.N,GND*
X162306000Y-108331000D03*
G04 #@! TO.P,C1,2*
G04 #@! TO.N,Net-(C1-Pad2)*
X159806000Y-108331000D03*
G04 #@! TD*
D13*
G04 #@! TO.P,C2,2*
G04 #@! TO.N,/DTR*
X167081200Y-92038800D03*
G04 #@! TO.P,C2,1*
G04 #@! TO.N,/RST*
X167081200Y-94538800D03*
G04 #@! TD*
D22*
G04 #@! TO.P,D1,2*
G04 #@! TO.N,Net-(D1-Pad2)*
X128828800Y-99974400D03*
G04 #@! TO.P,D1,1*
G04 #@! TO.N,GND*
X128828800Y-102674400D03*
G04 #@! TD*
G04 #@! TO.P,R1,1*
G04 #@! TO.N,/SDA*
X174294800Y-94640400D03*
G04 #@! TO.P,R1,2*
G04 #@! TO.N,/VCC*
X174294800Y-91940400D03*
G04 #@! TD*
G04 #@! TO.P,R2,2*
G04 #@! TO.N,/VCC*
X171958000Y-91918800D03*
G04 #@! TO.P,R2,1*
G04 #@! TO.N,/SCL*
X171958000Y-94618800D03*
G04 #@! TD*
G04 #@! TO.P,R3,2*
G04 #@! TO.N,/RST*
X169621200Y-94618800D03*
G04 #@! TO.P,R3,1*
G04 #@! TO.N,/VCC*
X169621200Y-91918800D03*
G04 #@! TD*
D13*
G04 #@! TO.P,C5,2*
G04 #@! TO.N,GND*
X173278800Y-100482400D03*
G04 #@! TO.P,C5,1*
G04 #@! TO.N,/VCC*
X173278800Y-102982400D03*
G04 #@! TD*
G04 #@! TO.P,C6,1*
G04 #@! TO.N,/VCC*
X171297600Y-102982400D03*
G04 #@! TO.P,C6,2*
G04 #@! TO.N,GND*
X171297600Y-100482400D03*
G04 #@! TD*
G04 #@! TO.P,C10,2*
G04 #@! TO.N,GND*
X159893000Y-91841000D03*
G04 #@! TO.P,C10,1*
G04 #@! TO.N,/VCC*
X159893000Y-94341000D03*
G04 #@! TD*
G04 #@! TO.P,C3,2*
G04 #@! TO.N,GND*
X162560000Y-91861000D03*
G04 #@! TO.P,C3,1*
G04 #@! TO.N,/VCC*
X162560000Y-94361000D03*
G04 #@! TD*
D23*
G04 #@! TO.P,C4,1*
G04 #@! TO.N,/VCC*
X157206000Y-108331000D03*
G04 #@! TO.P,C4,2*
G04 #@! TO.N,GND*
X154706000Y-108331000D03*
G04 #@! TD*
D24*
G04 #@! TO.N,/RST*
X161061200Y-101016000D03*
X151028400Y-95504000D03*
G04 #@! TO.N,/DTR*
X164947600Y-94792800D03*
X165455600Y-106730800D03*
G04 #@! TO.N,/RX*
X169214800Y-104851200D03*
X163525200Y-100279200D03*
G04 #@! TO.N,/TX*
X169011600Y-98196400D03*
X163525200Y-99364800D03*
G04 #@! TO.N,/D2*
X165709600Y-96926400D03*
X144144601Y-87147799D03*
G04 #@! TO.N,/SCK*
X138106400Y-105682800D03*
X153265600Y-105666000D03*
G04 #@! TO.N,/SS*
X147828000Y-106279700D03*
X158329300Y-102616000D03*
G04 #@! TO.N,/VCC*
X132130800Y-92862400D03*
G04 #@! TD*
D25*
G04 #@! TO.N,Net-(C1-Pad2)*
X160577000Y-106643800D02*
X160577000Y-105666000D01*
X160577000Y-106757200D02*
X160577000Y-106643800D01*
X159806000Y-107528200D02*
X160577000Y-106757200D01*
X159806000Y-108331000D02*
X159806000Y-107528200D01*
D26*
G04 #@! TO.N,GND*
X134660190Y-110363010D02*
X136106400Y-108916800D01*
X129894610Y-110363010D02*
X134660190Y-110363010D01*
X129166800Y-109635200D02*
X129894610Y-110363010D01*
X127863600Y-109635200D02*
X129166800Y-109635200D01*
X161377000Y-104662800D02*
X161391600Y-104648200D01*
X161377000Y-105666000D02*
X161377000Y-104662800D01*
X161391600Y-104648200D02*
X161391600Y-104292400D01*
X161377000Y-104662800D02*
X161290000Y-104575800D01*
X161290000Y-104575800D02*
X161290000Y-104546400D01*
X161290000Y-104546400D02*
X161036000Y-104292400D01*
X161377000Y-107527000D02*
X161377000Y-106984800D01*
X162181000Y-108331000D02*
X161377000Y-107527000D01*
X162306000Y-108331000D02*
X162181000Y-108331000D01*
X161377000Y-105666000D02*
X161377000Y-106984800D01*
X162177000Y-98423000D02*
X162177000Y-97166000D01*
X162204400Y-98450400D02*
X162177000Y-98423000D01*
X160577000Y-98169200D02*
X160578800Y-98171000D01*
X160577000Y-97166000D02*
X160577000Y-98169200D01*
X160578800Y-98171000D02*
X160578800Y-98653600D01*
X136106400Y-108916800D02*
X136106400Y-108166800D01*
X137552610Y-110363010D02*
X136106400Y-108916800D01*
X153502190Y-110363010D02*
X137552610Y-110363010D01*
X154706000Y-109159200D02*
X153502190Y-110363010D01*
X154706000Y-108331000D02*
X154706000Y-109159200D01*
D27*
G04 #@! TO.N,/RST*
X167161200Y-94618800D02*
X167081200Y-94538800D01*
X169621200Y-94618800D02*
X167161200Y-94618800D01*
X165227000Y-101016000D02*
X161061200Y-101016000D01*
X152349200Y-95775119D02*
X152128881Y-95554800D01*
X152349200Y-96977200D02*
X152349200Y-95775119D01*
X152128881Y-95554800D02*
X151079200Y-95554800D01*
X151079200Y-95554800D02*
X151028400Y-95504000D01*
D25*
X166204800Y-101016000D02*
X165227000Y-101016000D01*
X166573200Y-100647600D02*
X166204800Y-101016000D01*
X166573200Y-96418400D02*
X166573200Y-100647600D01*
X167081200Y-94538800D02*
X167081200Y-95910400D01*
X167081200Y-95910400D02*
X166573200Y-96418400D01*
D27*
G04 #@! TO.N,/DTR*
X166303800Y-92038800D02*
X164947600Y-93395000D01*
X167081200Y-92038800D02*
X166303800Y-92038800D01*
X164947600Y-93395000D02*
X164947600Y-94792800D01*
D25*
X165455600Y-108686600D02*
X165481000Y-108712000D01*
X165455600Y-106730800D02*
X165455600Y-108686600D01*
D27*
G04 #@! TO.N,/RX*
X165227000Y-100216000D02*
X163588400Y-100216000D01*
X163588400Y-100216000D02*
X163525200Y-100279200D01*
D25*
X170561000Y-106197400D02*
X169214800Y-104851200D01*
X170561000Y-108712000D02*
X170561000Y-106197400D01*
D27*
G04 #@! TO.N,/TX*
X164274600Y-99416000D02*
X164274200Y-99415600D01*
X165227000Y-99416000D02*
X164274600Y-99416000D01*
D25*
X164223400Y-99364800D02*
X163525200Y-99364800D01*
X164274600Y-99416000D02*
X164223400Y-99364800D01*
X169011600Y-98681333D02*
X169011600Y-98196400D01*
X169011600Y-102402828D02*
X169011600Y-98681333D01*
X168021000Y-103393428D02*
X169011600Y-102402828D01*
X168021000Y-108712000D02*
X168021000Y-103393428D01*
G04 #@! TO.N,/D8*
X161290000Y-88011000D02*
X158978600Y-88011000D01*
X158978600Y-88011000D02*
X154838400Y-92151200D01*
X155749200Y-101016000D02*
X156727000Y-101016000D01*
X154838400Y-100105200D02*
X155749200Y-101016000D01*
X154838400Y-92151200D02*
X154838400Y-100105200D01*
D27*
G04 #@! TO.N,/D9*
X152697200Y-94734400D02*
X151333200Y-94734400D01*
X128727200Y-94734400D02*
X151333200Y-94734400D01*
D25*
X154279600Y-100346400D02*
X154279600Y-96316800D01*
X155749200Y-101816000D02*
X154279600Y-100346400D01*
X156727000Y-101816000D02*
X155749200Y-101816000D01*
X154279600Y-96316800D02*
X152697200Y-94734400D01*
X152552400Y-94589600D02*
X128778000Y-94589600D01*
X152697200Y-94734400D02*
X152552400Y-94589600D01*
D27*
G04 #@! TO.N,/A0*
X178181000Y-91948000D02*
X177331001Y-92797999D01*
D25*
X176022000Y-95402400D02*
X176022000Y-94589600D01*
X176022000Y-94589600D02*
X177331001Y-93280599D01*
X174040800Y-97383600D02*
X176022000Y-95402400D01*
X168922190Y-97383600D02*
X174040800Y-97383600D01*
X162977000Y-105666000D02*
X162977000Y-106643800D01*
X177331001Y-93280599D02*
X177331001Y-92797999D01*
X162977000Y-106643800D02*
X163065901Y-106732701D01*
X164178819Y-106732701D02*
X168198800Y-102712720D01*
X168198800Y-102712720D02*
X168198800Y-98106990D01*
X163065901Y-106732701D02*
X164178819Y-106732701D01*
X168198800Y-98106990D02*
X168922190Y-97383600D01*
G04 #@! TO.N,/SCL*
X175717200Y-89865200D02*
X175260000Y-89408000D01*
X171958000Y-94618800D02*
X171958000Y-93691000D01*
X171958000Y-93691000D02*
X172431000Y-93218000D01*
X172431000Y-93218000D02*
X175361600Y-93218000D01*
X175361600Y-93218000D02*
X175717200Y-92862400D01*
X175717200Y-92862400D02*
X175717200Y-89865200D01*
X175260000Y-88036400D02*
X175260000Y-89408000D01*
X166204800Y-101816000D02*
X167132000Y-100888800D01*
X165227000Y-101816000D02*
X166204800Y-101816000D01*
X167132000Y-100888800D02*
X167132000Y-96824800D01*
X167132000Y-96824800D02*
X167640000Y-96316800D01*
X167640000Y-96316800D02*
X171500800Y-96316800D01*
X171958000Y-95859600D02*
X171958000Y-94618800D01*
X171500800Y-96316800D02*
X171958000Y-95859600D01*
G04 #@! TO.N,/SDA*
X175122600Y-94640400D02*
X176377600Y-93385400D01*
X174294800Y-94640400D02*
X175122600Y-94640400D01*
X176377600Y-89458800D02*
X177800000Y-88036400D01*
X176377600Y-93385400D02*
X176377600Y-89458800D01*
X166204800Y-102616000D02*
X167690819Y-101129981D01*
X174294800Y-94740400D02*
X174294800Y-94640400D01*
X167690819Y-101129981D02*
X167690819Y-97332781D01*
X167690819Y-97332781D02*
X168148000Y-96875600D01*
X168148000Y-96875600D02*
X172159600Y-96875600D01*
X165227000Y-102616000D02*
X166204800Y-102616000D01*
X172159600Y-96875600D02*
X174294800Y-94740400D01*
D27*
G04 #@! TO.N,/D2*
X165227000Y-98188600D02*
X165709600Y-97706000D01*
X165227000Y-98616000D02*
X165227000Y-98188600D01*
X165709600Y-97706000D02*
X165709600Y-96926400D01*
D25*
X144106400Y-87186000D02*
X144144601Y-87147799D01*
X144106400Y-89966800D02*
X144106400Y-87186000D01*
D27*
G04 #@! TO.N,/SCK*
X138106400Y-108725600D02*
X138106400Y-107975600D01*
D25*
X145006267Y-98298000D02*
X144142667Y-99161600D01*
X151130000Y-98298000D02*
X145006267Y-98298000D01*
X152349200Y-99517200D02*
X151130000Y-98298000D01*
D27*
X138106400Y-105197867D02*
X139062667Y-104241600D01*
D25*
X138106400Y-105197867D02*
X139215067Y-104089200D01*
X138106400Y-105682800D02*
X138106400Y-105197867D01*
X144142667Y-99161600D02*
X139215067Y-104089200D01*
X139215067Y-104089200D02*
X139062667Y-104241600D01*
X153265600Y-105666000D02*
X158177000Y-105666000D01*
X138106400Y-106739000D02*
X138106400Y-105682800D01*
X138106400Y-108166800D02*
X138106400Y-106739000D01*
D27*
G04 #@! TO.N,/MISO*
X140106400Y-107975600D02*
X140106400Y-108725600D01*
D25*
X152349200Y-103085000D02*
X152349200Y-102057200D01*
X153480200Y-104216000D02*
X152349200Y-103085000D01*
X156727000Y-104216000D02*
X153480200Y-104216000D01*
X152349200Y-105206800D02*
X147586700Y-109969300D01*
X152349200Y-102057200D02*
X152349200Y-105206800D01*
X140481100Y-109969300D02*
X147586700Y-109969300D01*
X140106400Y-109594600D02*
X140481100Y-109969300D01*
X140106400Y-108166800D02*
X140106400Y-109594600D01*
G04 #@! TO.N,/MOSI*
X150659199Y-100367199D02*
X149809200Y-99517200D01*
X150925901Y-100633901D02*
X150659199Y-100367199D01*
X153105963Y-100633901D02*
X150925901Y-100633901D01*
X155888062Y-103416000D02*
X153105963Y-100633901D01*
X156727000Y-103416000D02*
X155888062Y-103416000D01*
X148607119Y-99517200D02*
X149809200Y-99517200D01*
X142106400Y-108166800D02*
X142106400Y-106017919D01*
X142106400Y-106017919D02*
X148607119Y-99517200D01*
G04 #@! TO.N,/SS*
X147828000Y-106222800D02*
X147828000Y-106279700D01*
X158329300Y-102616000D02*
X156727000Y-102616000D01*
X147343067Y-106279700D02*
X147828000Y-106279700D01*
X144565700Y-106279700D02*
X147343067Y-106279700D01*
X144106400Y-106739000D02*
X144565700Y-106279700D01*
X144106400Y-108166800D02*
X144106400Y-106739000D01*
D27*
G04 #@! TO.N,Net-(D1-Pad2)*
X128727200Y-98336800D02*
X128727200Y-100046800D01*
X128727200Y-97434400D02*
X128727200Y-98336800D01*
D26*
G04 #@! TO.N,/VCC*
X170180000Y-91360000D02*
X169621200Y-91918800D01*
X170180000Y-88036400D02*
X170180000Y-91360000D01*
X170474400Y-91918800D02*
X171958000Y-91918800D01*
X169621200Y-91918800D02*
X170474400Y-91918800D01*
X171979600Y-91940400D02*
X171958000Y-91918800D01*
X174294800Y-91940400D02*
X171979600Y-91940400D01*
X159777000Y-94457000D02*
X159893000Y-94341000D01*
X159777000Y-97166000D02*
X159777000Y-94457000D01*
X161377000Y-97166000D02*
X161377000Y-94715800D01*
X162560000Y-94236000D02*
X162560000Y-94361000D01*
X163388200Y-93407800D02*
X162560000Y-94236000D01*
X163513200Y-93407800D02*
X163388200Y-93407800D01*
X166370000Y-90551000D02*
X163513200Y-93407800D01*
X166370000Y-88011000D02*
X166370000Y-90551000D01*
X159777000Y-97989642D02*
X159777000Y-97166000D01*
X158977000Y-98789642D02*
X159777000Y-97989642D01*
X158977000Y-105666000D02*
X158977000Y-98789642D01*
X131947600Y-89808000D02*
X132106400Y-89966800D01*
X132106400Y-89966800D02*
X132106400Y-91420000D01*
X162540000Y-94341000D02*
X162560000Y-94361000D01*
X161377000Y-94355600D02*
X161391600Y-94341000D01*
X161377000Y-94715800D02*
X161377000Y-94355600D01*
X159893000Y-94341000D02*
X161391600Y-94341000D01*
X161391600Y-94341000D02*
X162540000Y-94341000D01*
D25*
X176721400Y-101854000D02*
X177749200Y-101854000D01*
X174282200Y-101854000D02*
X176721400Y-101854000D01*
X173278800Y-102857400D02*
X174282200Y-101854000D01*
X173278800Y-102982400D02*
X173278800Y-102857400D01*
X171297600Y-102982400D02*
X173278800Y-102982400D01*
X157331000Y-108331000D02*
X157206000Y-108331000D01*
X158977000Y-106685000D02*
X157331000Y-108331000D01*
X158977000Y-105666000D02*
X158977000Y-106685000D01*
D26*
X129082800Y-91857200D02*
X131125600Y-91857200D01*
X132106400Y-92838000D02*
X132130800Y-92862400D01*
X132106400Y-89966800D02*
X132106400Y-92838000D01*
X132130800Y-92862400D02*
X131125600Y-91857200D01*
X129657000Y-91857200D02*
X131125600Y-91857200D01*
X129606200Y-91806400D02*
X129657000Y-91857200D01*
X128778000Y-91806400D02*
X129606200Y-91806400D01*
D25*
G04 #@! TO.N,Net-(U1-Pad8)*
X155670400Y-94498200D02*
X155670400Y-93370400D01*
X155670400Y-95112200D02*
X155670400Y-94498200D01*
X157724200Y-97166000D02*
X155670400Y-95112200D01*
X158177000Y-97166000D02*
X157724200Y-97166000D01*
G04 #@! TO.N,Net-(U1-Pad7)*
X158070400Y-94498200D02*
X158070400Y-93370400D01*
X158070400Y-95281600D02*
X158070400Y-94498200D01*
X158977000Y-96188200D02*
X158070400Y-95281600D01*
X158977000Y-97166000D02*
X158977000Y-96188200D01*
G04 #@! TO.N,Net-(ANT1-Pad1)*
X129613600Y-108185200D02*
X129613600Y-108153200D01*
X129613600Y-107407400D02*
X130798200Y-106222800D01*
X134106400Y-107416800D02*
X134106400Y-108166800D01*
X132912400Y-106222800D02*
X134106400Y-107416800D01*
X130798200Y-106222800D02*
X132912400Y-106222800D01*
X129613600Y-108153200D02*
X129613600Y-107407400D01*
G04 #@! TD*
D28*
G04 #@! TO.N,GND*
G36*
X143590665Y-86318776D02*
X143315578Y-86593863D01*
X143166701Y-86953283D01*
X143166701Y-87342315D01*
X143315578Y-87701735D01*
X143382501Y-87768658D01*
X143382501Y-88113896D01*
X143358635Y-88118643D01*
X143148591Y-88258991D01*
X143106400Y-88322134D01*
X143064209Y-88258991D01*
X142854165Y-88118643D01*
X142606400Y-88069360D01*
X141606400Y-88069360D01*
X141358635Y-88118643D01*
X141148591Y-88258991D01*
X141106400Y-88322134D01*
X141064209Y-88258991D01*
X140854165Y-88118643D01*
X140606400Y-88069360D01*
X139606400Y-88069360D01*
X139358635Y-88118643D01*
X139148591Y-88258991D01*
X139106400Y-88322134D01*
X139064209Y-88258991D01*
X138854165Y-88118643D01*
X138606400Y-88069360D01*
X137606400Y-88069360D01*
X137358635Y-88118643D01*
X137148591Y-88258991D01*
X137106400Y-88322134D01*
X137064209Y-88258991D01*
X136854165Y-88118643D01*
X136606400Y-88069360D01*
X135606400Y-88069360D01*
X135358635Y-88118643D01*
X135148591Y-88258991D01*
X135106400Y-88322134D01*
X135064209Y-88258991D01*
X134854165Y-88118643D01*
X134606400Y-88069360D01*
X133606400Y-88069360D01*
X133358635Y-88118643D01*
X133148591Y-88258991D01*
X133106400Y-88322134D01*
X133064209Y-88258991D01*
X132854165Y-88118643D01*
X132606400Y-88069360D01*
X131606400Y-88069360D01*
X131358635Y-88118643D01*
X131148591Y-88258991D01*
X131008243Y-88469035D01*
X130958960Y-88716800D01*
X130958960Y-91120600D01*
X130050440Y-91120600D01*
X130050440Y-91056400D01*
X130001157Y-90808635D01*
X129860809Y-90598591D01*
X129799680Y-90557746D01*
X129941327Y-90416098D01*
X130038000Y-90182709D01*
X130038000Y-89592150D01*
X129879250Y-89433400D01*
X128905000Y-89433400D01*
X128905000Y-89453400D01*
X128651000Y-89453400D01*
X128651000Y-89433400D01*
X127676750Y-89433400D01*
X127518000Y-89592150D01*
X127518000Y-90182709D01*
X127614673Y-90416098D01*
X127756320Y-90557746D01*
X127695191Y-90598591D01*
X127554843Y-90808635D01*
X127505560Y-91056400D01*
X127505560Y-92556400D01*
X127554843Y-92804165D01*
X127695191Y-93014209D01*
X127905235Y-93154557D01*
X128111140Y-93195514D01*
X127880235Y-93241443D01*
X127670191Y-93381791D01*
X127529843Y-93591835D01*
X127480560Y-93839600D01*
X127480560Y-95339600D01*
X127529843Y-95587365D01*
X127670191Y-95797409D01*
X127880235Y-95937757D01*
X127889500Y-95939600D01*
X127880235Y-95941443D01*
X127670191Y-96081791D01*
X127529843Y-96291835D01*
X127480560Y-96539600D01*
X127480560Y-98039600D01*
X127529843Y-98287365D01*
X127670191Y-98497409D01*
X127880235Y-98637757D01*
X127906103Y-98642902D01*
X127720991Y-98766591D01*
X127580643Y-98976635D01*
X127531360Y-99224400D01*
X127531360Y-100724400D01*
X127580643Y-100972165D01*
X127720991Y-101182209D01*
X127931035Y-101322557D01*
X127959009Y-101328121D01*
X127819101Y-101386073D01*
X127640473Y-101564702D01*
X127543800Y-101798091D01*
X127543800Y-102388650D01*
X127702550Y-102547400D01*
X128701800Y-102547400D01*
X128701800Y-102527400D01*
X128955800Y-102527400D01*
X128955800Y-102547400D01*
X129955050Y-102547400D01*
X130113800Y-102388650D01*
X130113800Y-101798091D01*
X130017127Y-101564702D01*
X129838499Y-101386073D01*
X129698591Y-101328121D01*
X129726565Y-101322557D01*
X129936609Y-101182209D01*
X130076957Y-100972165D01*
X130126240Y-100724400D01*
X130126240Y-99224400D01*
X130076957Y-98976635D01*
X129936609Y-98766591D01*
X129726565Y-98626243D01*
X129700697Y-98621098D01*
X129885809Y-98497409D01*
X130026157Y-98287365D01*
X130075440Y-98039600D01*
X130075440Y-96620310D01*
X148367724Y-96620310D01*
X148489045Y-96850200D01*
X149682200Y-96850200D01*
X149682200Y-95656381D01*
X149452308Y-95535714D01*
X148927842Y-95782017D01*
X148537555Y-96210276D01*
X148367724Y-96620310D01*
X130075440Y-96620310D01*
X130075440Y-96539600D01*
X130026157Y-96291835D01*
X129885809Y-96081791D01*
X129675765Y-95941443D01*
X129666500Y-95939600D01*
X129675765Y-95937757D01*
X129885809Y-95797409D01*
X130026157Y-95587365D01*
X130054356Y-95445600D01*
X150050500Y-95445600D01*
X150050500Y-95596387D01*
X149936200Y-95656381D01*
X149936200Y-96850200D01*
X149956200Y-96850200D01*
X149956200Y-97104200D01*
X149936200Y-97104200D01*
X149936200Y-97124200D01*
X149682200Y-97124200D01*
X149682200Y-97104200D01*
X148489045Y-97104200D01*
X148367724Y-97334090D01*
X148467133Y-97574100D01*
X145077565Y-97574100D01*
X145006267Y-97559918D01*
X144723815Y-97616101D01*
X144545517Y-97735236D01*
X144484364Y-97776097D01*
X144443977Y-97836540D01*
X143681212Y-98599306D01*
X143681207Y-98599310D01*
X138753610Y-103526909D01*
X138753607Y-103526911D01*
X137644943Y-104635576D01*
X137584498Y-104675964D01*
X137424501Y-104915415D01*
X137424501Y-104915416D01*
X137408033Y-104998208D01*
X137277377Y-105128864D01*
X137128500Y-105488284D01*
X137128500Y-105877316D01*
X137277377Y-106236736D01*
X137359176Y-106318535D01*
X137358635Y-106318643D01*
X137148591Y-106458991D01*
X137107745Y-106520120D01*
X136966099Y-106378473D01*
X136732710Y-106281800D01*
X136392150Y-106281800D01*
X136233400Y-106440550D01*
X136233400Y-108039800D01*
X136253400Y-108039800D01*
X136253400Y-108293800D01*
X136233400Y-108293800D01*
X136233400Y-109893050D01*
X136392150Y-110051800D01*
X136732710Y-110051800D01*
X136966099Y-109955127D01*
X137107745Y-109813480D01*
X137148591Y-109874609D01*
X137358635Y-110014957D01*
X137606400Y-110064240D01*
X138606400Y-110064240D01*
X138854165Y-110014957D01*
X139064209Y-109874609D01*
X139106400Y-109811466D01*
X139148591Y-109874609D01*
X139358635Y-110014957D01*
X139540867Y-110051205D01*
X139584498Y-110116503D01*
X139644943Y-110156891D01*
X139814128Y-110326077D01*
X129588611Y-110335624D01*
X129598600Y-110311509D01*
X129598600Y-109920950D01*
X129439850Y-109762200D01*
X127990600Y-109762200D01*
X127990600Y-109782200D01*
X127736600Y-109782200D01*
X127736600Y-109762200D01*
X127716600Y-109762200D01*
X127716600Y-109508200D01*
X127736600Y-109508200D01*
X127736600Y-108608950D01*
X127577850Y-108450200D01*
X126897200Y-108450200D01*
X126897200Y-107920200D01*
X127577850Y-107920200D01*
X127736600Y-107761450D01*
X127736600Y-106862200D01*
X127716600Y-106862200D01*
X127716600Y-106608200D01*
X127736600Y-106608200D01*
X127736600Y-105708950D01*
X127990600Y-105708950D01*
X127990600Y-106608200D01*
X128010600Y-106608200D01*
X128010600Y-106862200D01*
X127990600Y-106862200D01*
X127990600Y-107761450D01*
X128149350Y-107920200D01*
X128216160Y-107920200D01*
X128216160Y-108450200D01*
X128149350Y-108450200D01*
X127990600Y-108608950D01*
X127990600Y-109508200D01*
X129439850Y-109508200D01*
X129515410Y-109432640D01*
X130363600Y-109432640D01*
X130611365Y-109383357D01*
X130821409Y-109243009D01*
X130961757Y-109032965D01*
X130971400Y-108984486D01*
X130971400Y-109543109D01*
X131068073Y-109776498D01*
X131246701Y-109955127D01*
X131480090Y-110051800D01*
X131820650Y-110051800D01*
X131979400Y-109893050D01*
X131979400Y-108293800D01*
X131959400Y-108293800D01*
X131959400Y-108039800D01*
X131979400Y-108039800D01*
X131979400Y-108019800D01*
X132233400Y-108019800D01*
X132233400Y-108039800D01*
X132253400Y-108039800D01*
X132253400Y-108293800D01*
X132233400Y-108293800D01*
X132233400Y-109893050D01*
X132392150Y-110051800D01*
X132732710Y-110051800D01*
X132966099Y-109955127D01*
X133107745Y-109813480D01*
X133148591Y-109874609D01*
X133358635Y-110014957D01*
X133606400Y-110064240D01*
X134606400Y-110064240D01*
X134854165Y-110014957D01*
X135064209Y-109874609D01*
X135105055Y-109813480D01*
X135246701Y-109955127D01*
X135480090Y-110051800D01*
X135820650Y-110051800D01*
X135979400Y-109893050D01*
X135979400Y-108293800D01*
X135959400Y-108293800D01*
X135959400Y-108039800D01*
X135979400Y-108039800D01*
X135979400Y-106440550D01*
X135820650Y-106281800D01*
X135480090Y-106281800D01*
X135246701Y-106378473D01*
X135105055Y-106520120D01*
X135064209Y-106458991D01*
X134854165Y-106318643D01*
X134606400Y-106269360D01*
X133982708Y-106269360D01*
X133474693Y-105761345D01*
X133434303Y-105700897D01*
X133194852Y-105540901D01*
X132983698Y-105498900D01*
X132912400Y-105484718D01*
X132841102Y-105498900D01*
X130869496Y-105498900D01*
X130798199Y-105484718D01*
X130726903Y-105498900D01*
X130726902Y-105498900D01*
X130515748Y-105540901D01*
X130276297Y-105700897D01*
X130235909Y-105761342D01*
X129598600Y-106398652D01*
X129598600Y-106058891D01*
X129501927Y-105825502D01*
X129323299Y-105646873D01*
X129089910Y-105550200D01*
X128149350Y-105550200D01*
X127990600Y-105708950D01*
X127736600Y-105708950D01*
X127577850Y-105550200D01*
X126897200Y-105550200D01*
X126897200Y-102960150D01*
X127543800Y-102960150D01*
X127543800Y-103550709D01*
X127640473Y-103784098D01*
X127819101Y-103962727D01*
X128052490Y-104059400D01*
X128543050Y-104059400D01*
X128701800Y-103900650D01*
X128701800Y-102801400D01*
X128955800Y-102801400D01*
X128955800Y-103900650D01*
X129114550Y-104059400D01*
X129605110Y-104059400D01*
X129838499Y-103962727D01*
X130017127Y-103784098D01*
X130113800Y-103550709D01*
X130113800Y-102960150D01*
X129955050Y-102801400D01*
X128955800Y-102801400D01*
X128701800Y-102801400D01*
X127702550Y-102801400D01*
X127543800Y-102960150D01*
X126897200Y-102960150D01*
X126897200Y-88430091D01*
X127518000Y-88430091D01*
X127518000Y-89020650D01*
X127676750Y-89179400D01*
X128651000Y-89179400D01*
X128651000Y-88080150D01*
X128905000Y-88080150D01*
X128905000Y-89179400D01*
X129879250Y-89179400D01*
X130038000Y-89020650D01*
X130038000Y-88430091D01*
X129941327Y-88196702D01*
X129762699Y-88018073D01*
X129529310Y-87921400D01*
X129063750Y-87921400D01*
X128905000Y-88080150D01*
X128651000Y-88080150D01*
X128492250Y-87921400D01*
X128026690Y-87921400D01*
X127793301Y-88018073D01*
X127614673Y-88196702D01*
X127518000Y-88430091D01*
X126897200Y-88430091D01*
X126897200Y-86308000D01*
X143616681Y-86308000D01*
X143590665Y-86318776D01*
X143590665Y-86318776D01*
G37*
X143590665Y-86318776D02*
X143315578Y-86593863D01*
X143166701Y-86953283D01*
X143166701Y-87342315D01*
X143315578Y-87701735D01*
X143382501Y-87768658D01*
X143382501Y-88113896D01*
X143358635Y-88118643D01*
X143148591Y-88258991D01*
X143106400Y-88322134D01*
X143064209Y-88258991D01*
X142854165Y-88118643D01*
X142606400Y-88069360D01*
X141606400Y-88069360D01*
X141358635Y-88118643D01*
X141148591Y-88258991D01*
X141106400Y-88322134D01*
X141064209Y-88258991D01*
X140854165Y-88118643D01*
X140606400Y-88069360D01*
X139606400Y-88069360D01*
X139358635Y-88118643D01*
X139148591Y-88258991D01*
X139106400Y-88322134D01*
X139064209Y-88258991D01*
X138854165Y-88118643D01*
X138606400Y-88069360D01*
X137606400Y-88069360D01*
X137358635Y-88118643D01*
X137148591Y-88258991D01*
X137106400Y-88322134D01*
X137064209Y-88258991D01*
X136854165Y-88118643D01*
X136606400Y-88069360D01*
X135606400Y-88069360D01*
X135358635Y-88118643D01*
X135148591Y-88258991D01*
X135106400Y-88322134D01*
X135064209Y-88258991D01*
X134854165Y-88118643D01*
X134606400Y-88069360D01*
X133606400Y-88069360D01*
X133358635Y-88118643D01*
X133148591Y-88258991D01*
X133106400Y-88322134D01*
X133064209Y-88258991D01*
X132854165Y-88118643D01*
X132606400Y-88069360D01*
X131606400Y-88069360D01*
X131358635Y-88118643D01*
X131148591Y-88258991D01*
X131008243Y-88469035D01*
X130958960Y-88716800D01*
X130958960Y-91120600D01*
X130050440Y-91120600D01*
X130050440Y-91056400D01*
X130001157Y-90808635D01*
X129860809Y-90598591D01*
X129799680Y-90557746D01*
X129941327Y-90416098D01*
X130038000Y-90182709D01*
X130038000Y-89592150D01*
X129879250Y-89433400D01*
X128905000Y-89433400D01*
X128905000Y-89453400D01*
X128651000Y-89453400D01*
X128651000Y-89433400D01*
X127676750Y-89433400D01*
X127518000Y-89592150D01*
X127518000Y-90182709D01*
X127614673Y-90416098D01*
X127756320Y-90557746D01*
X127695191Y-90598591D01*
X127554843Y-90808635D01*
X127505560Y-91056400D01*
X127505560Y-92556400D01*
X127554843Y-92804165D01*
X127695191Y-93014209D01*
X127905235Y-93154557D01*
X128111140Y-93195514D01*
X127880235Y-93241443D01*
X127670191Y-93381791D01*
X127529843Y-93591835D01*
X127480560Y-93839600D01*
X127480560Y-95339600D01*
X127529843Y-95587365D01*
X127670191Y-95797409D01*
X127880235Y-95937757D01*
X127889500Y-95939600D01*
X127880235Y-95941443D01*
X127670191Y-96081791D01*
X127529843Y-96291835D01*
X127480560Y-96539600D01*
X127480560Y-98039600D01*
X127529843Y-98287365D01*
X127670191Y-98497409D01*
X127880235Y-98637757D01*
X127906103Y-98642902D01*
X127720991Y-98766591D01*
X127580643Y-98976635D01*
X127531360Y-99224400D01*
X127531360Y-100724400D01*
X127580643Y-100972165D01*
X127720991Y-101182209D01*
X127931035Y-101322557D01*
X127959009Y-101328121D01*
X127819101Y-101386073D01*
X127640473Y-101564702D01*
X127543800Y-101798091D01*
X127543800Y-102388650D01*
X127702550Y-102547400D01*
X128701800Y-102547400D01*
X128701800Y-102527400D01*
X128955800Y-102527400D01*
X128955800Y-102547400D01*
X129955050Y-102547400D01*
X130113800Y-102388650D01*
X130113800Y-101798091D01*
X130017127Y-101564702D01*
X129838499Y-101386073D01*
X129698591Y-101328121D01*
X129726565Y-101322557D01*
X129936609Y-101182209D01*
X130076957Y-100972165D01*
X130126240Y-100724400D01*
X130126240Y-99224400D01*
X130076957Y-98976635D01*
X129936609Y-98766591D01*
X129726565Y-98626243D01*
X129700697Y-98621098D01*
X129885809Y-98497409D01*
X130026157Y-98287365D01*
X130075440Y-98039600D01*
X130075440Y-96620310D01*
X148367724Y-96620310D01*
X148489045Y-96850200D01*
X149682200Y-96850200D01*
X149682200Y-95656381D01*
X149452308Y-95535714D01*
X148927842Y-95782017D01*
X148537555Y-96210276D01*
X148367724Y-96620310D01*
X130075440Y-96620310D01*
X130075440Y-96539600D01*
X130026157Y-96291835D01*
X129885809Y-96081791D01*
X129675765Y-95941443D01*
X129666500Y-95939600D01*
X129675765Y-95937757D01*
X129885809Y-95797409D01*
X130026157Y-95587365D01*
X130054356Y-95445600D01*
X150050500Y-95445600D01*
X150050500Y-95596387D01*
X149936200Y-95656381D01*
X149936200Y-96850200D01*
X149956200Y-96850200D01*
X149956200Y-97104200D01*
X149936200Y-97104200D01*
X149936200Y-97124200D01*
X149682200Y-97124200D01*
X149682200Y-97104200D01*
X148489045Y-97104200D01*
X148367724Y-97334090D01*
X148467133Y-97574100D01*
X145077565Y-97574100D01*
X145006267Y-97559918D01*
X144723815Y-97616101D01*
X144545517Y-97735236D01*
X144484364Y-97776097D01*
X144443977Y-97836540D01*
X143681212Y-98599306D01*
X143681207Y-98599310D01*
X138753610Y-103526909D01*
X138753607Y-103526911D01*
X137644943Y-104635576D01*
X137584498Y-104675964D01*
X137424501Y-104915415D01*
X137424501Y-104915416D01*
X137408033Y-104998208D01*
X137277377Y-105128864D01*
X137128500Y-105488284D01*
X137128500Y-105877316D01*
X137277377Y-106236736D01*
X137359176Y-106318535D01*
X137358635Y-106318643D01*
X137148591Y-106458991D01*
X137107745Y-106520120D01*
X136966099Y-106378473D01*
X136732710Y-106281800D01*
X136392150Y-106281800D01*
X136233400Y-106440550D01*
X136233400Y-108039800D01*
X136253400Y-108039800D01*
X136253400Y-108293800D01*
X136233400Y-108293800D01*
X136233400Y-109893050D01*
X136392150Y-110051800D01*
X136732710Y-110051800D01*
X136966099Y-109955127D01*
X137107745Y-109813480D01*
X137148591Y-109874609D01*
X137358635Y-110014957D01*
X137606400Y-110064240D01*
X138606400Y-110064240D01*
X138854165Y-110014957D01*
X139064209Y-109874609D01*
X139106400Y-109811466D01*
X139148591Y-109874609D01*
X139358635Y-110014957D01*
X139540867Y-110051205D01*
X139584498Y-110116503D01*
X139644943Y-110156891D01*
X139814128Y-110326077D01*
X129588611Y-110335624D01*
X129598600Y-110311509D01*
X129598600Y-109920950D01*
X129439850Y-109762200D01*
X127990600Y-109762200D01*
X127990600Y-109782200D01*
X127736600Y-109782200D01*
X127736600Y-109762200D01*
X127716600Y-109762200D01*
X127716600Y-109508200D01*
X127736600Y-109508200D01*
X127736600Y-108608950D01*
X127577850Y-108450200D01*
X126897200Y-108450200D01*
X126897200Y-107920200D01*
X127577850Y-107920200D01*
X127736600Y-107761450D01*
X127736600Y-106862200D01*
X127716600Y-106862200D01*
X127716600Y-106608200D01*
X127736600Y-106608200D01*
X127736600Y-105708950D01*
X127990600Y-105708950D01*
X127990600Y-106608200D01*
X128010600Y-106608200D01*
X128010600Y-106862200D01*
X127990600Y-106862200D01*
X127990600Y-107761450D01*
X128149350Y-107920200D01*
X128216160Y-107920200D01*
X128216160Y-108450200D01*
X128149350Y-108450200D01*
X127990600Y-108608950D01*
X127990600Y-109508200D01*
X129439850Y-109508200D01*
X129515410Y-109432640D01*
X130363600Y-109432640D01*
X130611365Y-109383357D01*
X130821409Y-109243009D01*
X130961757Y-109032965D01*
X130971400Y-108984486D01*
X130971400Y-109543109D01*
X131068073Y-109776498D01*
X131246701Y-109955127D01*
X131480090Y-110051800D01*
X131820650Y-110051800D01*
X131979400Y-109893050D01*
X131979400Y-108293800D01*
X131959400Y-108293800D01*
X131959400Y-108039800D01*
X131979400Y-108039800D01*
X131979400Y-108019800D01*
X132233400Y-108019800D01*
X132233400Y-108039800D01*
X132253400Y-108039800D01*
X132253400Y-108293800D01*
X132233400Y-108293800D01*
X132233400Y-109893050D01*
X132392150Y-110051800D01*
X132732710Y-110051800D01*
X132966099Y-109955127D01*
X133107745Y-109813480D01*
X133148591Y-109874609D01*
X133358635Y-110014957D01*
X133606400Y-110064240D01*
X134606400Y-110064240D01*
X134854165Y-110014957D01*
X135064209Y-109874609D01*
X135105055Y-109813480D01*
X135246701Y-109955127D01*
X135480090Y-110051800D01*
X135820650Y-110051800D01*
X135979400Y-109893050D01*
X135979400Y-108293800D01*
X135959400Y-108293800D01*
X135959400Y-108039800D01*
X135979400Y-108039800D01*
X135979400Y-106440550D01*
X135820650Y-106281800D01*
X135480090Y-106281800D01*
X135246701Y-106378473D01*
X135105055Y-106520120D01*
X135064209Y-106458991D01*
X134854165Y-106318643D01*
X134606400Y-106269360D01*
X133982708Y-106269360D01*
X133474693Y-105761345D01*
X133434303Y-105700897D01*
X133194852Y-105540901D01*
X132983698Y-105498900D01*
X132912400Y-105484718D01*
X132841102Y-105498900D01*
X130869496Y-105498900D01*
X130798199Y-105484718D01*
X130726903Y-105498900D01*
X130726902Y-105498900D01*
X130515748Y-105540901D01*
X130276297Y-105700897D01*
X130235909Y-105761342D01*
X129598600Y-106398652D01*
X129598600Y-106058891D01*
X129501927Y-105825502D01*
X129323299Y-105646873D01*
X129089910Y-105550200D01*
X128149350Y-105550200D01*
X127990600Y-105708950D01*
X127736600Y-105708950D01*
X127577850Y-105550200D01*
X126897200Y-105550200D01*
X126897200Y-102960150D01*
X127543800Y-102960150D01*
X127543800Y-103550709D01*
X127640473Y-103784098D01*
X127819101Y-103962727D01*
X128052490Y-104059400D01*
X128543050Y-104059400D01*
X128701800Y-103900650D01*
X128701800Y-102801400D01*
X128955800Y-102801400D01*
X128955800Y-103900650D01*
X129114550Y-104059400D01*
X129605110Y-104059400D01*
X129838499Y-103962727D01*
X130017127Y-103784098D01*
X130113800Y-103550709D01*
X130113800Y-102960150D01*
X129955050Y-102801400D01*
X128955800Y-102801400D01*
X128701800Y-102801400D01*
X127702550Y-102801400D01*
X127543800Y-102960150D01*
X126897200Y-102960150D01*
X126897200Y-88430091D01*
X127518000Y-88430091D01*
X127518000Y-89020650D01*
X127676750Y-89179400D01*
X128651000Y-89179400D01*
X128651000Y-88080150D01*
X128905000Y-88080150D01*
X128905000Y-89179400D01*
X129879250Y-89179400D01*
X130038000Y-89020650D01*
X130038000Y-88430091D01*
X129941327Y-88196702D01*
X129762699Y-88018073D01*
X129529310Y-87921400D01*
X129063750Y-87921400D01*
X128905000Y-88080150D01*
X128651000Y-88080150D01*
X128492250Y-87921400D01*
X128026690Y-87921400D01*
X127793301Y-88018073D01*
X127614673Y-88196702D01*
X127518000Y-88430091D01*
X126897200Y-88430091D01*
X126897200Y-86308000D01*
X143616681Y-86308000D01*
X143590665Y-86318776D01*
G36*
X179884001Y-110288664D02*
X148261559Y-110318189D01*
X149962998Y-108616750D01*
X153321000Y-108616750D01*
X153321000Y-109082310D01*
X153417673Y-109315699D01*
X153596302Y-109494327D01*
X153829691Y-109591000D01*
X154420250Y-109591000D01*
X154579000Y-109432250D01*
X154579000Y-108458000D01*
X153479750Y-108458000D01*
X153321000Y-108616750D01*
X149962998Y-108616750D01*
X151000058Y-107579690D01*
X153321000Y-107579690D01*
X153321000Y-108045250D01*
X153479750Y-108204000D01*
X154579000Y-108204000D01*
X154579000Y-107229750D01*
X154420250Y-107071000D01*
X153829691Y-107071000D01*
X153596302Y-107167673D01*
X153417673Y-107346301D01*
X153321000Y-107579690D01*
X151000058Y-107579690D01*
X152414093Y-106165656D01*
X152436577Y-106219936D01*
X152711664Y-106495023D01*
X153071084Y-106643900D01*
X153460116Y-106643900D01*
X153819536Y-106495023D01*
X153924659Y-106389900D01*
X157254560Y-106389900D01*
X157254560Y-106466000D01*
X157303843Y-106713765D01*
X157444191Y-106923809D01*
X157606194Y-107032057D01*
X157579692Y-107058560D01*
X156456000Y-107058560D01*
X156208235Y-107107843D01*
X155998191Y-107248191D01*
X155957346Y-107309320D01*
X155815698Y-107167673D01*
X155582309Y-107071000D01*
X154991750Y-107071000D01*
X154833000Y-107229750D01*
X154833000Y-108204000D01*
X154853000Y-108204000D01*
X154853000Y-108458000D01*
X154833000Y-108458000D01*
X154833000Y-109432250D01*
X154991750Y-109591000D01*
X155582309Y-109591000D01*
X155815698Y-109494327D01*
X155957346Y-109352680D01*
X155998191Y-109413809D01*
X156208235Y-109554157D01*
X156456000Y-109603440D01*
X157956000Y-109603440D01*
X158203765Y-109554157D01*
X158413809Y-109413809D01*
X158506000Y-109275836D01*
X158598191Y-109413809D01*
X158808235Y-109554157D01*
X159056000Y-109603440D01*
X160556000Y-109603440D01*
X160803765Y-109554157D01*
X161013809Y-109413809D01*
X161054654Y-109352680D01*
X161196302Y-109494327D01*
X161429691Y-109591000D01*
X162020250Y-109591000D01*
X162179000Y-109432250D01*
X162179000Y-108458000D01*
X162433000Y-108458000D01*
X162433000Y-109432250D01*
X162591750Y-109591000D01*
X163182309Y-109591000D01*
X163415698Y-109494327D01*
X163594327Y-109315699D01*
X163691000Y-109082310D01*
X163691000Y-108616750D01*
X163532250Y-108458000D01*
X162433000Y-108458000D01*
X162179000Y-108458000D01*
X162159000Y-108458000D01*
X162159000Y-108204000D01*
X162179000Y-108204000D01*
X162179000Y-108184000D01*
X162433000Y-108184000D01*
X162433000Y-108204000D01*
X163532250Y-108204000D01*
X163691000Y-108045250D01*
X163691000Y-107579690D01*
X163640015Y-107456601D01*
X164107521Y-107456601D01*
X164134576Y-107461982D01*
X164032843Y-107614235D01*
X163983560Y-107862000D01*
X163983560Y-109562000D01*
X164032843Y-109809765D01*
X164173191Y-110019809D01*
X164383235Y-110160157D01*
X164631000Y-110209440D01*
X166331000Y-110209440D01*
X166578765Y-110160157D01*
X166788809Y-110019809D01*
X166929157Y-109809765D01*
X166938184Y-109764381D01*
X166950375Y-109782625D01*
X167441582Y-110110839D01*
X167874744Y-110197000D01*
X168167256Y-110197000D01*
X168600418Y-110110839D01*
X169091625Y-109782625D01*
X169291000Y-109484239D01*
X169490375Y-109782625D01*
X169981582Y-110110839D01*
X170414744Y-110197000D01*
X170707256Y-110197000D01*
X171140418Y-110110839D01*
X171631625Y-109782625D01*
X171831000Y-109484239D01*
X172030375Y-109782625D01*
X172521582Y-110110839D01*
X172954744Y-110197000D01*
X173247256Y-110197000D01*
X173680418Y-110110839D01*
X174171625Y-109782625D01*
X174384843Y-109463522D01*
X174445817Y-109593358D01*
X174874076Y-109983645D01*
X175284110Y-110153476D01*
X175514000Y-110032155D01*
X175514000Y-108839000D01*
X175768000Y-108839000D01*
X175768000Y-110032155D01*
X175997890Y-110153476D01*
X176407924Y-109983645D01*
X176836183Y-109593358D01*
X176911000Y-109434046D01*
X176985817Y-109593358D01*
X177414076Y-109983645D01*
X177824110Y-110153476D01*
X178054000Y-110032155D01*
X178054000Y-108839000D01*
X178308000Y-108839000D01*
X178308000Y-110032155D01*
X178537890Y-110153476D01*
X178947924Y-109983645D01*
X179376183Y-109593358D01*
X179622486Y-109068892D01*
X179501819Y-108839000D01*
X178308000Y-108839000D01*
X178054000Y-108839000D01*
X175768000Y-108839000D01*
X175514000Y-108839000D01*
X175494000Y-108839000D01*
X175494000Y-108585000D01*
X175514000Y-108585000D01*
X175514000Y-107391845D01*
X175768000Y-107391845D01*
X175768000Y-108585000D01*
X178054000Y-108585000D01*
X178054000Y-107391845D01*
X178308000Y-107391845D01*
X178308000Y-108585000D01*
X179501819Y-108585000D01*
X179622486Y-108355108D01*
X179376183Y-107830642D01*
X178947924Y-107440355D01*
X178537890Y-107270524D01*
X178308000Y-107391845D01*
X178054000Y-107391845D01*
X177824110Y-107270524D01*
X177414076Y-107440355D01*
X176985817Y-107830642D01*
X176911000Y-107989954D01*
X176836183Y-107830642D01*
X176407924Y-107440355D01*
X175997890Y-107270524D01*
X175768000Y-107391845D01*
X175514000Y-107391845D01*
X175284110Y-107270524D01*
X174874076Y-107440355D01*
X174445817Y-107830642D01*
X174384843Y-107960478D01*
X174171625Y-107641375D01*
X173680418Y-107313161D01*
X173247256Y-107227000D01*
X172954744Y-107227000D01*
X172521582Y-107313161D01*
X172030375Y-107641375D01*
X171831000Y-107939761D01*
X171631625Y-107641375D01*
X171284900Y-107409701D01*
X171284900Y-106268696D01*
X171299082Y-106197399D01*
X171284064Y-106121898D01*
X171242899Y-105914948D01*
X171082903Y-105675497D01*
X171022458Y-105635109D01*
X170192700Y-104805352D01*
X170192700Y-104656684D01*
X170043823Y-104297264D01*
X169768736Y-104022177D01*
X169409316Y-103873300D01*
X169020284Y-103873300D01*
X168744900Y-103987368D01*
X168744900Y-103693276D01*
X169473060Y-102965117D01*
X169533502Y-102924731D01*
X169609819Y-102810516D01*
X169693499Y-102685280D01*
X169749682Y-102402828D01*
X169735500Y-102331530D01*
X169735500Y-102232400D01*
X170025160Y-102232400D01*
X170025160Y-103732400D01*
X170074443Y-103980165D01*
X170214791Y-104190209D01*
X170424835Y-104330557D01*
X170672600Y-104379840D01*
X171922600Y-104379840D01*
X172170365Y-104330557D01*
X172288200Y-104251822D01*
X172406035Y-104330557D01*
X172653800Y-104379840D01*
X173903800Y-104379840D01*
X174151565Y-104330557D01*
X174361609Y-104190209D01*
X174374037Y-104171609D01*
X176305738Y-104171609D01*
X176320914Y-104263376D01*
X176567267Y-104683125D01*
X176955499Y-104976647D01*
X177426504Y-105099256D01*
X177622200Y-104936547D01*
X177622200Y-103981000D01*
X177876200Y-103981000D01*
X177876200Y-104936547D01*
X178071896Y-105099256D01*
X178542901Y-104976647D01*
X178931133Y-104683125D01*
X179177486Y-104263376D01*
X179192662Y-104171609D01*
X179067931Y-103981000D01*
X177876200Y-103981000D01*
X177622200Y-103981000D01*
X176430469Y-103981000D01*
X176305738Y-104171609D01*
X174374037Y-104171609D01*
X174501957Y-103980165D01*
X174551240Y-103732400D01*
X174551240Y-102608709D01*
X174582049Y-102577900D01*
X176276405Y-102577900D01*
X176301043Y-102701765D01*
X176441391Y-102911809D01*
X176587599Y-103009503D01*
X176567267Y-103024875D01*
X176320914Y-103444624D01*
X176305738Y-103536391D01*
X176430469Y-103727000D01*
X177622200Y-103727000D01*
X177622200Y-103707000D01*
X177876200Y-103707000D01*
X177876200Y-103727000D01*
X179067931Y-103727000D01*
X179192662Y-103536391D01*
X179177486Y-103444624D01*
X178931133Y-103024875D01*
X178910801Y-103009503D01*
X179057009Y-102911809D01*
X179197357Y-102701765D01*
X179246640Y-102454000D01*
X179246640Y-101254000D01*
X179197357Y-101006235D01*
X179057009Y-100796191D01*
X178846965Y-100655843D01*
X178599200Y-100606560D01*
X176899200Y-100606560D01*
X176651435Y-100655843D01*
X176441391Y-100796191D01*
X176301043Y-101006235D01*
X176276405Y-101130100D01*
X174538800Y-101130100D01*
X174538800Y-100768150D01*
X174380050Y-100609400D01*
X173405800Y-100609400D01*
X173405800Y-100629400D01*
X173151800Y-100629400D01*
X173151800Y-100609400D01*
X171424600Y-100609400D01*
X171424600Y-100629400D01*
X171170600Y-100629400D01*
X171170600Y-100609400D01*
X170196350Y-100609400D01*
X170037600Y-100768150D01*
X170037600Y-101358709D01*
X170134273Y-101592098D01*
X170275920Y-101733746D01*
X170214791Y-101774591D01*
X170074443Y-101984635D01*
X170025160Y-102232400D01*
X169735500Y-102232400D01*
X169735500Y-99606091D01*
X170037600Y-99606091D01*
X170037600Y-100196650D01*
X170196350Y-100355400D01*
X171170600Y-100355400D01*
X171170600Y-99256150D01*
X171424600Y-99256150D01*
X171424600Y-100355400D01*
X173151800Y-100355400D01*
X173151800Y-99256150D01*
X173405800Y-99256150D01*
X173405800Y-100355400D01*
X174380050Y-100355400D01*
X174538800Y-100196650D01*
X174538800Y-99606091D01*
X174442127Y-99372702D01*
X174263499Y-99194073D01*
X174030110Y-99097400D01*
X173564550Y-99097400D01*
X173405800Y-99256150D01*
X173151800Y-99256150D01*
X172993050Y-99097400D01*
X172527490Y-99097400D01*
X172294101Y-99194073D01*
X172288200Y-99199974D01*
X172282299Y-99194073D01*
X172048910Y-99097400D01*
X171583350Y-99097400D01*
X171424600Y-99256150D01*
X171170600Y-99256150D01*
X171011850Y-99097400D01*
X170546290Y-99097400D01*
X170312901Y-99194073D01*
X170134273Y-99372702D01*
X170037600Y-99606091D01*
X169735500Y-99606091D01*
X169735500Y-98855459D01*
X169840623Y-98750336D01*
X169989500Y-98390916D01*
X169989500Y-98107500D01*
X173969502Y-98107500D01*
X174040800Y-98121682D01*
X174112098Y-98107500D01*
X174323252Y-98065499D01*
X174562703Y-97905503D01*
X174603093Y-97845055D01*
X176483460Y-95964689D01*
X176543902Y-95924303D01*
X176605380Y-95832296D01*
X176703899Y-95684852D01*
X176760082Y-95402400D01*
X176745900Y-95331102D01*
X176745900Y-94889448D01*
X176754442Y-94880907D01*
X176909355Y-95254924D01*
X177186708Y-95559261D01*
X177083235Y-95579843D01*
X176873191Y-95720191D01*
X176732843Y-95930235D01*
X176683560Y-96178000D01*
X176683560Y-97878000D01*
X176732843Y-98125765D01*
X176873191Y-98335809D01*
X177083235Y-98476157D01*
X177331000Y-98525440D01*
X179031000Y-98525440D01*
X179278765Y-98476157D01*
X179488809Y-98335809D01*
X179629157Y-98125765D01*
X179678440Y-97878000D01*
X179678440Y-96178000D01*
X179629157Y-95930235D01*
X179488809Y-95720191D01*
X179278765Y-95579843D01*
X179175292Y-95559261D01*
X179452645Y-95254924D01*
X179622476Y-94844890D01*
X179501155Y-94615000D01*
X178308000Y-94615000D01*
X178308000Y-94635000D01*
X178054000Y-94635000D01*
X178054000Y-94615000D01*
X178034000Y-94615000D01*
X178034000Y-94361000D01*
X178054000Y-94361000D01*
X178054000Y-94341000D01*
X178308000Y-94341000D01*
X178308000Y-94361000D01*
X179501155Y-94361000D01*
X179622476Y-94131110D01*
X179452645Y-93721076D01*
X179062358Y-93292817D01*
X178932522Y-93231843D01*
X179251625Y-93018625D01*
X179579839Y-92527418D01*
X179695092Y-91948000D01*
X179579839Y-91368582D01*
X179251625Y-90877375D01*
X178760418Y-90549161D01*
X178327256Y-90463000D01*
X178034744Y-90463000D01*
X177601582Y-90549161D01*
X177110375Y-90877375D01*
X177101500Y-90890657D01*
X177101500Y-89758648D01*
X177391009Y-89469139D01*
X177653744Y-89521400D01*
X177946256Y-89521400D01*
X178379418Y-89435239D01*
X178870625Y-89107025D01*
X179198839Y-88615818D01*
X179314092Y-88036400D01*
X179198839Y-87456982D01*
X178870625Y-86965775D01*
X178379418Y-86637561D01*
X177946256Y-86551400D01*
X177653744Y-86551400D01*
X177220582Y-86637561D01*
X176729375Y-86965775D01*
X176530000Y-87264161D01*
X176330625Y-86965775D01*
X175839418Y-86637561D01*
X175406256Y-86551400D01*
X175113744Y-86551400D01*
X174680582Y-86637561D01*
X174189375Y-86965775D01*
X173976157Y-87284878D01*
X173915183Y-87155042D01*
X173486924Y-86764755D01*
X173076890Y-86594924D01*
X172847000Y-86716245D01*
X172847000Y-87909400D01*
X172867000Y-87909400D01*
X172867000Y-88163400D01*
X172847000Y-88163400D01*
X172847000Y-89356555D01*
X173076890Y-89477876D01*
X173486924Y-89308045D01*
X173915183Y-88917758D01*
X173976157Y-88787922D01*
X174189375Y-89107025D01*
X174535749Y-89338465D01*
X174521918Y-89408000D01*
X174578101Y-89690451D01*
X174578102Y-89690452D01*
X174738098Y-89929903D01*
X174798543Y-89970291D01*
X174993301Y-90165049D01*
X174993301Y-90552607D01*
X174944800Y-90542960D01*
X173644800Y-90542960D01*
X173397035Y-90592243D01*
X173186991Y-90732591D01*
X173133616Y-90812471D01*
X173065809Y-90710991D01*
X172855765Y-90570643D01*
X172608000Y-90521360D01*
X171308000Y-90521360D01*
X171060235Y-90570643D01*
X170916600Y-90666618D01*
X170916600Y-89533840D01*
X171030000Y-89533840D01*
X171277765Y-89484557D01*
X171487809Y-89344209D01*
X171628157Y-89134165D01*
X171648739Y-89030692D01*
X171953076Y-89308045D01*
X172363110Y-89477876D01*
X172593000Y-89356555D01*
X172593000Y-88163400D01*
X172573000Y-88163400D01*
X172573000Y-87909400D01*
X172593000Y-87909400D01*
X172593000Y-86716245D01*
X172363110Y-86594924D01*
X171953076Y-86764755D01*
X171648739Y-87042108D01*
X171628157Y-86938635D01*
X171487809Y-86728591D01*
X171277765Y-86588243D01*
X171030000Y-86538960D01*
X169330000Y-86538960D01*
X169082235Y-86588243D01*
X168872191Y-86728591D01*
X168731843Y-86938635D01*
X168682560Y-87186400D01*
X168682560Y-88886400D01*
X168731843Y-89134165D01*
X168872191Y-89344209D01*
X169082235Y-89484557D01*
X169330000Y-89533840D01*
X169443400Y-89533840D01*
X169443401Y-90521360D01*
X168971200Y-90521360D01*
X168723435Y-90570643D01*
X168513391Y-90710991D01*
X168373043Y-90921035D01*
X168326765Y-91153691D01*
X168304357Y-91041035D01*
X168164009Y-90830991D01*
X167953965Y-90690643D01*
X167706200Y-90641360D01*
X167103056Y-90641360D01*
X167106600Y-90623544D01*
X167106600Y-90623541D01*
X167121029Y-90551001D01*
X167106600Y-90478460D01*
X167106600Y-89508440D01*
X167220000Y-89508440D01*
X167467765Y-89459157D01*
X167677809Y-89318809D01*
X167818157Y-89108765D01*
X167867440Y-88861000D01*
X167867440Y-87161000D01*
X167818157Y-86913235D01*
X167677809Y-86703191D01*
X167467765Y-86562843D01*
X167220000Y-86513560D01*
X165520000Y-86513560D01*
X165272235Y-86562843D01*
X165062191Y-86703191D01*
X164921843Y-86913235D01*
X164901261Y-87016708D01*
X164596924Y-86739355D01*
X164186890Y-86569524D01*
X163957000Y-86690845D01*
X163957000Y-87884000D01*
X163977000Y-87884000D01*
X163977000Y-88138000D01*
X163957000Y-88138000D01*
X163957000Y-89331155D01*
X164186890Y-89452476D01*
X164596924Y-89282645D01*
X164901261Y-89005292D01*
X164921843Y-89108765D01*
X165062191Y-89318809D01*
X165272235Y-89459157D01*
X165520000Y-89508440D01*
X165633401Y-89508440D01*
X165633401Y-90245890D01*
X163776271Y-92103021D01*
X163661250Y-91988000D01*
X162687000Y-91988000D01*
X162687000Y-92008000D01*
X162433000Y-92008000D01*
X162433000Y-91988000D01*
X161458750Y-91988000D01*
X161300000Y-92146750D01*
X161300000Y-92737309D01*
X161396673Y-92970698D01*
X161538320Y-93112346D01*
X161477191Y-93153191D01*
X161336843Y-93363235D01*
X161288873Y-93604400D01*
X161165440Y-93604400D01*
X161165440Y-93591000D01*
X161116157Y-93343235D01*
X160975809Y-93133191D01*
X160914680Y-93092346D01*
X161056327Y-92950698D01*
X161153000Y-92717309D01*
X161153000Y-92126750D01*
X160994250Y-91968000D01*
X160020000Y-91968000D01*
X160020000Y-91988000D01*
X159766000Y-91988000D01*
X159766000Y-91968000D01*
X158791750Y-91968000D01*
X158755827Y-92003923D01*
X158728209Y-91962591D01*
X158518165Y-91822243D01*
X158270400Y-91772960D01*
X157870400Y-91772960D01*
X157622635Y-91822243D01*
X157471353Y-91923327D01*
X157430098Y-91882073D01*
X157196709Y-91785400D01*
X157129150Y-91785400D01*
X156970400Y-91944150D01*
X156970400Y-93243400D01*
X157017400Y-93243400D01*
X157017400Y-93497400D01*
X156970400Y-93497400D01*
X156970400Y-94796650D01*
X157129150Y-94955400D01*
X157196709Y-94955400D01*
X157346500Y-94893354D01*
X157346500Y-95210302D01*
X157332318Y-95281600D01*
X157370529Y-95473698D01*
X157388501Y-95564051D01*
X157548497Y-95803502D01*
X157574682Y-95820999D01*
X157471735Y-95889786D01*
X156532581Y-94950632D01*
X156544091Y-94955400D01*
X156611650Y-94955400D01*
X156770400Y-94796650D01*
X156770400Y-93497400D01*
X156723400Y-93497400D01*
X156723400Y-93243400D01*
X156770400Y-93243400D01*
X156770400Y-91944150D01*
X156611650Y-91785400D01*
X156544091Y-91785400D01*
X156310702Y-91882073D01*
X156269447Y-91923327D01*
X156161889Y-91851459D01*
X157048657Y-90964691D01*
X158633000Y-90964691D01*
X158633000Y-91555250D01*
X158791750Y-91714000D01*
X159766000Y-91714000D01*
X159766000Y-90614750D01*
X160020000Y-90614750D01*
X160020000Y-91714000D01*
X160994250Y-91714000D01*
X161153000Y-91555250D01*
X161153000Y-90984691D01*
X161300000Y-90984691D01*
X161300000Y-91575250D01*
X161458750Y-91734000D01*
X162433000Y-91734000D01*
X162433000Y-90634750D01*
X162687000Y-90634750D01*
X162687000Y-91734000D01*
X163661250Y-91734000D01*
X163820000Y-91575250D01*
X163820000Y-90984691D01*
X163723327Y-90751302D01*
X163544699Y-90572673D01*
X163311310Y-90476000D01*
X162845750Y-90476000D01*
X162687000Y-90634750D01*
X162433000Y-90634750D01*
X162274250Y-90476000D01*
X161808690Y-90476000D01*
X161575301Y-90572673D01*
X161396673Y-90751302D01*
X161300000Y-90984691D01*
X161153000Y-90984691D01*
X161153000Y-90964691D01*
X161056327Y-90731302D01*
X160877699Y-90552673D01*
X160644310Y-90456000D01*
X160178750Y-90456000D01*
X160020000Y-90614750D01*
X159766000Y-90614750D01*
X159607250Y-90456000D01*
X159141690Y-90456000D01*
X158908301Y-90552673D01*
X158729673Y-90731302D01*
X158633000Y-90964691D01*
X157048657Y-90964691D01*
X159278449Y-88734900D01*
X159987701Y-88734900D01*
X160219375Y-89081625D01*
X160710582Y-89409839D01*
X161143744Y-89496000D01*
X161436256Y-89496000D01*
X161869418Y-89409839D01*
X162360625Y-89081625D01*
X162573843Y-88762522D01*
X162634817Y-88892358D01*
X163063076Y-89282645D01*
X163473110Y-89452476D01*
X163703000Y-89331155D01*
X163703000Y-88138000D01*
X163683000Y-88138000D01*
X163683000Y-87884000D01*
X163703000Y-87884000D01*
X163703000Y-86690845D01*
X163473110Y-86569524D01*
X163063076Y-86739355D01*
X162634817Y-87129642D01*
X162573843Y-87259478D01*
X162360625Y-86940375D01*
X161869418Y-86612161D01*
X161436256Y-86526000D01*
X161143744Y-86526000D01*
X160710582Y-86612161D01*
X160219375Y-86940375D01*
X159987701Y-87287100D01*
X159049898Y-87287100D01*
X158978600Y-87272918D01*
X158907302Y-87287100D01*
X158696148Y-87329101D01*
X158456697Y-87489097D01*
X158416309Y-87549542D01*
X155219000Y-90746852D01*
X155219000Y-89813571D01*
X154635156Y-88404047D01*
X153556353Y-87325244D01*
X152146829Y-86741400D01*
X150621171Y-86741400D01*
X149211647Y-87325244D01*
X148132844Y-88404047D01*
X147549000Y-89813571D01*
X147549000Y-91339229D01*
X148132844Y-92748753D01*
X149211647Y-93827556D01*
X149303735Y-93865700D01*
X130075440Y-93865700D01*
X130075440Y-93839600D01*
X130026157Y-93591835D01*
X129885809Y-93381791D01*
X129675765Y-93241443D01*
X129444860Y-93195514D01*
X129650765Y-93154557D01*
X129860809Y-93014209D01*
X130001157Y-92804165D01*
X130043001Y-92593800D01*
X130820491Y-92593800D01*
X131152900Y-92926209D01*
X131152900Y-93056916D01*
X131301777Y-93416336D01*
X131576864Y-93691423D01*
X131936284Y-93840300D01*
X132325316Y-93840300D01*
X132684736Y-93691423D01*
X132959823Y-93416336D01*
X133108700Y-93056916D01*
X133108700Y-92667884D01*
X132959823Y-92308464D01*
X132843000Y-92191641D01*
X132843000Y-91817178D01*
X132854165Y-91814957D01*
X133064209Y-91674609D01*
X133106400Y-91611466D01*
X133148591Y-91674609D01*
X133358635Y-91814957D01*
X133606400Y-91864240D01*
X134606400Y-91864240D01*
X134854165Y-91814957D01*
X135064209Y-91674609D01*
X135106400Y-91611466D01*
X135148591Y-91674609D01*
X135358635Y-91814957D01*
X135606400Y-91864240D01*
X136606400Y-91864240D01*
X136854165Y-91814957D01*
X137064209Y-91674609D01*
X137106400Y-91611466D01*
X137148591Y-91674609D01*
X137358635Y-91814957D01*
X137606400Y-91864240D01*
X138606400Y-91864240D01*
X138854165Y-91814957D01*
X139064209Y-91674609D01*
X139106400Y-91611466D01*
X139148591Y-91674609D01*
X139358635Y-91814957D01*
X139606400Y-91864240D01*
X140606400Y-91864240D01*
X140854165Y-91814957D01*
X141064209Y-91674609D01*
X141106400Y-91611466D01*
X141148591Y-91674609D01*
X141358635Y-91814957D01*
X141606400Y-91864240D01*
X142606400Y-91864240D01*
X142854165Y-91814957D01*
X143064209Y-91674609D01*
X143106400Y-91611466D01*
X143148591Y-91674609D01*
X143358635Y-91814957D01*
X143606400Y-91864240D01*
X144606400Y-91864240D01*
X144854165Y-91814957D01*
X145064209Y-91674609D01*
X145106400Y-91611466D01*
X145148591Y-91674609D01*
X145358635Y-91814957D01*
X145606400Y-91864240D01*
X146606400Y-91864240D01*
X146854165Y-91814957D01*
X147064209Y-91674609D01*
X147204557Y-91464565D01*
X147253840Y-91216800D01*
X147253840Y-88716800D01*
X147204557Y-88469035D01*
X147064209Y-88258991D01*
X146854165Y-88118643D01*
X146606400Y-88069360D01*
X145606400Y-88069360D01*
X145358635Y-88118643D01*
X145148591Y-88258991D01*
X145106400Y-88322134D01*
X145064209Y-88258991D01*
X144854165Y-88118643D01*
X144830300Y-88113896D01*
X144830300Y-87845059D01*
X144973624Y-87701735D01*
X145122501Y-87342315D01*
X145122501Y-86953283D01*
X144973624Y-86593863D01*
X144698537Y-86318776D01*
X144672521Y-86308000D01*
X179884000Y-86308000D01*
X179884001Y-110288664D01*
X179884001Y-110288664D01*
G37*
X179884001Y-110288664D02*
X148261559Y-110318189D01*
X149962998Y-108616750D01*
X153321000Y-108616750D01*
X153321000Y-109082310D01*
X153417673Y-109315699D01*
X153596302Y-109494327D01*
X153829691Y-109591000D01*
X154420250Y-109591000D01*
X154579000Y-109432250D01*
X154579000Y-108458000D01*
X153479750Y-108458000D01*
X153321000Y-108616750D01*
X149962998Y-108616750D01*
X151000058Y-107579690D01*
X153321000Y-107579690D01*
X153321000Y-108045250D01*
X153479750Y-108204000D01*
X154579000Y-108204000D01*
X154579000Y-107229750D01*
X154420250Y-107071000D01*
X153829691Y-107071000D01*
X153596302Y-107167673D01*
X153417673Y-107346301D01*
X153321000Y-107579690D01*
X151000058Y-107579690D01*
X152414093Y-106165656D01*
X152436577Y-106219936D01*
X152711664Y-106495023D01*
X153071084Y-106643900D01*
X153460116Y-106643900D01*
X153819536Y-106495023D01*
X153924659Y-106389900D01*
X157254560Y-106389900D01*
X157254560Y-106466000D01*
X157303843Y-106713765D01*
X157444191Y-106923809D01*
X157606194Y-107032057D01*
X157579692Y-107058560D01*
X156456000Y-107058560D01*
X156208235Y-107107843D01*
X155998191Y-107248191D01*
X155957346Y-107309320D01*
X155815698Y-107167673D01*
X155582309Y-107071000D01*
X154991750Y-107071000D01*
X154833000Y-107229750D01*
X154833000Y-108204000D01*
X154853000Y-108204000D01*
X154853000Y-108458000D01*
X154833000Y-108458000D01*
X154833000Y-109432250D01*
X154991750Y-109591000D01*
X155582309Y-109591000D01*
X155815698Y-109494327D01*
X155957346Y-109352680D01*
X155998191Y-109413809D01*
X156208235Y-109554157D01*
X156456000Y-109603440D01*
X157956000Y-109603440D01*
X158203765Y-109554157D01*
X158413809Y-109413809D01*
X158506000Y-109275836D01*
X158598191Y-109413809D01*
X158808235Y-109554157D01*
X159056000Y-109603440D01*
X160556000Y-109603440D01*
X160803765Y-109554157D01*
X161013809Y-109413809D01*
X161054654Y-109352680D01*
X161196302Y-109494327D01*
X161429691Y-109591000D01*
X162020250Y-109591000D01*
X162179000Y-109432250D01*
X162179000Y-108458000D01*
X162433000Y-108458000D01*
X162433000Y-109432250D01*
X162591750Y-109591000D01*
X163182309Y-109591000D01*
X163415698Y-109494327D01*
X163594327Y-109315699D01*
X163691000Y-109082310D01*
X163691000Y-108616750D01*
X163532250Y-108458000D01*
X162433000Y-108458000D01*
X162179000Y-108458000D01*
X162159000Y-108458000D01*
X162159000Y-108204000D01*
X162179000Y-108204000D01*
X162179000Y-108184000D01*
X162433000Y-108184000D01*
X162433000Y-108204000D01*
X163532250Y-108204000D01*
X163691000Y-108045250D01*
X163691000Y-107579690D01*
X163640015Y-107456601D01*
X164107521Y-107456601D01*
X164134576Y-107461982D01*
X164032843Y-107614235D01*
X163983560Y-107862000D01*
X163983560Y-109562000D01*
X164032843Y-109809765D01*
X164173191Y-110019809D01*
X164383235Y-110160157D01*
X164631000Y-110209440D01*
X166331000Y-110209440D01*
X166578765Y-110160157D01*
X166788809Y-110019809D01*
X166929157Y-109809765D01*
X166938184Y-109764381D01*
X166950375Y-109782625D01*
X167441582Y-110110839D01*
X167874744Y-110197000D01*
X168167256Y-110197000D01*
X168600418Y-110110839D01*
X169091625Y-109782625D01*
X169291000Y-109484239D01*
X169490375Y-109782625D01*
X169981582Y-110110839D01*
X170414744Y-110197000D01*
X170707256Y-110197000D01*
X171140418Y-110110839D01*
X171631625Y-109782625D01*
X171831000Y-109484239D01*
X172030375Y-109782625D01*
X172521582Y-110110839D01*
X172954744Y-110197000D01*
X173247256Y-110197000D01*
X173680418Y-110110839D01*
X174171625Y-109782625D01*
X174384843Y-109463522D01*
X174445817Y-109593358D01*
X174874076Y-109983645D01*
X175284110Y-110153476D01*
X175514000Y-110032155D01*
X175514000Y-108839000D01*
X175768000Y-108839000D01*
X175768000Y-110032155D01*
X175997890Y-110153476D01*
X176407924Y-109983645D01*
X176836183Y-109593358D01*
X176911000Y-109434046D01*
X176985817Y-109593358D01*
X177414076Y-109983645D01*
X177824110Y-110153476D01*
X178054000Y-110032155D01*
X178054000Y-108839000D01*
X178308000Y-108839000D01*
X178308000Y-110032155D01*
X178537890Y-110153476D01*
X178947924Y-109983645D01*
X179376183Y-109593358D01*
X179622486Y-109068892D01*
X179501819Y-108839000D01*
X178308000Y-108839000D01*
X178054000Y-108839000D01*
X175768000Y-108839000D01*
X175514000Y-108839000D01*
X175494000Y-108839000D01*
X175494000Y-108585000D01*
X175514000Y-108585000D01*
X175514000Y-107391845D01*
X175768000Y-107391845D01*
X175768000Y-108585000D01*
X178054000Y-108585000D01*
X178054000Y-107391845D01*
X178308000Y-107391845D01*
X178308000Y-108585000D01*
X179501819Y-108585000D01*
X179622486Y-108355108D01*
X179376183Y-107830642D01*
X178947924Y-107440355D01*
X178537890Y-107270524D01*
X178308000Y-107391845D01*
X178054000Y-107391845D01*
X177824110Y-107270524D01*
X177414076Y-107440355D01*
X176985817Y-107830642D01*
X176911000Y-107989954D01*
X176836183Y-107830642D01*
X176407924Y-107440355D01*
X175997890Y-107270524D01*
X175768000Y-107391845D01*
X175514000Y-107391845D01*
X175284110Y-107270524D01*
X174874076Y-107440355D01*
X174445817Y-107830642D01*
X174384843Y-107960478D01*
X174171625Y-107641375D01*
X173680418Y-107313161D01*
X173247256Y-107227000D01*
X172954744Y-107227000D01*
X172521582Y-107313161D01*
X172030375Y-107641375D01*
X171831000Y-107939761D01*
X171631625Y-107641375D01*
X171284900Y-107409701D01*
X171284900Y-106268696D01*
X171299082Y-106197399D01*
X171284064Y-106121898D01*
X171242899Y-105914948D01*
X171082903Y-105675497D01*
X171022458Y-105635109D01*
X170192700Y-104805352D01*
X170192700Y-104656684D01*
X170043823Y-104297264D01*
X169768736Y-104022177D01*
X169409316Y-103873300D01*
X169020284Y-103873300D01*
X168744900Y-103987368D01*
X168744900Y-103693276D01*
X169473060Y-102965117D01*
X169533502Y-102924731D01*
X169609819Y-102810516D01*
X169693499Y-102685280D01*
X169749682Y-102402828D01*
X169735500Y-102331530D01*
X169735500Y-102232400D01*
X170025160Y-102232400D01*
X170025160Y-103732400D01*
X170074443Y-103980165D01*
X170214791Y-104190209D01*
X170424835Y-104330557D01*
X170672600Y-104379840D01*
X171922600Y-104379840D01*
X172170365Y-104330557D01*
X172288200Y-104251822D01*
X172406035Y-104330557D01*
X172653800Y-104379840D01*
X173903800Y-104379840D01*
X174151565Y-104330557D01*
X174361609Y-104190209D01*
X174374037Y-104171609D01*
X176305738Y-104171609D01*
X176320914Y-104263376D01*
X176567267Y-104683125D01*
X176955499Y-104976647D01*
X177426504Y-105099256D01*
X177622200Y-104936547D01*
X177622200Y-103981000D01*
X177876200Y-103981000D01*
X177876200Y-104936547D01*
X178071896Y-105099256D01*
X178542901Y-104976647D01*
X178931133Y-104683125D01*
X179177486Y-104263376D01*
X179192662Y-104171609D01*
X179067931Y-103981000D01*
X177876200Y-103981000D01*
X177622200Y-103981000D01*
X176430469Y-103981000D01*
X176305738Y-104171609D01*
X174374037Y-104171609D01*
X174501957Y-103980165D01*
X174551240Y-103732400D01*
X174551240Y-102608709D01*
X174582049Y-102577900D01*
X176276405Y-102577900D01*
X176301043Y-102701765D01*
X176441391Y-102911809D01*
X176587599Y-103009503D01*
X176567267Y-103024875D01*
X176320914Y-103444624D01*
X176305738Y-103536391D01*
X176430469Y-103727000D01*
X177622200Y-103727000D01*
X177622200Y-103707000D01*
X177876200Y-103707000D01*
X177876200Y-103727000D01*
X179067931Y-103727000D01*
X179192662Y-103536391D01*
X179177486Y-103444624D01*
X178931133Y-103024875D01*
X178910801Y-103009503D01*
X179057009Y-102911809D01*
X179197357Y-102701765D01*
X179246640Y-102454000D01*
X179246640Y-101254000D01*
X179197357Y-101006235D01*
X179057009Y-100796191D01*
X178846965Y-100655843D01*
X178599200Y-100606560D01*
X176899200Y-100606560D01*
X176651435Y-100655843D01*
X176441391Y-100796191D01*
X176301043Y-101006235D01*
X176276405Y-101130100D01*
X174538800Y-101130100D01*
X174538800Y-100768150D01*
X174380050Y-100609400D01*
X173405800Y-100609400D01*
X173405800Y-100629400D01*
X173151800Y-100629400D01*
X173151800Y-100609400D01*
X171424600Y-100609400D01*
X171424600Y-100629400D01*
X171170600Y-100629400D01*
X171170600Y-100609400D01*
X170196350Y-100609400D01*
X170037600Y-100768150D01*
X170037600Y-101358709D01*
X170134273Y-101592098D01*
X170275920Y-101733746D01*
X170214791Y-101774591D01*
X170074443Y-101984635D01*
X170025160Y-102232400D01*
X169735500Y-102232400D01*
X169735500Y-99606091D01*
X170037600Y-99606091D01*
X170037600Y-100196650D01*
X170196350Y-100355400D01*
X171170600Y-100355400D01*
X171170600Y-99256150D01*
X171424600Y-99256150D01*
X171424600Y-100355400D01*
X173151800Y-100355400D01*
X173151800Y-99256150D01*
X173405800Y-99256150D01*
X173405800Y-100355400D01*
X174380050Y-100355400D01*
X174538800Y-100196650D01*
X174538800Y-99606091D01*
X174442127Y-99372702D01*
X174263499Y-99194073D01*
X174030110Y-99097400D01*
X173564550Y-99097400D01*
X173405800Y-99256150D01*
X173151800Y-99256150D01*
X172993050Y-99097400D01*
X172527490Y-99097400D01*
X172294101Y-99194073D01*
X172288200Y-99199974D01*
X172282299Y-99194073D01*
X172048910Y-99097400D01*
X171583350Y-99097400D01*
X171424600Y-99256150D01*
X171170600Y-99256150D01*
X171011850Y-99097400D01*
X170546290Y-99097400D01*
X170312901Y-99194073D01*
X170134273Y-99372702D01*
X170037600Y-99606091D01*
X169735500Y-99606091D01*
X169735500Y-98855459D01*
X169840623Y-98750336D01*
X169989500Y-98390916D01*
X169989500Y-98107500D01*
X173969502Y-98107500D01*
X174040800Y-98121682D01*
X174112098Y-98107500D01*
X174323252Y-98065499D01*
X174562703Y-97905503D01*
X174603093Y-97845055D01*
X176483460Y-95964689D01*
X176543902Y-95924303D01*
X176605380Y-95832296D01*
X176703899Y-95684852D01*
X176760082Y-95402400D01*
X176745900Y-95331102D01*
X176745900Y-94889448D01*
X176754442Y-94880907D01*
X176909355Y-95254924D01*
X177186708Y-95559261D01*
X177083235Y-95579843D01*
X176873191Y-95720191D01*
X176732843Y-95930235D01*
X176683560Y-96178000D01*
X176683560Y-97878000D01*
X176732843Y-98125765D01*
X176873191Y-98335809D01*
X177083235Y-98476157D01*
X177331000Y-98525440D01*
X179031000Y-98525440D01*
X179278765Y-98476157D01*
X179488809Y-98335809D01*
X179629157Y-98125765D01*
X179678440Y-97878000D01*
X179678440Y-96178000D01*
X179629157Y-95930235D01*
X179488809Y-95720191D01*
X179278765Y-95579843D01*
X179175292Y-95559261D01*
X179452645Y-95254924D01*
X179622476Y-94844890D01*
X179501155Y-94615000D01*
X178308000Y-94615000D01*
X178308000Y-94635000D01*
X178054000Y-94635000D01*
X178054000Y-94615000D01*
X178034000Y-94615000D01*
X178034000Y-94361000D01*
X178054000Y-94361000D01*
X178054000Y-94341000D01*
X178308000Y-94341000D01*
X178308000Y-94361000D01*
X179501155Y-94361000D01*
X179622476Y-94131110D01*
X179452645Y-93721076D01*
X179062358Y-93292817D01*
X178932522Y-93231843D01*
X179251625Y-93018625D01*
X179579839Y-92527418D01*
X179695092Y-91948000D01*
X179579839Y-91368582D01*
X179251625Y-90877375D01*
X178760418Y-90549161D01*
X178327256Y-90463000D01*
X178034744Y-90463000D01*
X177601582Y-90549161D01*
X177110375Y-90877375D01*
X177101500Y-90890657D01*
X177101500Y-89758648D01*
X177391009Y-89469139D01*
X177653744Y-89521400D01*
X177946256Y-89521400D01*
X178379418Y-89435239D01*
X178870625Y-89107025D01*
X179198839Y-88615818D01*
X179314092Y-88036400D01*
X179198839Y-87456982D01*
X178870625Y-86965775D01*
X178379418Y-86637561D01*
X177946256Y-86551400D01*
X177653744Y-86551400D01*
X177220582Y-86637561D01*
X176729375Y-86965775D01*
X176530000Y-87264161D01*
X176330625Y-86965775D01*
X175839418Y-86637561D01*
X175406256Y-86551400D01*
X175113744Y-86551400D01*
X174680582Y-86637561D01*
X174189375Y-86965775D01*
X173976157Y-87284878D01*
X173915183Y-87155042D01*
X173486924Y-86764755D01*
X173076890Y-86594924D01*
X172847000Y-86716245D01*
X172847000Y-87909400D01*
X172867000Y-87909400D01*
X172867000Y-88163400D01*
X172847000Y-88163400D01*
X172847000Y-89356555D01*
X173076890Y-89477876D01*
X173486924Y-89308045D01*
X173915183Y-88917758D01*
X173976157Y-88787922D01*
X174189375Y-89107025D01*
X174535749Y-89338465D01*
X174521918Y-89408000D01*
X174578101Y-89690451D01*
X174578102Y-89690452D01*
X174738098Y-89929903D01*
X174798543Y-89970291D01*
X174993301Y-90165049D01*
X174993301Y-90552607D01*
X174944800Y-90542960D01*
X173644800Y-90542960D01*
X173397035Y-90592243D01*
X173186991Y-90732591D01*
X173133616Y-90812471D01*
X173065809Y-90710991D01*
X172855765Y-90570643D01*
X172608000Y-90521360D01*
X171308000Y-90521360D01*
X171060235Y-90570643D01*
X170916600Y-90666618D01*
X170916600Y-89533840D01*
X171030000Y-89533840D01*
X171277765Y-89484557D01*
X171487809Y-89344209D01*
X171628157Y-89134165D01*
X171648739Y-89030692D01*
X171953076Y-89308045D01*
X172363110Y-89477876D01*
X172593000Y-89356555D01*
X172593000Y-88163400D01*
X172573000Y-88163400D01*
X172573000Y-87909400D01*
X172593000Y-87909400D01*
X172593000Y-86716245D01*
X172363110Y-86594924D01*
X171953076Y-86764755D01*
X171648739Y-87042108D01*
X171628157Y-86938635D01*
X171487809Y-86728591D01*
X171277765Y-86588243D01*
X171030000Y-86538960D01*
X169330000Y-86538960D01*
X169082235Y-86588243D01*
X168872191Y-86728591D01*
X168731843Y-86938635D01*
X168682560Y-87186400D01*
X168682560Y-88886400D01*
X168731843Y-89134165D01*
X168872191Y-89344209D01*
X169082235Y-89484557D01*
X169330000Y-89533840D01*
X169443400Y-89533840D01*
X169443401Y-90521360D01*
X168971200Y-90521360D01*
X168723435Y-90570643D01*
X168513391Y-90710991D01*
X168373043Y-90921035D01*
X168326765Y-91153691D01*
X168304357Y-91041035D01*
X168164009Y-90830991D01*
X167953965Y-90690643D01*
X167706200Y-90641360D01*
X167103056Y-90641360D01*
X167106600Y-90623544D01*
X167106600Y-90623541D01*
X167121029Y-90551001D01*
X167106600Y-90478460D01*
X167106600Y-89508440D01*
X167220000Y-89508440D01*
X167467765Y-89459157D01*
X167677809Y-89318809D01*
X167818157Y-89108765D01*
X167867440Y-88861000D01*
X167867440Y-87161000D01*
X167818157Y-86913235D01*
X167677809Y-86703191D01*
X167467765Y-86562843D01*
X167220000Y-86513560D01*
X165520000Y-86513560D01*
X165272235Y-86562843D01*
X165062191Y-86703191D01*
X164921843Y-86913235D01*
X164901261Y-87016708D01*
X164596924Y-86739355D01*
X164186890Y-86569524D01*
X163957000Y-86690845D01*
X163957000Y-87884000D01*
X163977000Y-87884000D01*
X163977000Y-88138000D01*
X163957000Y-88138000D01*
X163957000Y-89331155D01*
X164186890Y-89452476D01*
X164596924Y-89282645D01*
X164901261Y-89005292D01*
X164921843Y-89108765D01*
X165062191Y-89318809D01*
X165272235Y-89459157D01*
X165520000Y-89508440D01*
X165633401Y-89508440D01*
X165633401Y-90245890D01*
X163776271Y-92103021D01*
X163661250Y-91988000D01*
X162687000Y-91988000D01*
X162687000Y-92008000D01*
X162433000Y-92008000D01*
X162433000Y-91988000D01*
X161458750Y-91988000D01*
X161300000Y-92146750D01*
X161300000Y-92737309D01*
X161396673Y-92970698D01*
X161538320Y-93112346D01*
X161477191Y-93153191D01*
X161336843Y-93363235D01*
X161288873Y-93604400D01*
X161165440Y-93604400D01*
X161165440Y-93591000D01*
X161116157Y-93343235D01*
X160975809Y-93133191D01*
X160914680Y-93092346D01*
X161056327Y-92950698D01*
X161153000Y-92717309D01*
X161153000Y-92126750D01*
X160994250Y-91968000D01*
X160020000Y-91968000D01*
X160020000Y-91988000D01*
X159766000Y-91988000D01*
X159766000Y-91968000D01*
X158791750Y-91968000D01*
X158755827Y-92003923D01*
X158728209Y-91962591D01*
X158518165Y-91822243D01*
X158270400Y-91772960D01*
X157870400Y-91772960D01*
X157622635Y-91822243D01*
X157471353Y-91923327D01*
X157430098Y-91882073D01*
X157196709Y-91785400D01*
X157129150Y-91785400D01*
X156970400Y-91944150D01*
X156970400Y-93243400D01*
X157017400Y-93243400D01*
X157017400Y-93497400D01*
X156970400Y-93497400D01*
X156970400Y-94796650D01*
X157129150Y-94955400D01*
X157196709Y-94955400D01*
X157346500Y-94893354D01*
X157346500Y-95210302D01*
X157332318Y-95281600D01*
X157370529Y-95473698D01*
X157388501Y-95564051D01*
X157548497Y-95803502D01*
X157574682Y-95820999D01*
X157471735Y-95889786D01*
X156532581Y-94950632D01*
X156544091Y-94955400D01*
X156611650Y-94955400D01*
X156770400Y-94796650D01*
X156770400Y-93497400D01*
X156723400Y-93497400D01*
X156723400Y-93243400D01*
X156770400Y-93243400D01*
X156770400Y-91944150D01*
X156611650Y-91785400D01*
X156544091Y-91785400D01*
X156310702Y-91882073D01*
X156269447Y-91923327D01*
X156161889Y-91851459D01*
X157048657Y-90964691D01*
X158633000Y-90964691D01*
X158633000Y-91555250D01*
X158791750Y-91714000D01*
X159766000Y-91714000D01*
X159766000Y-90614750D01*
X160020000Y-90614750D01*
X160020000Y-91714000D01*
X160994250Y-91714000D01*
X161153000Y-91555250D01*
X161153000Y-90984691D01*
X161300000Y-90984691D01*
X161300000Y-91575250D01*
X161458750Y-91734000D01*
X162433000Y-91734000D01*
X162433000Y-90634750D01*
X162687000Y-90634750D01*
X162687000Y-91734000D01*
X163661250Y-91734000D01*
X163820000Y-91575250D01*
X163820000Y-90984691D01*
X163723327Y-90751302D01*
X163544699Y-90572673D01*
X163311310Y-90476000D01*
X162845750Y-90476000D01*
X162687000Y-90634750D01*
X162433000Y-90634750D01*
X162274250Y-90476000D01*
X161808690Y-90476000D01*
X161575301Y-90572673D01*
X161396673Y-90751302D01*
X161300000Y-90984691D01*
X161153000Y-90984691D01*
X161153000Y-90964691D01*
X161056327Y-90731302D01*
X160877699Y-90552673D01*
X160644310Y-90456000D01*
X160178750Y-90456000D01*
X160020000Y-90614750D01*
X159766000Y-90614750D01*
X159607250Y-90456000D01*
X159141690Y-90456000D01*
X158908301Y-90552673D01*
X158729673Y-90731302D01*
X158633000Y-90964691D01*
X157048657Y-90964691D01*
X159278449Y-88734900D01*
X159987701Y-88734900D01*
X160219375Y-89081625D01*
X160710582Y-89409839D01*
X161143744Y-89496000D01*
X161436256Y-89496000D01*
X161869418Y-89409839D01*
X162360625Y-89081625D01*
X162573843Y-88762522D01*
X162634817Y-88892358D01*
X163063076Y-89282645D01*
X163473110Y-89452476D01*
X163703000Y-89331155D01*
X163703000Y-88138000D01*
X163683000Y-88138000D01*
X163683000Y-87884000D01*
X163703000Y-87884000D01*
X163703000Y-86690845D01*
X163473110Y-86569524D01*
X163063076Y-86739355D01*
X162634817Y-87129642D01*
X162573843Y-87259478D01*
X162360625Y-86940375D01*
X161869418Y-86612161D01*
X161436256Y-86526000D01*
X161143744Y-86526000D01*
X160710582Y-86612161D01*
X160219375Y-86940375D01*
X159987701Y-87287100D01*
X159049898Y-87287100D01*
X158978600Y-87272918D01*
X158907302Y-87287100D01*
X158696148Y-87329101D01*
X158456697Y-87489097D01*
X158416309Y-87549542D01*
X155219000Y-90746852D01*
X155219000Y-89813571D01*
X154635156Y-88404047D01*
X153556353Y-87325244D01*
X152146829Y-86741400D01*
X150621171Y-86741400D01*
X149211647Y-87325244D01*
X148132844Y-88404047D01*
X147549000Y-89813571D01*
X147549000Y-91339229D01*
X148132844Y-92748753D01*
X149211647Y-93827556D01*
X149303735Y-93865700D01*
X130075440Y-93865700D01*
X130075440Y-93839600D01*
X130026157Y-93591835D01*
X129885809Y-93381791D01*
X129675765Y-93241443D01*
X129444860Y-93195514D01*
X129650765Y-93154557D01*
X129860809Y-93014209D01*
X130001157Y-92804165D01*
X130043001Y-92593800D01*
X130820491Y-92593800D01*
X131152900Y-92926209D01*
X131152900Y-93056916D01*
X131301777Y-93416336D01*
X131576864Y-93691423D01*
X131936284Y-93840300D01*
X132325316Y-93840300D01*
X132684736Y-93691423D01*
X132959823Y-93416336D01*
X133108700Y-93056916D01*
X133108700Y-92667884D01*
X132959823Y-92308464D01*
X132843000Y-92191641D01*
X132843000Y-91817178D01*
X132854165Y-91814957D01*
X133064209Y-91674609D01*
X133106400Y-91611466D01*
X133148591Y-91674609D01*
X133358635Y-91814957D01*
X133606400Y-91864240D01*
X134606400Y-91864240D01*
X134854165Y-91814957D01*
X135064209Y-91674609D01*
X135106400Y-91611466D01*
X135148591Y-91674609D01*
X135358635Y-91814957D01*
X135606400Y-91864240D01*
X136606400Y-91864240D01*
X136854165Y-91814957D01*
X137064209Y-91674609D01*
X137106400Y-91611466D01*
X137148591Y-91674609D01*
X137358635Y-91814957D01*
X137606400Y-91864240D01*
X138606400Y-91864240D01*
X138854165Y-91814957D01*
X139064209Y-91674609D01*
X139106400Y-91611466D01*
X139148591Y-91674609D01*
X139358635Y-91814957D01*
X139606400Y-91864240D01*
X140606400Y-91864240D01*
X140854165Y-91814957D01*
X141064209Y-91674609D01*
X141106400Y-91611466D01*
X141148591Y-91674609D01*
X141358635Y-91814957D01*
X141606400Y-91864240D01*
X142606400Y-91864240D01*
X142854165Y-91814957D01*
X143064209Y-91674609D01*
X143106400Y-91611466D01*
X143148591Y-91674609D01*
X143358635Y-91814957D01*
X143606400Y-91864240D01*
X144606400Y-91864240D01*
X144854165Y-91814957D01*
X145064209Y-91674609D01*
X145106400Y-91611466D01*
X145148591Y-91674609D01*
X145358635Y-91814957D01*
X145606400Y-91864240D01*
X146606400Y-91864240D01*
X146854165Y-91814957D01*
X147064209Y-91674609D01*
X147204557Y-91464565D01*
X147253840Y-91216800D01*
X147253840Y-88716800D01*
X147204557Y-88469035D01*
X147064209Y-88258991D01*
X146854165Y-88118643D01*
X146606400Y-88069360D01*
X145606400Y-88069360D01*
X145358635Y-88118643D01*
X145148591Y-88258991D01*
X145106400Y-88322134D01*
X145064209Y-88258991D01*
X144854165Y-88118643D01*
X144830300Y-88113896D01*
X144830300Y-87845059D01*
X144973624Y-87701735D01*
X145122501Y-87342315D01*
X145122501Y-86953283D01*
X144973624Y-86593863D01*
X144698537Y-86318776D01*
X144672521Y-86308000D01*
X179884000Y-86308000D01*
X179884001Y-110288664D01*
G36*
X161249998Y-107101000D02*
X161357265Y-107101000D01*
X161196302Y-107167673D01*
X161127155Y-107236820D01*
X161139287Y-107218663D01*
X161139290Y-107218660D01*
X161249998Y-107052973D01*
X161249998Y-107101000D01*
X161249998Y-107101000D01*
G37*
X161249998Y-107101000D02*
X161357265Y-107101000D01*
X161196302Y-107167673D01*
X161127155Y-107236820D01*
X161139287Y-107218663D01*
X161139290Y-107218660D01*
X161249998Y-107052973D01*
X161249998Y-107101000D01*
G36*
X161568862Y-107007112D02*
X161632750Y-107071000D01*
X161504002Y-107071000D01*
X161504002Y-106963774D01*
X161568862Y-107007112D01*
X161568862Y-107007112D01*
G37*
X161568862Y-107007112D02*
X161632750Y-107071000D01*
X161504002Y-107071000D01*
X161504002Y-106963774D01*
X161568862Y-107007112D01*
G36*
X162244191Y-98423809D02*
X162368862Y-98507112D01*
X162462750Y-98601000D01*
X162578310Y-98601000D01*
X162598148Y-98592783D01*
X162702000Y-98613440D01*
X162893601Y-98613440D01*
X162696177Y-98810864D01*
X162547300Y-99170284D01*
X162547300Y-99559316D01*
X162656108Y-99822000D01*
X162547300Y-100084684D01*
X162547300Y-100304800D01*
X161732959Y-100304800D01*
X161615136Y-100186977D01*
X161255716Y-100038100D01*
X160866684Y-100038100D01*
X160507264Y-100186977D01*
X160232177Y-100462064D01*
X160083300Y-100821484D01*
X160083300Y-101210516D01*
X160232177Y-101569936D01*
X160507264Y-101845023D01*
X160866684Y-101993900D01*
X161255716Y-101993900D01*
X161615136Y-101845023D01*
X161732959Y-101727200D01*
X163779560Y-101727200D01*
X163779560Y-102091000D01*
X163804424Y-102216000D01*
X163779560Y-102341000D01*
X163779560Y-102891000D01*
X163804424Y-103016000D01*
X163779560Y-103141000D01*
X163779560Y-103691000D01*
X163804424Y-103816000D01*
X163779560Y-103941000D01*
X163779560Y-104218560D01*
X163502000Y-104218560D01*
X163377000Y-104243424D01*
X163252000Y-104218560D01*
X162702000Y-104218560D01*
X162577000Y-104243424D01*
X162452000Y-104218560D01*
X161902000Y-104218560D01*
X161798148Y-104239217D01*
X161778310Y-104231000D01*
X161662750Y-104231000D01*
X161568862Y-104324888D01*
X161444191Y-104408191D01*
X161377000Y-104508749D01*
X161309809Y-104408191D01*
X161185138Y-104324888D01*
X161091250Y-104231000D01*
X160975690Y-104231000D01*
X160955852Y-104239217D01*
X160852000Y-104218560D01*
X160302000Y-104218560D01*
X160177000Y-104243424D01*
X160052000Y-104218560D01*
X159713600Y-104218560D01*
X159713600Y-99094751D01*
X160207352Y-98601000D01*
X160291250Y-98601000D01*
X160385138Y-98507112D01*
X160509809Y-98423809D01*
X160577000Y-98323251D01*
X160644191Y-98423809D01*
X160768862Y-98507112D01*
X160862750Y-98601000D01*
X160978310Y-98601000D01*
X160998148Y-98592783D01*
X161102000Y-98613440D01*
X161652000Y-98613440D01*
X161755852Y-98592783D01*
X161775690Y-98601000D01*
X161891250Y-98601000D01*
X161985138Y-98507112D01*
X162109809Y-98423809D01*
X162177000Y-98323251D01*
X162244191Y-98423809D01*
X162244191Y-98423809D01*
G37*
X162244191Y-98423809D02*
X162368862Y-98507112D01*
X162462750Y-98601000D01*
X162578310Y-98601000D01*
X162598148Y-98592783D01*
X162702000Y-98613440D01*
X162893601Y-98613440D01*
X162696177Y-98810864D01*
X162547300Y-99170284D01*
X162547300Y-99559316D01*
X162656108Y-99822000D01*
X162547300Y-100084684D01*
X162547300Y-100304800D01*
X161732959Y-100304800D01*
X161615136Y-100186977D01*
X161255716Y-100038100D01*
X160866684Y-100038100D01*
X160507264Y-100186977D01*
X160232177Y-100462064D01*
X160083300Y-100821484D01*
X160083300Y-101210516D01*
X160232177Y-101569936D01*
X160507264Y-101845023D01*
X160866684Y-101993900D01*
X161255716Y-101993900D01*
X161615136Y-101845023D01*
X161732959Y-101727200D01*
X163779560Y-101727200D01*
X163779560Y-102091000D01*
X163804424Y-102216000D01*
X163779560Y-102341000D01*
X163779560Y-102891000D01*
X163804424Y-103016000D01*
X163779560Y-103141000D01*
X163779560Y-103691000D01*
X163804424Y-103816000D01*
X163779560Y-103941000D01*
X163779560Y-104218560D01*
X163502000Y-104218560D01*
X163377000Y-104243424D01*
X163252000Y-104218560D01*
X162702000Y-104218560D01*
X162577000Y-104243424D01*
X162452000Y-104218560D01*
X161902000Y-104218560D01*
X161798148Y-104239217D01*
X161778310Y-104231000D01*
X161662750Y-104231000D01*
X161568862Y-104324888D01*
X161444191Y-104408191D01*
X161377000Y-104508749D01*
X161309809Y-104408191D01*
X161185138Y-104324888D01*
X161091250Y-104231000D01*
X160975690Y-104231000D01*
X160955852Y-104239217D01*
X160852000Y-104218560D01*
X160302000Y-104218560D01*
X160177000Y-104243424D01*
X160052000Y-104218560D01*
X159713600Y-104218560D01*
X159713600Y-99094751D01*
X160207352Y-98601000D01*
X160291250Y-98601000D01*
X160385138Y-98507112D01*
X160509809Y-98423809D01*
X160577000Y-98323251D01*
X160644191Y-98423809D01*
X160768862Y-98507112D01*
X160862750Y-98601000D01*
X160978310Y-98601000D01*
X160998148Y-98592783D01*
X161102000Y-98613440D01*
X161652000Y-98613440D01*
X161755852Y-98592783D01*
X161775690Y-98601000D01*
X161891250Y-98601000D01*
X161985138Y-98507112D01*
X162109809Y-98423809D01*
X162177000Y-98323251D01*
X162244191Y-98423809D01*
G04 #@! TD*
M02*
