G04 #@! TF.GenerationSoftware,KiCad,Pcbnew,(5.0.2)-1*
G04 #@! TF.CreationDate,2019-03-02T08:42:05-05:00*
G04 #@! TF.ProjectId,ENN-node.v1,454e4e2d-6e6f-4646-952e-76312e6b6963,rev?*
G04 #@! TF.SameCoordinates,Original*
G04 #@! TF.FileFunction,Soldermask,Bot*
G04 #@! TF.FilePolarity,Negative*
%FSLAX46Y46*%
G04 Gerber Fmt 4.6, Leading zero omitted, Abs format (unit mm)*
G04 Created by KiCad (PCBNEW (5.0.2)-1) date 3/2/2019 8:42:05 AM*
%MOMM*%
%LPD*%
G01*
G04 APERTURE LIST*
%ADD10C,0.100000*%
G04 APERTURE END LIST*
D10*
G36*
X173189362Y-107815545D02*
X173277588Y-107824234D01*
X173390789Y-107858573D01*
X173447390Y-107875743D01*
X173585980Y-107949822D01*
X173603879Y-107959389D01*
X173639609Y-107988712D01*
X173741044Y-108071956D01*
X173824288Y-108173391D01*
X173853611Y-108209121D01*
X173853612Y-108209123D01*
X173937257Y-108365610D01*
X173937257Y-108365611D01*
X173988766Y-108535412D01*
X174006158Y-108712000D01*
X173988766Y-108888588D01*
X173954427Y-109001789D01*
X173937257Y-109058390D01*
X173863178Y-109196980D01*
X173853611Y-109214879D01*
X173824288Y-109250609D01*
X173741044Y-109352044D01*
X173639609Y-109435288D01*
X173603879Y-109464611D01*
X173603877Y-109464612D01*
X173447390Y-109548257D01*
X173390789Y-109565427D01*
X173277588Y-109599766D01*
X173189362Y-109608455D01*
X173145250Y-109612800D01*
X173056750Y-109612800D01*
X173012638Y-109608455D01*
X172924412Y-109599766D01*
X172811211Y-109565427D01*
X172754610Y-109548257D01*
X172598123Y-109464612D01*
X172598121Y-109464611D01*
X172562391Y-109435288D01*
X172460956Y-109352044D01*
X172377712Y-109250609D01*
X172348389Y-109214879D01*
X172338822Y-109196980D01*
X172264743Y-109058390D01*
X172247573Y-109001789D01*
X172213234Y-108888588D01*
X172195842Y-108712000D01*
X172213234Y-108535412D01*
X172264743Y-108365611D01*
X172264743Y-108365610D01*
X172348388Y-108209123D01*
X172348389Y-108209121D01*
X172377712Y-108173391D01*
X172460956Y-108071956D01*
X172562391Y-107988712D01*
X172598121Y-107959389D01*
X172616020Y-107949822D01*
X172754610Y-107875743D01*
X172811211Y-107858573D01*
X172924412Y-107824234D01*
X173012638Y-107815545D01*
X173056750Y-107811200D01*
X173145250Y-107811200D01*
X173189362Y-107815545D01*
X173189362Y-107815545D01*
G37*
G36*
X170649362Y-107815545D02*
X170737588Y-107824234D01*
X170850789Y-107858573D01*
X170907390Y-107875743D01*
X171045980Y-107949822D01*
X171063879Y-107959389D01*
X171099609Y-107988712D01*
X171201044Y-108071956D01*
X171284288Y-108173391D01*
X171313611Y-108209121D01*
X171313612Y-108209123D01*
X171397257Y-108365610D01*
X171397257Y-108365611D01*
X171448766Y-108535412D01*
X171466158Y-108712000D01*
X171448766Y-108888588D01*
X171414427Y-109001789D01*
X171397257Y-109058390D01*
X171323178Y-109196980D01*
X171313611Y-109214879D01*
X171284288Y-109250609D01*
X171201044Y-109352044D01*
X171099609Y-109435288D01*
X171063879Y-109464611D01*
X171063877Y-109464612D01*
X170907390Y-109548257D01*
X170850789Y-109565427D01*
X170737588Y-109599766D01*
X170649362Y-109608455D01*
X170605250Y-109612800D01*
X170516750Y-109612800D01*
X170472638Y-109608455D01*
X170384412Y-109599766D01*
X170271211Y-109565427D01*
X170214610Y-109548257D01*
X170058123Y-109464612D01*
X170058121Y-109464611D01*
X170022391Y-109435288D01*
X169920956Y-109352044D01*
X169837712Y-109250609D01*
X169808389Y-109214879D01*
X169798822Y-109196980D01*
X169724743Y-109058390D01*
X169707573Y-109001789D01*
X169673234Y-108888588D01*
X169655842Y-108712000D01*
X169673234Y-108535412D01*
X169724743Y-108365611D01*
X169724743Y-108365610D01*
X169808388Y-108209123D01*
X169808389Y-108209121D01*
X169837712Y-108173391D01*
X169920956Y-108071956D01*
X170022391Y-107988712D01*
X170058121Y-107959389D01*
X170076020Y-107949822D01*
X170214610Y-107875743D01*
X170271211Y-107858573D01*
X170384412Y-107824234D01*
X170472638Y-107815545D01*
X170516750Y-107811200D01*
X170605250Y-107811200D01*
X170649362Y-107815545D01*
X170649362Y-107815545D01*
G37*
G36*
X168109362Y-107815545D02*
X168197588Y-107824234D01*
X168310789Y-107858573D01*
X168367390Y-107875743D01*
X168505980Y-107949822D01*
X168523879Y-107959389D01*
X168559609Y-107988712D01*
X168661044Y-108071956D01*
X168744288Y-108173391D01*
X168773611Y-108209121D01*
X168773612Y-108209123D01*
X168857257Y-108365610D01*
X168857257Y-108365611D01*
X168908766Y-108535412D01*
X168926158Y-108712000D01*
X168908766Y-108888588D01*
X168874427Y-109001789D01*
X168857257Y-109058390D01*
X168783178Y-109196980D01*
X168773611Y-109214879D01*
X168744288Y-109250609D01*
X168661044Y-109352044D01*
X168559609Y-109435288D01*
X168523879Y-109464611D01*
X168523877Y-109464612D01*
X168367390Y-109548257D01*
X168310789Y-109565427D01*
X168197588Y-109599766D01*
X168109362Y-109608455D01*
X168065250Y-109612800D01*
X167976750Y-109612800D01*
X167932638Y-109608455D01*
X167844412Y-109599766D01*
X167731211Y-109565427D01*
X167674610Y-109548257D01*
X167518123Y-109464612D01*
X167518121Y-109464611D01*
X167482391Y-109435288D01*
X167380956Y-109352044D01*
X167297712Y-109250609D01*
X167268389Y-109214879D01*
X167258822Y-109196980D01*
X167184743Y-109058390D01*
X167167573Y-109001789D01*
X167133234Y-108888588D01*
X167115842Y-108712000D01*
X167133234Y-108535412D01*
X167184743Y-108365611D01*
X167184743Y-108365610D01*
X167268388Y-108209123D01*
X167268389Y-108209121D01*
X167297712Y-108173391D01*
X167380956Y-108071956D01*
X167482391Y-107988712D01*
X167518121Y-107959389D01*
X167536020Y-107949822D01*
X167674610Y-107875743D01*
X167731211Y-107858573D01*
X167844412Y-107824234D01*
X167932638Y-107815545D01*
X167976750Y-107811200D01*
X168065250Y-107811200D01*
X168109362Y-107815545D01*
X168109362Y-107815545D01*
G37*
G36*
X166381800Y-109612800D02*
X164580200Y-109612800D01*
X164580200Y-107811200D01*
X166381800Y-107811200D01*
X166381800Y-109612800D01*
X166381800Y-109612800D01*
G37*
G36*
X178269362Y-107815545D02*
X178357588Y-107824234D01*
X178470789Y-107858573D01*
X178527390Y-107875743D01*
X178665980Y-107949822D01*
X178683879Y-107959389D01*
X178719609Y-107988712D01*
X178821044Y-108071956D01*
X178904288Y-108173391D01*
X178933611Y-108209121D01*
X178933612Y-108209123D01*
X179017257Y-108365610D01*
X179017257Y-108365611D01*
X179068766Y-108535412D01*
X179086158Y-108712000D01*
X179068766Y-108888588D01*
X179034427Y-109001789D01*
X179017257Y-109058390D01*
X178943178Y-109196980D01*
X178933611Y-109214879D01*
X178904288Y-109250609D01*
X178821044Y-109352044D01*
X178719609Y-109435288D01*
X178683879Y-109464611D01*
X178683877Y-109464612D01*
X178527390Y-109548257D01*
X178470789Y-109565427D01*
X178357588Y-109599766D01*
X178269362Y-109608455D01*
X178225250Y-109612800D01*
X178136750Y-109612800D01*
X178092638Y-109608455D01*
X178004412Y-109599766D01*
X177891211Y-109565427D01*
X177834610Y-109548257D01*
X177678123Y-109464612D01*
X177678121Y-109464611D01*
X177642391Y-109435288D01*
X177540956Y-109352044D01*
X177457712Y-109250609D01*
X177428389Y-109214879D01*
X177418822Y-109196980D01*
X177344743Y-109058390D01*
X177327573Y-109001789D01*
X177293234Y-108888588D01*
X177275842Y-108712000D01*
X177293234Y-108535412D01*
X177344743Y-108365611D01*
X177344743Y-108365610D01*
X177428388Y-108209123D01*
X177428389Y-108209121D01*
X177457712Y-108173391D01*
X177540956Y-108071956D01*
X177642391Y-107988712D01*
X177678121Y-107959389D01*
X177696020Y-107949822D01*
X177834610Y-107875743D01*
X177891211Y-107858573D01*
X178004412Y-107824234D01*
X178092638Y-107815545D01*
X178136750Y-107811200D01*
X178225250Y-107811200D01*
X178269362Y-107815545D01*
X178269362Y-107815545D01*
G37*
G36*
X175729362Y-107815545D02*
X175817588Y-107824234D01*
X175930789Y-107858573D01*
X175987390Y-107875743D01*
X176125980Y-107949822D01*
X176143879Y-107959389D01*
X176179609Y-107988712D01*
X176281044Y-108071956D01*
X176364288Y-108173391D01*
X176393611Y-108209121D01*
X176393612Y-108209123D01*
X176477257Y-108365610D01*
X176477257Y-108365611D01*
X176528766Y-108535412D01*
X176546158Y-108712000D01*
X176528766Y-108888588D01*
X176494427Y-109001789D01*
X176477257Y-109058390D01*
X176403178Y-109196980D01*
X176393611Y-109214879D01*
X176364288Y-109250609D01*
X176281044Y-109352044D01*
X176179609Y-109435288D01*
X176143879Y-109464611D01*
X176143877Y-109464612D01*
X175987390Y-109548257D01*
X175930789Y-109565427D01*
X175817588Y-109599766D01*
X175729362Y-109608455D01*
X175685250Y-109612800D01*
X175596750Y-109612800D01*
X175552638Y-109608455D01*
X175464412Y-109599766D01*
X175351211Y-109565427D01*
X175294610Y-109548257D01*
X175138123Y-109464612D01*
X175138121Y-109464611D01*
X175102391Y-109435288D01*
X175000956Y-109352044D01*
X174917712Y-109250609D01*
X174888389Y-109214879D01*
X174878822Y-109196980D01*
X174804743Y-109058390D01*
X174787573Y-109001789D01*
X174753234Y-108888588D01*
X174735842Y-108712000D01*
X174753234Y-108535412D01*
X174804743Y-108365611D01*
X174804743Y-108365610D01*
X174888388Y-108209123D01*
X174888389Y-108209121D01*
X174917712Y-108173391D01*
X175000956Y-108071956D01*
X175102391Y-107988712D01*
X175138121Y-107959389D01*
X175156020Y-107949822D01*
X175294610Y-107875743D01*
X175351211Y-107858573D01*
X175464412Y-107824234D01*
X175552638Y-107815545D01*
X175596750Y-107811200D01*
X175685250Y-107811200D01*
X175729362Y-107815545D01*
X175729362Y-107815545D01*
G37*
G36*
X178078971Y-103207908D02*
X178126779Y-103212617D01*
X178249455Y-103249831D01*
X178249458Y-103249832D01*
X178362514Y-103310261D01*
X178461611Y-103391589D01*
X178542939Y-103490686D01*
X178603368Y-103603742D01*
X178603369Y-103603745D01*
X178640583Y-103726421D01*
X178653148Y-103854000D01*
X178640583Y-103981579D01*
X178603369Y-104104255D01*
X178603368Y-104104258D01*
X178542939Y-104217314D01*
X178461611Y-104316411D01*
X178362514Y-104397739D01*
X178249458Y-104458168D01*
X178249455Y-104458169D01*
X178126779Y-104495383D01*
X178078971Y-104500091D01*
X178031165Y-104504800D01*
X177467235Y-104504800D01*
X177419429Y-104500091D01*
X177371621Y-104495383D01*
X177248945Y-104458169D01*
X177248942Y-104458168D01*
X177135886Y-104397739D01*
X177036789Y-104316411D01*
X176955461Y-104217314D01*
X176895032Y-104104258D01*
X176895031Y-104104255D01*
X176857817Y-103981579D01*
X176845252Y-103854000D01*
X176857817Y-103726421D01*
X176895031Y-103603745D01*
X176895032Y-103603742D01*
X176955461Y-103490686D01*
X177036789Y-103391589D01*
X177135886Y-103310261D01*
X177248942Y-103249832D01*
X177248945Y-103249831D01*
X177371621Y-103212617D01*
X177419429Y-103207908D01*
X177467235Y-103203200D01*
X178031165Y-103203200D01*
X178078971Y-103207908D01*
X178078971Y-103207908D01*
G37*
G36*
X153250000Y-102958000D02*
X151448400Y-102958000D01*
X151448400Y-101156400D01*
X153250000Y-101156400D01*
X153250000Y-102958000D01*
X153250000Y-102958000D01*
G37*
G36*
X149897562Y-101160745D02*
X149985788Y-101169434D01*
X150097099Y-101203200D01*
X150155590Y-101220943D01*
X150294180Y-101295022D01*
X150312079Y-101304589D01*
X150347809Y-101333912D01*
X150449244Y-101417156D01*
X150532488Y-101518591D01*
X150561811Y-101554321D01*
X150561812Y-101554323D01*
X150645457Y-101710810D01*
X150645457Y-101710811D01*
X150696966Y-101880612D01*
X150714358Y-102057200D01*
X150696966Y-102233788D01*
X150662627Y-102346989D01*
X150645457Y-102403590D01*
X150571378Y-102542180D01*
X150561811Y-102560079D01*
X150532488Y-102595809D01*
X150449244Y-102697244D01*
X150347809Y-102780488D01*
X150312079Y-102809811D01*
X150312077Y-102809812D01*
X150155590Y-102893457D01*
X150098989Y-102910627D01*
X149985788Y-102944966D01*
X149897562Y-102953655D01*
X149853450Y-102958000D01*
X149764950Y-102958000D01*
X149720838Y-102953655D01*
X149632612Y-102944966D01*
X149519411Y-102910627D01*
X149462810Y-102893457D01*
X149306323Y-102809812D01*
X149306321Y-102809811D01*
X149270591Y-102780488D01*
X149169156Y-102697244D01*
X149085912Y-102595809D01*
X149056589Y-102560079D01*
X149047022Y-102542180D01*
X148972943Y-102403590D01*
X148955773Y-102346989D01*
X148921434Y-102233788D01*
X148904042Y-102057200D01*
X148921434Y-101880612D01*
X148972943Y-101710811D01*
X148972943Y-101710810D01*
X149056588Y-101554323D01*
X149056589Y-101554321D01*
X149085912Y-101518591D01*
X149169156Y-101417156D01*
X149270591Y-101333912D01*
X149306321Y-101304589D01*
X149324220Y-101295022D01*
X149462810Y-101220943D01*
X149521301Y-101203200D01*
X149632612Y-101169434D01*
X149720838Y-101160745D01*
X149764950Y-101156400D01*
X149853450Y-101156400D01*
X149897562Y-101160745D01*
X149897562Y-101160745D01*
G37*
G36*
X178650000Y-102504800D02*
X176848400Y-102504800D01*
X176848400Y-101203200D01*
X178650000Y-101203200D01*
X178650000Y-102504800D01*
X178650000Y-102504800D01*
G37*
G36*
X152437562Y-98620745D02*
X152525788Y-98629434D01*
X152638989Y-98663773D01*
X152695590Y-98680943D01*
X152834180Y-98755022D01*
X152852079Y-98764589D01*
X152887809Y-98793912D01*
X152989244Y-98877156D01*
X153072488Y-98978591D01*
X153101811Y-99014321D01*
X153101812Y-99014323D01*
X153185457Y-99170810D01*
X153185457Y-99170811D01*
X153236966Y-99340612D01*
X153254358Y-99517200D01*
X153236966Y-99693788D01*
X153202627Y-99806989D01*
X153185457Y-99863590D01*
X153111378Y-100002180D01*
X153101811Y-100020079D01*
X153072488Y-100055809D01*
X152989244Y-100157244D01*
X152887809Y-100240488D01*
X152852079Y-100269811D01*
X152852077Y-100269812D01*
X152695590Y-100353457D01*
X152638989Y-100370627D01*
X152525788Y-100404966D01*
X152437562Y-100413655D01*
X152393450Y-100418000D01*
X152304950Y-100418000D01*
X152260838Y-100413655D01*
X152172612Y-100404966D01*
X152059411Y-100370627D01*
X152002810Y-100353457D01*
X151846323Y-100269812D01*
X151846321Y-100269811D01*
X151810591Y-100240488D01*
X151709156Y-100157244D01*
X151625912Y-100055809D01*
X151596589Y-100020079D01*
X151587022Y-100002180D01*
X151512943Y-99863590D01*
X151495773Y-99806989D01*
X151461434Y-99693788D01*
X151444042Y-99517200D01*
X151461434Y-99340612D01*
X151512943Y-99170811D01*
X151512943Y-99170810D01*
X151596588Y-99014323D01*
X151596589Y-99014321D01*
X151625912Y-98978591D01*
X151709156Y-98877156D01*
X151810591Y-98793912D01*
X151846321Y-98764589D01*
X151864220Y-98755022D01*
X152002810Y-98680943D01*
X152059411Y-98663773D01*
X152172612Y-98629434D01*
X152260838Y-98620745D01*
X152304950Y-98616400D01*
X152393450Y-98616400D01*
X152437562Y-98620745D01*
X152437562Y-98620745D01*
G37*
G36*
X149897562Y-98620745D02*
X149985788Y-98629434D01*
X150098989Y-98663773D01*
X150155590Y-98680943D01*
X150294180Y-98755022D01*
X150312079Y-98764589D01*
X150347809Y-98793912D01*
X150449244Y-98877156D01*
X150532488Y-98978591D01*
X150561811Y-99014321D01*
X150561812Y-99014323D01*
X150645457Y-99170810D01*
X150645457Y-99170811D01*
X150696966Y-99340612D01*
X150714358Y-99517200D01*
X150696966Y-99693788D01*
X150662627Y-99806989D01*
X150645457Y-99863590D01*
X150571378Y-100002180D01*
X150561811Y-100020079D01*
X150532488Y-100055809D01*
X150449244Y-100157244D01*
X150347809Y-100240488D01*
X150312079Y-100269811D01*
X150312077Y-100269812D01*
X150155590Y-100353457D01*
X150098989Y-100370627D01*
X149985788Y-100404966D01*
X149897562Y-100413655D01*
X149853450Y-100418000D01*
X149764950Y-100418000D01*
X149720838Y-100413655D01*
X149632612Y-100404966D01*
X149519411Y-100370627D01*
X149462810Y-100353457D01*
X149306323Y-100269812D01*
X149306321Y-100269811D01*
X149270591Y-100240488D01*
X149169156Y-100157244D01*
X149085912Y-100055809D01*
X149056589Y-100020079D01*
X149047022Y-100002180D01*
X148972943Y-99863590D01*
X148955773Y-99806989D01*
X148921434Y-99693788D01*
X148904042Y-99517200D01*
X148921434Y-99340612D01*
X148972943Y-99170811D01*
X148972943Y-99170810D01*
X149056588Y-99014323D01*
X149056589Y-99014321D01*
X149085912Y-98978591D01*
X149169156Y-98877156D01*
X149270591Y-98793912D01*
X149306321Y-98764589D01*
X149324220Y-98755022D01*
X149462810Y-98680943D01*
X149519411Y-98663773D01*
X149632612Y-98629434D01*
X149720838Y-98620745D01*
X149764950Y-98616400D01*
X149853450Y-98616400D01*
X149897562Y-98620745D01*
X149897562Y-98620745D01*
G37*
G36*
X179081800Y-97928800D02*
X177280200Y-97928800D01*
X177280200Y-96127200D01*
X179081800Y-96127200D01*
X179081800Y-97928800D01*
X179081800Y-97928800D01*
G37*
G36*
X152437562Y-96080745D02*
X152525788Y-96089434D01*
X152638989Y-96123773D01*
X152695590Y-96140943D01*
X152834180Y-96215022D01*
X152852079Y-96224589D01*
X152887809Y-96253912D01*
X152989244Y-96337156D01*
X153072488Y-96438591D01*
X153101811Y-96474321D01*
X153101812Y-96474323D01*
X153185457Y-96630810D01*
X153185457Y-96630811D01*
X153236966Y-96800612D01*
X153254358Y-96977200D01*
X153236966Y-97153788D01*
X153202627Y-97266989D01*
X153185457Y-97323590D01*
X153111378Y-97462180D01*
X153101811Y-97480079D01*
X153072488Y-97515809D01*
X152989244Y-97617244D01*
X152887809Y-97700488D01*
X152852079Y-97729811D01*
X152852077Y-97729812D01*
X152695590Y-97813457D01*
X152638989Y-97830627D01*
X152525788Y-97864966D01*
X152437562Y-97873655D01*
X152393450Y-97878000D01*
X152304950Y-97878000D01*
X152260838Y-97873655D01*
X152172612Y-97864966D01*
X152059411Y-97830627D01*
X152002810Y-97813457D01*
X151846323Y-97729812D01*
X151846321Y-97729811D01*
X151810591Y-97700488D01*
X151709156Y-97617244D01*
X151625912Y-97515809D01*
X151596589Y-97480079D01*
X151587022Y-97462180D01*
X151512943Y-97323590D01*
X151495773Y-97266989D01*
X151461434Y-97153788D01*
X151444042Y-96977200D01*
X151461434Y-96800612D01*
X151512943Y-96630811D01*
X151512943Y-96630810D01*
X151596588Y-96474323D01*
X151596589Y-96474321D01*
X151625912Y-96438591D01*
X151709156Y-96337156D01*
X151810591Y-96253912D01*
X151846321Y-96224589D01*
X151864220Y-96215022D01*
X152002810Y-96140943D01*
X152059411Y-96123773D01*
X152172612Y-96089434D01*
X152260838Y-96080745D01*
X152304950Y-96076400D01*
X152393450Y-96076400D01*
X152437562Y-96080745D01*
X152437562Y-96080745D01*
G37*
G36*
X149897562Y-96080745D02*
X149985788Y-96089434D01*
X150098989Y-96123773D01*
X150155590Y-96140943D01*
X150294180Y-96215022D01*
X150312079Y-96224589D01*
X150347809Y-96253912D01*
X150449244Y-96337156D01*
X150532488Y-96438591D01*
X150561811Y-96474321D01*
X150561812Y-96474323D01*
X150645457Y-96630810D01*
X150645457Y-96630811D01*
X150696966Y-96800612D01*
X150714358Y-96977200D01*
X150696966Y-97153788D01*
X150662627Y-97266989D01*
X150645457Y-97323590D01*
X150571378Y-97462180D01*
X150561811Y-97480079D01*
X150532488Y-97515809D01*
X150449244Y-97617244D01*
X150347809Y-97700488D01*
X150312079Y-97729811D01*
X150312077Y-97729812D01*
X150155590Y-97813457D01*
X150098989Y-97830627D01*
X149985788Y-97864966D01*
X149897562Y-97873655D01*
X149853450Y-97878000D01*
X149764950Y-97878000D01*
X149720838Y-97873655D01*
X149632612Y-97864966D01*
X149519411Y-97830627D01*
X149462810Y-97813457D01*
X149306323Y-97729812D01*
X149306321Y-97729811D01*
X149270591Y-97700488D01*
X149169156Y-97617244D01*
X149085912Y-97515809D01*
X149056589Y-97480079D01*
X149047022Y-97462180D01*
X148972943Y-97323590D01*
X148955773Y-97266989D01*
X148921434Y-97153788D01*
X148904042Y-96977200D01*
X148921434Y-96800612D01*
X148972943Y-96630811D01*
X148972943Y-96630810D01*
X149056588Y-96474323D01*
X149056589Y-96474321D01*
X149085912Y-96438591D01*
X149169156Y-96337156D01*
X149270591Y-96253912D01*
X149306321Y-96224589D01*
X149324220Y-96215022D01*
X149462810Y-96140943D01*
X149519411Y-96123773D01*
X149632612Y-96089434D01*
X149720838Y-96080745D01*
X149764950Y-96076400D01*
X149853450Y-96076400D01*
X149897562Y-96080745D01*
X149897562Y-96080745D01*
G37*
G36*
X178269362Y-93591545D02*
X178357588Y-93600234D01*
X178470789Y-93634573D01*
X178527390Y-93651743D01*
X178665980Y-93725822D01*
X178683879Y-93735389D01*
X178719609Y-93764712D01*
X178821044Y-93847956D01*
X178904288Y-93949391D01*
X178933611Y-93985121D01*
X178933612Y-93985123D01*
X179017257Y-94141610D01*
X179017257Y-94141611D01*
X179068766Y-94311412D01*
X179086158Y-94488000D01*
X179068766Y-94664588D01*
X179034427Y-94777789D01*
X179017257Y-94834390D01*
X178943178Y-94972980D01*
X178933611Y-94990879D01*
X178904288Y-95026609D01*
X178821044Y-95128044D01*
X178719609Y-95211288D01*
X178683879Y-95240611D01*
X178683877Y-95240612D01*
X178527390Y-95324257D01*
X178470789Y-95341427D01*
X178357588Y-95375766D01*
X178269362Y-95384455D01*
X178225250Y-95388800D01*
X178136750Y-95388800D01*
X178092638Y-95384455D01*
X178004412Y-95375766D01*
X177891211Y-95341427D01*
X177834610Y-95324257D01*
X177678123Y-95240612D01*
X177678121Y-95240611D01*
X177642391Y-95211288D01*
X177540956Y-95128044D01*
X177457712Y-95026609D01*
X177428389Y-94990879D01*
X177418822Y-94972980D01*
X177344743Y-94834390D01*
X177327573Y-94777789D01*
X177293234Y-94664588D01*
X177275842Y-94488000D01*
X177293234Y-94311412D01*
X177344743Y-94141611D01*
X177344743Y-94141610D01*
X177428388Y-93985123D01*
X177428389Y-93985121D01*
X177457712Y-93949391D01*
X177540956Y-93847956D01*
X177642391Y-93764712D01*
X177678121Y-93735389D01*
X177696020Y-93725822D01*
X177834610Y-93651743D01*
X177891211Y-93634573D01*
X178004412Y-93600234D01*
X178092638Y-93591545D01*
X178136750Y-93587200D01*
X178225250Y-93587200D01*
X178269362Y-93591545D01*
X178269362Y-93591545D01*
G37*
G36*
X152332223Y-87450526D02*
X152923830Y-87695578D01*
X153456267Y-88051341D01*
X153909059Y-88504133D01*
X154264822Y-89036570D01*
X154509874Y-89628177D01*
X154634800Y-90256223D01*
X154634800Y-90896577D01*
X154509874Y-91524623D01*
X154264822Y-92116230D01*
X153909059Y-92648667D01*
X153456267Y-93101459D01*
X152923830Y-93457222D01*
X152332223Y-93702274D01*
X151704177Y-93827200D01*
X151063823Y-93827200D01*
X150435777Y-93702274D01*
X149844170Y-93457222D01*
X149311733Y-93101459D01*
X148858941Y-92648667D01*
X148503178Y-92116230D01*
X148258126Y-91524623D01*
X148133200Y-90896577D01*
X148133200Y-90256223D01*
X148258126Y-89628177D01*
X148503178Y-89036570D01*
X148858941Y-88504133D01*
X149311733Y-88051341D01*
X149844170Y-87695578D01*
X150435777Y-87450526D01*
X151063823Y-87325600D01*
X151704177Y-87325600D01*
X152332223Y-87450526D01*
X152332223Y-87450526D01*
G37*
G36*
X178269362Y-91051545D02*
X178357588Y-91060234D01*
X178470789Y-91094573D01*
X178527390Y-91111743D01*
X178665980Y-91185822D01*
X178683879Y-91195389D01*
X178719609Y-91224712D01*
X178821044Y-91307956D01*
X178904288Y-91409391D01*
X178933611Y-91445121D01*
X178933612Y-91445123D01*
X179017257Y-91601610D01*
X179017257Y-91601611D01*
X179068766Y-91771412D01*
X179086158Y-91948000D01*
X179068766Y-92124588D01*
X179034427Y-92237789D01*
X179017257Y-92294390D01*
X178943178Y-92432980D01*
X178933611Y-92450879D01*
X178904288Y-92486609D01*
X178821044Y-92588044D01*
X178747173Y-92648667D01*
X178683879Y-92700611D01*
X178683877Y-92700612D01*
X178527390Y-92784257D01*
X178470789Y-92801427D01*
X178357588Y-92835766D01*
X178269362Y-92844455D01*
X178225250Y-92848800D01*
X178136750Y-92848800D01*
X178092638Y-92844455D01*
X178004412Y-92835766D01*
X177891211Y-92801427D01*
X177834610Y-92784257D01*
X177678123Y-92700612D01*
X177678121Y-92700611D01*
X177614827Y-92648667D01*
X177540956Y-92588044D01*
X177457712Y-92486609D01*
X177428389Y-92450879D01*
X177418822Y-92432980D01*
X177344743Y-92294390D01*
X177327573Y-92237789D01*
X177293234Y-92124588D01*
X177275842Y-91948000D01*
X177293234Y-91771412D01*
X177344743Y-91601611D01*
X177344743Y-91601610D01*
X177428388Y-91445123D01*
X177428389Y-91445121D01*
X177457712Y-91409391D01*
X177540956Y-91307956D01*
X177642391Y-91224712D01*
X177678121Y-91195389D01*
X177696020Y-91185822D01*
X177834610Y-91111743D01*
X177891211Y-91094573D01*
X178004412Y-91060234D01*
X178092638Y-91051545D01*
X178136750Y-91047200D01*
X178225250Y-91047200D01*
X178269362Y-91051545D01*
X178269362Y-91051545D01*
G37*
G36*
X177888362Y-87139945D02*
X177976588Y-87148634D01*
X178062657Y-87174743D01*
X178146390Y-87200143D01*
X178255357Y-87258388D01*
X178302879Y-87283789D01*
X178338609Y-87313112D01*
X178440044Y-87396356D01*
X178523288Y-87497791D01*
X178552611Y-87533521D01*
X178552612Y-87533523D01*
X178636257Y-87690010D01*
X178636257Y-87690011D01*
X178687766Y-87859812D01*
X178705158Y-88036400D01*
X178687766Y-88212988D01*
X178653427Y-88326189D01*
X178636257Y-88382790D01*
X178571397Y-88504133D01*
X178552611Y-88539279D01*
X178523288Y-88575009D01*
X178440044Y-88676444D01*
X178338609Y-88759688D01*
X178302879Y-88789011D01*
X178302877Y-88789012D01*
X178146390Y-88872657D01*
X178089789Y-88889827D01*
X177976588Y-88924166D01*
X177888362Y-88932855D01*
X177844250Y-88937200D01*
X177755750Y-88937200D01*
X177711638Y-88932855D01*
X177623412Y-88924166D01*
X177510211Y-88889827D01*
X177453610Y-88872657D01*
X177297123Y-88789012D01*
X177297121Y-88789011D01*
X177261391Y-88759688D01*
X177159956Y-88676444D01*
X177076712Y-88575009D01*
X177047389Y-88539279D01*
X177028603Y-88504133D01*
X176963743Y-88382790D01*
X176946573Y-88326189D01*
X176912234Y-88212988D01*
X176894842Y-88036400D01*
X176912234Y-87859812D01*
X176963743Y-87690011D01*
X176963743Y-87690010D01*
X177047388Y-87533523D01*
X177047389Y-87533521D01*
X177076712Y-87497791D01*
X177159956Y-87396356D01*
X177261391Y-87313112D01*
X177297121Y-87283789D01*
X177344643Y-87258388D01*
X177453610Y-87200143D01*
X177537343Y-87174743D01*
X177623412Y-87148634D01*
X177711638Y-87139945D01*
X177755750Y-87135600D01*
X177844250Y-87135600D01*
X177888362Y-87139945D01*
X177888362Y-87139945D01*
G37*
G36*
X175348362Y-87139945D02*
X175436588Y-87148634D01*
X175522657Y-87174743D01*
X175606390Y-87200143D01*
X175715357Y-87258388D01*
X175762879Y-87283789D01*
X175798609Y-87313112D01*
X175900044Y-87396356D01*
X175983288Y-87497791D01*
X176012611Y-87533521D01*
X176012612Y-87533523D01*
X176096257Y-87690010D01*
X176096257Y-87690011D01*
X176147766Y-87859812D01*
X176165158Y-88036400D01*
X176147766Y-88212988D01*
X176113427Y-88326189D01*
X176096257Y-88382790D01*
X176031397Y-88504133D01*
X176012611Y-88539279D01*
X175983288Y-88575009D01*
X175900044Y-88676444D01*
X175798609Y-88759688D01*
X175762879Y-88789011D01*
X175762877Y-88789012D01*
X175606390Y-88872657D01*
X175549789Y-88889827D01*
X175436588Y-88924166D01*
X175348362Y-88932855D01*
X175304250Y-88937200D01*
X175215750Y-88937200D01*
X175171638Y-88932855D01*
X175083412Y-88924166D01*
X174970211Y-88889827D01*
X174913610Y-88872657D01*
X174757123Y-88789012D01*
X174757121Y-88789011D01*
X174721391Y-88759688D01*
X174619956Y-88676444D01*
X174536712Y-88575009D01*
X174507389Y-88539279D01*
X174488603Y-88504133D01*
X174423743Y-88382790D01*
X174406573Y-88326189D01*
X174372234Y-88212988D01*
X174354842Y-88036400D01*
X174372234Y-87859812D01*
X174423743Y-87690011D01*
X174423743Y-87690010D01*
X174507388Y-87533523D01*
X174507389Y-87533521D01*
X174536712Y-87497791D01*
X174619956Y-87396356D01*
X174721391Y-87313112D01*
X174757121Y-87283789D01*
X174804643Y-87258388D01*
X174913610Y-87200143D01*
X174997343Y-87174743D01*
X175083412Y-87148634D01*
X175171638Y-87139945D01*
X175215750Y-87135600D01*
X175304250Y-87135600D01*
X175348362Y-87139945D01*
X175348362Y-87139945D01*
G37*
G36*
X172808362Y-87139945D02*
X172896588Y-87148634D01*
X172982657Y-87174743D01*
X173066390Y-87200143D01*
X173175357Y-87258388D01*
X173222879Y-87283789D01*
X173258609Y-87313112D01*
X173360044Y-87396356D01*
X173443288Y-87497791D01*
X173472611Y-87533521D01*
X173472612Y-87533523D01*
X173556257Y-87690010D01*
X173556257Y-87690011D01*
X173607766Y-87859812D01*
X173625158Y-88036400D01*
X173607766Y-88212988D01*
X173573427Y-88326189D01*
X173556257Y-88382790D01*
X173491397Y-88504133D01*
X173472611Y-88539279D01*
X173443288Y-88575009D01*
X173360044Y-88676444D01*
X173258609Y-88759688D01*
X173222879Y-88789011D01*
X173222877Y-88789012D01*
X173066390Y-88872657D01*
X173009789Y-88889827D01*
X172896588Y-88924166D01*
X172808362Y-88932855D01*
X172764250Y-88937200D01*
X172675750Y-88937200D01*
X172631638Y-88932855D01*
X172543412Y-88924166D01*
X172430211Y-88889827D01*
X172373610Y-88872657D01*
X172217123Y-88789012D01*
X172217121Y-88789011D01*
X172181391Y-88759688D01*
X172079956Y-88676444D01*
X171996712Y-88575009D01*
X171967389Y-88539279D01*
X171948603Y-88504133D01*
X171883743Y-88382790D01*
X171866573Y-88326189D01*
X171832234Y-88212988D01*
X171814842Y-88036400D01*
X171832234Y-87859812D01*
X171883743Y-87690011D01*
X171883743Y-87690010D01*
X171967388Y-87533523D01*
X171967389Y-87533521D01*
X171996712Y-87497791D01*
X172079956Y-87396356D01*
X172181391Y-87313112D01*
X172217121Y-87283789D01*
X172264643Y-87258388D01*
X172373610Y-87200143D01*
X172457343Y-87174743D01*
X172543412Y-87148634D01*
X172631638Y-87139945D01*
X172675750Y-87135600D01*
X172764250Y-87135600D01*
X172808362Y-87139945D01*
X172808362Y-87139945D01*
G37*
G36*
X171080800Y-88937200D02*
X169279200Y-88937200D01*
X169279200Y-87135600D01*
X171080800Y-87135600D01*
X171080800Y-88937200D01*
X171080800Y-88937200D01*
G37*
G36*
X161378362Y-87114545D02*
X161466588Y-87123234D01*
X161579789Y-87157573D01*
X161636390Y-87174743D01*
X161774980Y-87248822D01*
X161792879Y-87258389D01*
X161823828Y-87283788D01*
X161930044Y-87370956D01*
X161995344Y-87450526D01*
X162042611Y-87508121D01*
X162042612Y-87508123D01*
X162126257Y-87664610D01*
X162126257Y-87664611D01*
X162177766Y-87834412D01*
X162195158Y-88011000D01*
X162177766Y-88187588D01*
X162143427Y-88300789D01*
X162126257Y-88357390D01*
X162112680Y-88382790D01*
X162042611Y-88513879D01*
X162013288Y-88549609D01*
X161930044Y-88651044D01*
X161828609Y-88734288D01*
X161792879Y-88763611D01*
X161792877Y-88763612D01*
X161636390Y-88847257D01*
X161579789Y-88864427D01*
X161466588Y-88898766D01*
X161378362Y-88907455D01*
X161334250Y-88911800D01*
X161245750Y-88911800D01*
X161201638Y-88907455D01*
X161113412Y-88898766D01*
X161000211Y-88864427D01*
X160943610Y-88847257D01*
X160787123Y-88763612D01*
X160787121Y-88763611D01*
X160751391Y-88734288D01*
X160649956Y-88651044D01*
X160566712Y-88549609D01*
X160537389Y-88513879D01*
X160467320Y-88382790D01*
X160453743Y-88357390D01*
X160436573Y-88300789D01*
X160402234Y-88187588D01*
X160384842Y-88011000D01*
X160402234Y-87834412D01*
X160453743Y-87664611D01*
X160453743Y-87664610D01*
X160537388Y-87508123D01*
X160537389Y-87508121D01*
X160584656Y-87450526D01*
X160649956Y-87370956D01*
X160756172Y-87283788D01*
X160787121Y-87258389D01*
X160805020Y-87248822D01*
X160943610Y-87174743D01*
X161000211Y-87157573D01*
X161113412Y-87123234D01*
X161201638Y-87114545D01*
X161245750Y-87110200D01*
X161334250Y-87110200D01*
X161378362Y-87114545D01*
X161378362Y-87114545D01*
G37*
G36*
X163918362Y-87114545D02*
X164006588Y-87123234D01*
X164119789Y-87157573D01*
X164176390Y-87174743D01*
X164314980Y-87248822D01*
X164332879Y-87258389D01*
X164363828Y-87283788D01*
X164470044Y-87370956D01*
X164535344Y-87450526D01*
X164582611Y-87508121D01*
X164582612Y-87508123D01*
X164666257Y-87664610D01*
X164666257Y-87664611D01*
X164717766Y-87834412D01*
X164735158Y-88011000D01*
X164717766Y-88187588D01*
X164683427Y-88300789D01*
X164666257Y-88357390D01*
X164652680Y-88382790D01*
X164582611Y-88513879D01*
X164553288Y-88549609D01*
X164470044Y-88651044D01*
X164368609Y-88734288D01*
X164332879Y-88763611D01*
X164332877Y-88763612D01*
X164176390Y-88847257D01*
X164119789Y-88864427D01*
X164006588Y-88898766D01*
X163918362Y-88907455D01*
X163874250Y-88911800D01*
X163785750Y-88911800D01*
X163741638Y-88907455D01*
X163653412Y-88898766D01*
X163540211Y-88864427D01*
X163483610Y-88847257D01*
X163327123Y-88763612D01*
X163327121Y-88763611D01*
X163291391Y-88734288D01*
X163189956Y-88651044D01*
X163106712Y-88549609D01*
X163077389Y-88513879D01*
X163007320Y-88382790D01*
X162993743Y-88357390D01*
X162976573Y-88300789D01*
X162942234Y-88187588D01*
X162924842Y-88011000D01*
X162942234Y-87834412D01*
X162993743Y-87664611D01*
X162993743Y-87664610D01*
X163077388Y-87508123D01*
X163077389Y-87508121D01*
X163124656Y-87450526D01*
X163189956Y-87370956D01*
X163296172Y-87283788D01*
X163327121Y-87258389D01*
X163345020Y-87248822D01*
X163483610Y-87174743D01*
X163540211Y-87157573D01*
X163653412Y-87123234D01*
X163741638Y-87114545D01*
X163785750Y-87110200D01*
X163874250Y-87110200D01*
X163918362Y-87114545D01*
X163918362Y-87114545D01*
G37*
G36*
X167270800Y-88911800D02*
X165469200Y-88911800D01*
X165469200Y-87110200D01*
X167270800Y-87110200D01*
X167270800Y-88911800D01*
X167270800Y-88911800D01*
G37*
M02*
