M48
;DRILL file {KiCad (5.0.2)-1} date 3/2/2019 8:42:27 AM
;FORMAT={-:-/ absolute / inch / decimal}
FMAT,2
INCH,TZ
T1C0.0130
T2C0.0295
T3C0.0394
T4C0.1260
%
G90
G05
T1
X5.202Y-3.656
X5.4373Y-4.1607
X5.675Y-3.431
X5.82Y-4.1842
X5.946Y-3.76
X6.0341Y-4.1601
X6.2334Y-4.04
X6.341Y-3.977
X6.438Y-3.912
X6.438Y-3.948
X6.494Y-3.732
X6.514Y-4.202
X6.524Y-3.816
X6.654Y-3.866
X6.662Y-4.128
T2
X6.998Y-4.01
X6.998Y-4.0887
T3
X6.35Y-3.465
X6.45Y-3.465
X6.55Y-3.465
X6.7Y-3.466
X6.8Y-3.466
X6.9Y-3.466
X7.Y-3.466
X6.515Y-4.28
X6.615Y-4.28
X6.715Y-4.28
X6.815Y-4.28
X6.915Y-4.28
X7.015Y-4.28
X7.015Y-3.62
X7.015Y-3.72
X7.015Y-3.82
X5.898Y-3.818
X5.898Y-3.918
X5.898Y-4.018
X5.998Y-3.818
X5.998Y-3.918
X5.998Y-4.018
T4
X5.96Y-3.566
T0
M30
