G04 #@! TF.GenerationSoftware,KiCad,Pcbnew,(5.0.2)-1*
G04 #@! TF.CreationDate,2019-03-02T08:42:05-05:00*
G04 #@! TF.ProjectId,ENN-node.v1,454e4e2d-6e6f-4646-952e-76312e6b6963,rev?*
G04 #@! TF.SameCoordinates,Original*
G04 #@! TF.FileFunction,Legend,Bot*
G04 #@! TF.FilePolarity,Positive*
%FSLAX46Y46*%
G04 Gerber Fmt 4.6, Leading zero omitted, Abs format (unit mm)*
G04 Created by KiCad (PCBNEW (5.0.2)-1) date 3/2/2019 8:42:05 AM*
%MOMM*%
%LPD*%
G01*
G04 APERTURE LIST*
%ADD10C,0.222250*%
G04 APERTURE END LIST*
D10*
X139547600Y-88243833D02*
X139505266Y-88201500D01*
X139420600Y-88159166D01*
X139208933Y-88159166D01*
X139124266Y-88201500D01*
X139081933Y-88243833D01*
X139039600Y-88328500D01*
X139039600Y-88413166D01*
X139081933Y-88540166D01*
X139589933Y-89048166D01*
X139039600Y-89048166D01*
X138489266Y-88159166D02*
X138404600Y-88159166D01*
X138319933Y-88201500D01*
X138277600Y-88243833D01*
X138235266Y-88328500D01*
X138192933Y-88497833D01*
X138192933Y-88709500D01*
X138235266Y-88878833D01*
X138277600Y-88963500D01*
X138319933Y-89005833D01*
X138404600Y-89048166D01*
X138489266Y-89048166D01*
X138573933Y-89005833D01*
X138616266Y-88963500D01*
X138658600Y-88878833D01*
X138700933Y-88709500D01*
X138700933Y-88497833D01*
X138658600Y-88328500D01*
X138616266Y-88243833D01*
X138573933Y-88201500D01*
X138489266Y-88159166D01*
X137346266Y-89048166D02*
X137854266Y-89048166D01*
X137600266Y-89048166D02*
X137600266Y-88159166D01*
X137684933Y-88286166D01*
X137769600Y-88370833D01*
X137854266Y-88413166D01*
X136922933Y-89048166D02*
X136753600Y-89048166D01*
X136668933Y-89005833D01*
X136626600Y-88963500D01*
X136541933Y-88836500D01*
X136499600Y-88667166D01*
X136499600Y-88328500D01*
X136541933Y-88243833D01*
X136584266Y-88201500D01*
X136668933Y-88159166D01*
X136838266Y-88159166D01*
X136922933Y-88201500D01*
X136965266Y-88243833D01*
X137007600Y-88328500D01*
X137007600Y-88540166D01*
X136965266Y-88624833D01*
X136922933Y-88667166D01*
X136838266Y-88709500D01*
X136668933Y-88709500D01*
X136584266Y-88667166D01*
X136541933Y-88624833D01*
X136499600Y-88540166D01*
X136118600Y-88963500D02*
X136076266Y-89005833D01*
X136118600Y-89048166D01*
X136160933Y-89005833D01*
X136118600Y-88963500D01*
X136118600Y-89048166D01*
X135779933Y-88159166D02*
X135229600Y-88159166D01*
X135525933Y-88497833D01*
X135398933Y-88497833D01*
X135314266Y-88540166D01*
X135271933Y-88582500D01*
X135229600Y-88667166D01*
X135229600Y-88878833D01*
X135271933Y-88963500D01*
X135314266Y-89005833D01*
X135398933Y-89048166D01*
X135652933Y-89048166D01*
X135737600Y-89005833D01*
X135779933Y-88963500D01*
X134848600Y-88963500D02*
X134806266Y-89005833D01*
X134848600Y-89048166D01*
X134890933Y-89005833D01*
X134848600Y-88963500D01*
X134848600Y-89048166D01*
X134467600Y-88243833D02*
X134425266Y-88201500D01*
X134340600Y-88159166D01*
X134128933Y-88159166D01*
X134044266Y-88201500D01*
X134001933Y-88243833D01*
X133959600Y-88328500D01*
X133959600Y-88413166D01*
X134001933Y-88540166D01*
X134509933Y-89048166D01*
X133959600Y-89048166D01*
X139877800Y-87574966D02*
X139877800Y-86685966D01*
X139369800Y-87574966D01*
X139369800Y-86685966D01*
X138819466Y-87574966D02*
X138904133Y-87532633D01*
X138946466Y-87490300D01*
X138988800Y-87405633D01*
X138988800Y-87151633D01*
X138946466Y-87066966D01*
X138904133Y-87024633D01*
X138819466Y-86982300D01*
X138692466Y-86982300D01*
X138607800Y-87024633D01*
X138565466Y-87066966D01*
X138523133Y-87151633D01*
X138523133Y-87405633D01*
X138565466Y-87490300D01*
X138607800Y-87532633D01*
X138692466Y-87574966D01*
X138819466Y-87574966D01*
X137761133Y-87574966D02*
X137761133Y-86685966D01*
X137761133Y-87532633D02*
X137845800Y-87574966D01*
X138015133Y-87574966D01*
X138099800Y-87532633D01*
X138142133Y-87490300D01*
X138184466Y-87405633D01*
X138184466Y-87151633D01*
X138142133Y-87066966D01*
X138099800Y-87024633D01*
X138015133Y-86982300D01*
X137845800Y-86982300D01*
X137761133Y-87024633D01*
X136999133Y-87532633D02*
X137083800Y-87574966D01*
X137253133Y-87574966D01*
X137337800Y-87532633D01*
X137380133Y-87447966D01*
X137380133Y-87109300D01*
X137337800Y-87024633D01*
X137253133Y-86982300D01*
X137083800Y-86982300D01*
X136999133Y-87024633D01*
X136956800Y-87109300D01*
X136956800Y-87193966D01*
X137380133Y-87278633D01*
X135983133Y-86982300D02*
X135771466Y-87574966D01*
X135559800Y-86982300D01*
X134755466Y-87574966D02*
X135263466Y-87574966D01*
X135009466Y-87574966D02*
X135009466Y-86685966D01*
X135094133Y-86812966D01*
X135178800Y-86897633D01*
X135263466Y-86939966D01*
X134374466Y-87490300D02*
X134332133Y-87532633D01*
X134374466Y-87574966D01*
X134416800Y-87532633D01*
X134374466Y-87490300D01*
X134374466Y-87574966D01*
X133781800Y-86685966D02*
X133697133Y-86685966D01*
X133612466Y-86728300D01*
X133570133Y-86770633D01*
X133527800Y-86855300D01*
X133485466Y-87024633D01*
X133485466Y-87236300D01*
X133527800Y-87405633D01*
X133570133Y-87490300D01*
X133612466Y-87532633D01*
X133697133Y-87574966D01*
X133781800Y-87574966D01*
X133866466Y-87532633D01*
X133908800Y-87490300D01*
X133951133Y-87405633D01*
X133993466Y-87236300D01*
X133993466Y-87024633D01*
X133951133Y-86855300D01*
X133908800Y-86770633D01*
X133866466Y-86728300D01*
X133781800Y-86685966D01*
M02*
