G04 #@! TF.GenerationSoftware,KiCad,Pcbnew,(5.0.2)-1*
G04 #@! TF.CreationDate,2019-03-02T08:42:05-05:00*
G04 #@! TF.ProjectId,ENN-node.v1,454e4e2d-6e6f-4646-952e-76312e6b6963,rev?*
G04 #@! TF.SameCoordinates,Original*
G04 #@! TF.FileFunction,Copper,L2,Bot*
G04 #@! TF.FilePolarity,Positive*
%FSLAX46Y46*%
G04 Gerber Fmt 4.6, Leading zero omitted, Abs format (unit mm)*
G04 Created by KiCad (PCBNEW (5.0.2)-1) date 3/2/2019 8:42:05 AM*
%MOMM*%
%LPD*%
G01*
G04 APERTURE LIST*
G04 #@! TA.AperFunction,ComponentPad*
%ADD10O,1.700000X1.700000*%
G04 #@! TD*
G04 #@! TA.AperFunction,ComponentPad*
%ADD11R,1.700000X1.700000*%
G04 #@! TD*
G04 #@! TA.AperFunction,ComponentPad*
%ADD12O,1.700000X1.200000*%
G04 #@! TD*
G04 #@! TA.AperFunction,ComponentPad*
%ADD13R,1.700000X1.200000*%
G04 #@! TD*
G04 #@! TA.AperFunction,ViaPad*
%ADD14C,0.685800*%
G04 #@! TD*
G04 #@! TA.AperFunction,Conductor*
%ADD15C,0.152400*%
G04 #@! TD*
G04 #@! TA.AperFunction,Conductor*
%ADD16C,0.177800*%
G04 #@! TD*
G04 #@! TA.AperFunction,Conductor*
%ADD17C,0.254000*%
G04 #@! TD*
G04 APERTURE END LIST*
D10*
G04 #@! TO.P,I2C,4*
G04 #@! TO.N,/SDA*
X177800000Y-88036400D03*
G04 #@! TO.P,I2C,3*
G04 #@! TO.N,/SCL*
X175260000Y-88036400D03*
G04 #@! TO.P,I2C,2*
G04 #@! TO.N,GND*
X172720000Y-88036400D03*
D11*
G04 #@! TO.P,I2C,1*
G04 #@! TO.N,/VCC*
X170180000Y-88036400D03*
G04 #@! TD*
D12*
G04 #@! TO.P,J7,2*
G04 #@! TO.N,GND*
X177749200Y-103854000D03*
D13*
G04 #@! TO.P,J7,1*
G04 #@! TO.N,/VCC*
X177749200Y-101854000D03*
G04 #@! TD*
D11*
G04 #@! TO.P,J4,1*
G04 #@! TO.N,/VCC*
X178181000Y-97028000D03*
D10*
G04 #@! TO.P,J4,2*
G04 #@! TO.N,GND*
X178181000Y-94488000D03*
G04 #@! TO.P,J4,3*
G04 #@! TO.N,/A0*
X178181000Y-91948000D03*
G04 #@! TD*
G04 #@! TO.P,J2,3*
G04 #@! TO.N,/D8*
X161290000Y-88011000D03*
G04 #@! TO.P,J2,2*
G04 #@! TO.N,GND*
X163830000Y-88011000D03*
D11*
G04 #@! TO.P,J2,1*
G04 #@! TO.N,/VCC*
X166370000Y-88011000D03*
G04 #@! TD*
D10*
G04 #@! TO.P,FTDI,6*
G04 #@! TO.N,GND*
X178181000Y-108712000D03*
G04 #@! TO.P,FTDI,5*
X175641000Y-108712000D03*
G04 #@! TO.P,FTDI,4*
G04 #@! TO.N,/VCC*
X173101000Y-108712000D03*
G04 #@! TO.P,FTDI,3*
G04 #@! TO.N,/RX*
X170561000Y-108712000D03*
G04 #@! TO.P,FTDI,2*
G04 #@! TO.N,/TX*
X168021000Y-108712000D03*
D11*
G04 #@! TO.P,FTDI,1*
G04 #@! TO.N,/DTR*
X165481000Y-108712000D03*
G04 #@! TD*
D10*
G04 #@! TO.P,ICSP,6*
G04 #@! TO.N,GND*
X149809200Y-96977200D03*
G04 #@! TO.P,ICSP,5*
G04 #@! TO.N,/RST*
X152349200Y-96977200D03*
G04 #@! TO.P,ICSP,4*
G04 #@! TO.N,/MOSI*
X149809200Y-99517200D03*
G04 #@! TO.P,ICSP,3*
G04 #@! TO.N,/SCK*
X152349200Y-99517200D03*
G04 #@! TO.P,ICSP,2*
G04 #@! TO.N,/VCC*
X149809200Y-102057200D03*
D11*
G04 #@! TO.P,ICSP,1*
G04 #@! TO.N,/MISO*
X152349200Y-102057200D03*
G04 #@! TD*
D14*
G04 #@! TO.N,/RST*
X161061200Y-101016000D03*
X151028400Y-95504000D03*
G04 #@! TO.N,/DTR*
X164947600Y-94792800D03*
X165455600Y-106730800D03*
G04 #@! TO.N,/RX*
X169214800Y-104851200D03*
X163525200Y-100279200D03*
G04 #@! TO.N,/TX*
X169011600Y-98196400D03*
X163525200Y-99364800D03*
G04 #@! TO.N,/D2*
X165709600Y-96926400D03*
X144144601Y-87147799D03*
G04 #@! TO.N,/SCK*
X138106400Y-105682800D03*
X153265600Y-105666000D03*
G04 #@! TO.N,/SS*
X147828000Y-106279700D03*
X158329300Y-102616000D03*
G04 #@! TO.N,/VCC*
X132130800Y-92862400D03*
G04 #@! TD*
D15*
G04 #@! TO.N,/RST*
X156540400Y-101016000D02*
X161061200Y-101016000D01*
X151028400Y-95504000D02*
X156540400Y-101016000D01*
D16*
G04 #@! TO.N,/DTR*
X164970667Y-106730800D02*
X162750499Y-104510632D01*
X165455600Y-106730800D02*
X164970667Y-106730800D01*
X162750499Y-104510632D02*
X162750499Y-96989901D01*
X162750499Y-96989901D02*
X164947600Y-94792800D01*
G04 #@! TO.N,/RX*
X168097200Y-104851200D02*
X169214800Y-104851200D01*
X163525200Y-100279200D02*
X168097200Y-104851200D01*
D15*
G04 #@! TO.N,/TX*
X167792400Y-99415600D02*
X169011600Y-98196400D01*
X163322000Y-99415600D02*
X167792400Y-99415600D01*
D16*
X167843200Y-99364800D02*
X169011600Y-98196400D01*
X163525200Y-99364800D02*
X167843200Y-99364800D01*
G04 #@! TO.N,/D2*
X165709600Y-96441467D02*
X165709600Y-96926400D01*
X165709600Y-94652590D02*
X165709600Y-96441467D01*
X157671010Y-86614000D02*
X165709600Y-94652590D01*
X144678400Y-86614000D02*
X157671010Y-86614000D01*
X144144601Y-87147799D02*
X144678400Y-86614000D01*
G04 #@! TO.N,/SCK*
X152780667Y-105666000D02*
X153265600Y-105666000D01*
X147539490Y-105666000D02*
X152780667Y-105666000D01*
X147522690Y-105682800D02*
X147539490Y-105666000D01*
X138106400Y-105682800D02*
X147522690Y-105682800D01*
G04 #@! TO.N,/SS*
X153554110Y-106279700D02*
X155389010Y-104444800D01*
X147828000Y-106279700D02*
X153554110Y-106279700D01*
X155389010Y-104444800D02*
X156514800Y-104444800D01*
X156514800Y-104444800D02*
X158329300Y-102630300D01*
X158329300Y-102630300D02*
X158329300Y-102616000D01*
G04 #@! TD*
D17*
G04 #@! TO.N,/VCC*
G36*
X143590665Y-86318776D02*
X143315578Y-86593863D01*
X143166701Y-86953283D01*
X143166701Y-87342315D01*
X143315578Y-87701735D01*
X143590665Y-87976822D01*
X143950085Y-88125699D01*
X144339117Y-88125699D01*
X144698537Y-87976822D01*
X144973624Y-87701735D01*
X145122501Y-87342315D01*
X145122501Y-87337900D01*
X157371162Y-87337900D01*
X164195351Y-94162090D01*
X164118577Y-94238864D01*
X163969700Y-94598284D01*
X163969700Y-94746951D01*
X162289042Y-96427610D01*
X162228597Y-96467998D01*
X162188210Y-96528442D01*
X162068600Y-96707450D01*
X162012417Y-96989901D01*
X162026600Y-97061204D01*
X162026599Y-100791305D01*
X161890223Y-100462064D01*
X161615136Y-100186977D01*
X161255716Y-100038100D01*
X160866684Y-100038100D01*
X160507264Y-100186977D01*
X160389441Y-100304800D01*
X156834989Y-100304800D01*
X153804244Y-97274056D01*
X153863292Y-96977200D01*
X153748039Y-96397782D01*
X153419825Y-95906575D01*
X152928618Y-95578361D01*
X152495456Y-95492200D01*
X152202944Y-95492200D01*
X152052344Y-95522156D01*
X152006300Y-95476112D01*
X152006300Y-95309484D01*
X151857423Y-94950064D01*
X151582336Y-94674977D01*
X151222916Y-94526100D01*
X150833884Y-94526100D01*
X150474464Y-94674977D01*
X150199377Y-94950064D01*
X150050500Y-95309484D01*
X150050500Y-95511105D01*
X149955456Y-95492200D01*
X149662944Y-95492200D01*
X149229782Y-95578361D01*
X148738575Y-95906575D01*
X148410361Y-96397782D01*
X148295108Y-96977200D01*
X148410361Y-97556618D01*
X148738575Y-98047825D01*
X149036961Y-98247200D01*
X148738575Y-98446575D01*
X148410361Y-98937782D01*
X148295108Y-99517200D01*
X148410361Y-100096618D01*
X148738575Y-100587825D01*
X149057678Y-100801043D01*
X148927842Y-100862017D01*
X148537555Y-101290276D01*
X148367724Y-101700310D01*
X148489045Y-101930200D01*
X149682200Y-101930200D01*
X149682200Y-101910200D01*
X149936200Y-101910200D01*
X149936200Y-101930200D01*
X149956200Y-101930200D01*
X149956200Y-102184200D01*
X149936200Y-102184200D01*
X149936200Y-103378019D01*
X150166092Y-103498686D01*
X150690558Y-103252383D01*
X150879239Y-103045345D01*
X150901043Y-103154965D01*
X151041391Y-103365009D01*
X151251435Y-103505357D01*
X151499200Y-103554640D01*
X153199200Y-103554640D01*
X153446965Y-103505357D01*
X153657009Y-103365009D01*
X153797357Y-103154965D01*
X153846640Y-102907200D01*
X153846640Y-101207200D01*
X153797357Y-100959435D01*
X153657009Y-100749391D01*
X153446965Y-100609043D01*
X153401581Y-100600016D01*
X153419825Y-100587825D01*
X153748039Y-100096618D01*
X153863292Y-99517200D01*
X153820455Y-99301844D01*
X155987978Y-101469367D01*
X156027654Y-101528746D01*
X156087033Y-101568422D01*
X156087035Y-101568424D01*
X156262902Y-101685935D01*
X156262903Y-101685935D01*
X156262904Y-101685936D01*
X156470354Y-101727200D01*
X156470357Y-101727200D01*
X156540399Y-101741132D01*
X156610441Y-101727200D01*
X157919678Y-101727200D01*
X157775364Y-101786977D01*
X157500277Y-102062064D01*
X157351400Y-102421484D01*
X157351400Y-102584451D01*
X156214952Y-103720900D01*
X155460302Y-103720900D01*
X155389009Y-103706719D01*
X155317716Y-103720900D01*
X155317712Y-103720900D01*
X155106558Y-103762901D01*
X154867107Y-103922897D01*
X154826720Y-103983341D01*
X153896310Y-104913751D01*
X153819536Y-104836977D01*
X153460116Y-104688100D01*
X153071084Y-104688100D01*
X152711664Y-104836977D01*
X152606541Y-104942100D01*
X147610788Y-104942100D01*
X147539490Y-104927918D01*
X147468192Y-104942100D01*
X147383732Y-104958900D01*
X138765459Y-104958900D01*
X138660336Y-104853777D01*
X138300916Y-104704900D01*
X137911884Y-104704900D01*
X137552464Y-104853777D01*
X137277377Y-105128864D01*
X137128500Y-105488284D01*
X137128500Y-105877316D01*
X137277377Y-106236736D01*
X137552464Y-106511823D01*
X137911884Y-106660700D01*
X138300916Y-106660700D01*
X138660336Y-106511823D01*
X138765459Y-106406700D01*
X146850100Y-106406700D01*
X146850100Y-106474216D01*
X146998977Y-106833636D01*
X147274064Y-107108723D01*
X147633484Y-107257600D01*
X148022516Y-107257600D01*
X148381936Y-107108723D01*
X148487059Y-107003600D01*
X153482812Y-107003600D01*
X153554110Y-107017782D01*
X153625408Y-107003600D01*
X153836562Y-106961599D01*
X154076013Y-106801603D01*
X154116403Y-106741155D01*
X155688859Y-105168700D01*
X156443502Y-105168700D01*
X156514800Y-105182882D01*
X156586098Y-105168700D01*
X156797252Y-105126699D01*
X157036703Y-104966703D01*
X157077093Y-104906255D01*
X158389449Y-103593900D01*
X158523816Y-103593900D01*
X158883236Y-103445023D01*
X159158323Y-103169936D01*
X159307200Y-102810516D01*
X159307200Y-102421484D01*
X159158323Y-102062064D01*
X158883236Y-101786977D01*
X158738922Y-101727200D01*
X160389441Y-101727200D01*
X160507264Y-101845023D01*
X160866684Y-101993900D01*
X161255716Y-101993900D01*
X161615136Y-101845023D01*
X161890223Y-101569936D01*
X162026599Y-101240695D01*
X162026599Y-104439334D01*
X162012417Y-104510632D01*
X162026599Y-104581929D01*
X162068600Y-104793083D01*
X162228596Y-105032534D01*
X162289042Y-105072923D01*
X164408378Y-107192261D01*
X164447647Y-107251031D01*
X164383235Y-107263843D01*
X164173191Y-107404191D01*
X164032843Y-107614235D01*
X163983560Y-107862000D01*
X163983560Y-109562000D01*
X164032843Y-109809765D01*
X164173191Y-110019809D01*
X164383235Y-110160157D01*
X164631000Y-110209440D01*
X166331000Y-110209440D01*
X166578765Y-110160157D01*
X166788809Y-110019809D01*
X166929157Y-109809765D01*
X166938184Y-109764381D01*
X166950375Y-109782625D01*
X167441582Y-110110839D01*
X167874744Y-110197000D01*
X168167256Y-110197000D01*
X168600418Y-110110839D01*
X169091625Y-109782625D01*
X169291000Y-109484239D01*
X169490375Y-109782625D01*
X169981582Y-110110839D01*
X170414744Y-110197000D01*
X170707256Y-110197000D01*
X171140418Y-110110839D01*
X171631625Y-109782625D01*
X171844843Y-109463522D01*
X171905817Y-109593358D01*
X172334076Y-109983645D01*
X172744110Y-110153476D01*
X172974000Y-110032155D01*
X172974000Y-108839000D01*
X172954000Y-108839000D01*
X172954000Y-108585000D01*
X172974000Y-108585000D01*
X172974000Y-107391845D01*
X173228000Y-107391845D01*
X173228000Y-108585000D01*
X173248000Y-108585000D01*
X173248000Y-108839000D01*
X173228000Y-108839000D01*
X173228000Y-110032155D01*
X173457890Y-110153476D01*
X173867924Y-109983645D01*
X174296183Y-109593358D01*
X174357157Y-109463522D01*
X174570375Y-109782625D01*
X175061582Y-110110839D01*
X175494744Y-110197000D01*
X175787256Y-110197000D01*
X176220418Y-110110839D01*
X176711625Y-109782625D01*
X176911000Y-109484239D01*
X177110375Y-109782625D01*
X177601582Y-110110839D01*
X178034744Y-110197000D01*
X178327256Y-110197000D01*
X178760418Y-110110839D01*
X179251625Y-109782625D01*
X179579839Y-109291418D01*
X179695092Y-108712000D01*
X179579839Y-108132582D01*
X179251625Y-107641375D01*
X178760418Y-107313161D01*
X178327256Y-107227000D01*
X178034744Y-107227000D01*
X177601582Y-107313161D01*
X177110375Y-107641375D01*
X176911000Y-107939761D01*
X176711625Y-107641375D01*
X176220418Y-107313161D01*
X175787256Y-107227000D01*
X175494744Y-107227000D01*
X175061582Y-107313161D01*
X174570375Y-107641375D01*
X174357157Y-107960478D01*
X174296183Y-107830642D01*
X173867924Y-107440355D01*
X173457890Y-107270524D01*
X173228000Y-107391845D01*
X172974000Y-107391845D01*
X172744110Y-107270524D01*
X172334076Y-107440355D01*
X171905817Y-107830642D01*
X171844843Y-107960478D01*
X171631625Y-107641375D01*
X171140418Y-107313161D01*
X170707256Y-107227000D01*
X170414744Y-107227000D01*
X169981582Y-107313161D01*
X169490375Y-107641375D01*
X169291000Y-107939761D01*
X169091625Y-107641375D01*
X168600418Y-107313161D01*
X168167256Y-107227000D01*
X167874744Y-107227000D01*
X167441582Y-107313161D01*
X166950375Y-107641375D01*
X166938184Y-107659619D01*
X166929157Y-107614235D01*
X166788809Y-107404191D01*
X166578765Y-107263843D01*
X166331000Y-107214560D01*
X166313691Y-107214560D01*
X166433500Y-106925316D01*
X166433500Y-106536284D01*
X166284623Y-106176864D01*
X166009536Y-105901777D01*
X165650116Y-105752900D01*
X165261084Y-105752900D01*
X165088149Y-105824532D01*
X163474399Y-104210784D01*
X163474399Y-101257100D01*
X163479352Y-101257100D01*
X167534909Y-105312658D01*
X167575297Y-105373103D01*
X167814748Y-105533099D01*
X168025902Y-105575100D01*
X168025903Y-105575100D01*
X168097199Y-105589282D01*
X168168496Y-105575100D01*
X168555741Y-105575100D01*
X168660864Y-105680223D01*
X169020284Y-105829100D01*
X169409316Y-105829100D01*
X169768736Y-105680223D01*
X170043823Y-105405136D01*
X170192700Y-105045716D01*
X170192700Y-104656684D01*
X170043823Y-104297264D01*
X169768736Y-104022177D01*
X169409316Y-103873300D01*
X169020284Y-103873300D01*
X168660864Y-104022177D01*
X168555741Y-104127300D01*
X168397049Y-104127300D01*
X168123749Y-103854000D01*
X176240005Y-103854000D01*
X176335856Y-104335873D01*
X176608815Y-104744385D01*
X177017327Y-105017344D01*
X177377564Y-105089000D01*
X178120836Y-105089000D01*
X178481073Y-105017344D01*
X178889585Y-104744385D01*
X179162544Y-104335873D01*
X179258395Y-103854000D01*
X179162544Y-103372127D01*
X178919636Y-103008590D01*
X178958899Y-102992327D01*
X179137527Y-102813698D01*
X179234200Y-102580309D01*
X179234200Y-102139750D01*
X179075450Y-101981000D01*
X177876200Y-101981000D01*
X177876200Y-102001000D01*
X177622200Y-102001000D01*
X177622200Y-101981000D01*
X176422950Y-101981000D01*
X176264200Y-102139750D01*
X176264200Y-102580309D01*
X176360873Y-102813698D01*
X176539501Y-102992327D01*
X176578764Y-103008590D01*
X176335856Y-103372127D01*
X176240005Y-103854000D01*
X168123749Y-103854000D01*
X165397440Y-101127691D01*
X176264200Y-101127691D01*
X176264200Y-101568250D01*
X176422950Y-101727000D01*
X177622200Y-101727000D01*
X177622200Y-100777750D01*
X177876200Y-100777750D01*
X177876200Y-101727000D01*
X179075450Y-101727000D01*
X179234200Y-101568250D01*
X179234200Y-101127691D01*
X179137527Y-100894302D01*
X178958899Y-100715673D01*
X178725510Y-100619000D01*
X178034950Y-100619000D01*
X177876200Y-100777750D01*
X177622200Y-100777750D01*
X177463450Y-100619000D01*
X176772890Y-100619000D01*
X176539501Y-100715673D01*
X176360873Y-100894302D01*
X176264200Y-101127691D01*
X165397440Y-101127691D01*
X164503100Y-100233352D01*
X164503100Y-100126800D01*
X167722359Y-100126800D01*
X167792400Y-100140732D01*
X167862441Y-100126800D01*
X167862446Y-100126800D01*
X168069896Y-100085536D01*
X168305146Y-99928346D01*
X168307054Y-99925490D01*
X168365103Y-99886703D01*
X168405493Y-99826255D01*
X169057449Y-99174300D01*
X169206116Y-99174300D01*
X169565536Y-99025423D01*
X169840623Y-98750336D01*
X169989500Y-98390916D01*
X169989500Y-98001884D01*
X169840623Y-97642464D01*
X169565536Y-97367377D01*
X169436070Y-97313750D01*
X176696000Y-97313750D01*
X176696000Y-98004310D01*
X176792673Y-98237699D01*
X176971302Y-98416327D01*
X177204691Y-98513000D01*
X177895250Y-98513000D01*
X178054000Y-98354250D01*
X178054000Y-97155000D01*
X178308000Y-97155000D01*
X178308000Y-98354250D01*
X178466750Y-98513000D01*
X179157309Y-98513000D01*
X179390698Y-98416327D01*
X179569327Y-98237699D01*
X179666000Y-98004310D01*
X179666000Y-97313750D01*
X179507250Y-97155000D01*
X178308000Y-97155000D01*
X178054000Y-97155000D01*
X176854750Y-97155000D01*
X176696000Y-97313750D01*
X169436070Y-97313750D01*
X169206116Y-97218500D01*
X168817084Y-97218500D01*
X168457664Y-97367377D01*
X168182577Y-97642464D01*
X168033700Y-98001884D01*
X168033700Y-98150551D01*
X167543352Y-98640900D01*
X164184259Y-98640900D01*
X164079136Y-98535777D01*
X163719716Y-98386900D01*
X163474399Y-98386900D01*
X163474399Y-97289749D01*
X164985701Y-95778448D01*
X164985701Y-96267340D01*
X164880577Y-96372464D01*
X164731700Y-96731884D01*
X164731700Y-97120916D01*
X164880577Y-97480336D01*
X165155664Y-97755423D01*
X165515084Y-97904300D01*
X165904116Y-97904300D01*
X166263536Y-97755423D01*
X166538623Y-97480336D01*
X166687500Y-97120916D01*
X166687500Y-96731884D01*
X166538623Y-96372464D01*
X166433500Y-96267341D01*
X166433500Y-94723887D01*
X166447682Y-94652589D01*
X166391499Y-94370138D01*
X166271889Y-94191130D01*
X166231502Y-94130687D01*
X166171060Y-94090301D01*
X164028759Y-91948000D01*
X176666908Y-91948000D01*
X176782161Y-92527418D01*
X177110375Y-93018625D01*
X177408761Y-93218000D01*
X177110375Y-93417375D01*
X176782161Y-93908582D01*
X176666908Y-94488000D01*
X176782161Y-95067418D01*
X177110375Y-95558625D01*
X177132033Y-95573096D01*
X176971302Y-95639673D01*
X176792673Y-95818301D01*
X176696000Y-96051690D01*
X176696000Y-96742250D01*
X176854750Y-96901000D01*
X178054000Y-96901000D01*
X178054000Y-96881000D01*
X178308000Y-96881000D01*
X178308000Y-96901000D01*
X179507250Y-96901000D01*
X179666000Y-96742250D01*
X179666000Y-96051690D01*
X179569327Y-95818301D01*
X179390698Y-95639673D01*
X179229967Y-95573096D01*
X179251625Y-95558625D01*
X179579839Y-95067418D01*
X179695092Y-94488000D01*
X179579839Y-93908582D01*
X179251625Y-93417375D01*
X178953239Y-93218000D01*
X179251625Y-93018625D01*
X179579839Y-92527418D01*
X179695092Y-91948000D01*
X179579839Y-91368582D01*
X179251625Y-90877375D01*
X178760418Y-90549161D01*
X178327256Y-90463000D01*
X178034744Y-90463000D01*
X177601582Y-90549161D01*
X177110375Y-90877375D01*
X176782161Y-91368582D01*
X176666908Y-91948000D01*
X164028759Y-91948000D01*
X161553448Y-89472689D01*
X161869418Y-89409839D01*
X162360625Y-89081625D01*
X162560000Y-88783239D01*
X162759375Y-89081625D01*
X163250582Y-89409839D01*
X163683744Y-89496000D01*
X163976256Y-89496000D01*
X164409418Y-89409839D01*
X164900625Y-89081625D01*
X164915096Y-89059967D01*
X164981673Y-89220698D01*
X165160301Y-89399327D01*
X165393690Y-89496000D01*
X166084250Y-89496000D01*
X166243000Y-89337250D01*
X166243000Y-88138000D01*
X166497000Y-88138000D01*
X166497000Y-89337250D01*
X166655750Y-89496000D01*
X167346310Y-89496000D01*
X167579699Y-89399327D01*
X167758327Y-89220698D01*
X167855000Y-88987309D01*
X167855000Y-88322150D01*
X168695000Y-88322150D01*
X168695000Y-89012709D01*
X168791673Y-89246098D01*
X168970301Y-89424727D01*
X169203690Y-89521400D01*
X169894250Y-89521400D01*
X170053000Y-89362650D01*
X170053000Y-88163400D01*
X168853750Y-88163400D01*
X168695000Y-88322150D01*
X167855000Y-88322150D01*
X167855000Y-88296750D01*
X167696250Y-88138000D01*
X166497000Y-88138000D01*
X166243000Y-88138000D01*
X166223000Y-88138000D01*
X166223000Y-87884000D01*
X166243000Y-87884000D01*
X166243000Y-86684750D01*
X166497000Y-86684750D01*
X166497000Y-87884000D01*
X167696250Y-87884000D01*
X167855000Y-87725250D01*
X167855000Y-87060091D01*
X168695000Y-87060091D01*
X168695000Y-87750650D01*
X168853750Y-87909400D01*
X170053000Y-87909400D01*
X170053000Y-86710150D01*
X170307000Y-86710150D01*
X170307000Y-87909400D01*
X170327000Y-87909400D01*
X170327000Y-88163400D01*
X170307000Y-88163400D01*
X170307000Y-89362650D01*
X170465750Y-89521400D01*
X171156310Y-89521400D01*
X171389699Y-89424727D01*
X171568327Y-89246098D01*
X171634904Y-89085367D01*
X171649375Y-89107025D01*
X172140582Y-89435239D01*
X172573744Y-89521400D01*
X172866256Y-89521400D01*
X173299418Y-89435239D01*
X173790625Y-89107025D01*
X173990000Y-88808639D01*
X174189375Y-89107025D01*
X174680582Y-89435239D01*
X175113744Y-89521400D01*
X175406256Y-89521400D01*
X175839418Y-89435239D01*
X176330625Y-89107025D01*
X176530000Y-88808639D01*
X176729375Y-89107025D01*
X177220582Y-89435239D01*
X177653744Y-89521400D01*
X177946256Y-89521400D01*
X178379418Y-89435239D01*
X178870625Y-89107025D01*
X179198839Y-88615818D01*
X179314092Y-88036400D01*
X179198839Y-87456982D01*
X178870625Y-86965775D01*
X178379418Y-86637561D01*
X177946256Y-86551400D01*
X177653744Y-86551400D01*
X177220582Y-86637561D01*
X176729375Y-86965775D01*
X176530000Y-87264161D01*
X176330625Y-86965775D01*
X175839418Y-86637561D01*
X175406256Y-86551400D01*
X175113744Y-86551400D01*
X174680582Y-86637561D01*
X174189375Y-86965775D01*
X173990000Y-87264161D01*
X173790625Y-86965775D01*
X173299418Y-86637561D01*
X172866256Y-86551400D01*
X172573744Y-86551400D01*
X172140582Y-86637561D01*
X171649375Y-86965775D01*
X171634904Y-86987433D01*
X171568327Y-86826702D01*
X171389699Y-86648073D01*
X171156310Y-86551400D01*
X170465750Y-86551400D01*
X170307000Y-86710150D01*
X170053000Y-86710150D01*
X169894250Y-86551400D01*
X169203690Y-86551400D01*
X168970301Y-86648073D01*
X168791673Y-86826702D01*
X168695000Y-87060091D01*
X167855000Y-87060091D01*
X167855000Y-87034691D01*
X167758327Y-86801302D01*
X167579699Y-86622673D01*
X167346310Y-86526000D01*
X166655750Y-86526000D01*
X166497000Y-86684750D01*
X166243000Y-86684750D01*
X166084250Y-86526000D01*
X165393690Y-86526000D01*
X165160301Y-86622673D01*
X164981673Y-86801302D01*
X164915096Y-86962033D01*
X164900625Y-86940375D01*
X164409418Y-86612161D01*
X163976256Y-86526000D01*
X163683744Y-86526000D01*
X163250582Y-86612161D01*
X162759375Y-86940375D01*
X162560000Y-87238761D01*
X162360625Y-86940375D01*
X161869418Y-86612161D01*
X161436256Y-86526000D01*
X161143744Y-86526000D01*
X160710582Y-86612161D01*
X160219375Y-86940375D01*
X159891161Y-87431582D01*
X159828311Y-87747553D01*
X158388758Y-86308000D01*
X179884000Y-86308000D01*
X179884001Y-110288664D01*
X126897200Y-110338137D01*
X126897200Y-102414090D01*
X148367724Y-102414090D01*
X148537555Y-102824124D01*
X148927842Y-103252383D01*
X149452308Y-103498686D01*
X149682200Y-103378019D01*
X149682200Y-102184200D01*
X148489045Y-102184200D01*
X148367724Y-102414090D01*
X126897200Y-102414090D01*
X126897200Y-90131831D01*
X149149000Y-90131831D01*
X149149000Y-91020969D01*
X149489259Y-91842426D01*
X150117974Y-92471141D01*
X150939431Y-92811400D01*
X151828569Y-92811400D01*
X152650026Y-92471141D01*
X153278741Y-91842426D01*
X153619000Y-91020969D01*
X153619000Y-90131831D01*
X153278741Y-89310374D01*
X152650026Y-88681659D01*
X151828569Y-88341400D01*
X150939431Y-88341400D01*
X150117974Y-88681659D01*
X149489259Y-89310374D01*
X149149000Y-90131831D01*
X126897200Y-90131831D01*
X126897200Y-86308000D01*
X143616681Y-86308000D01*
X143590665Y-86318776D01*
X143590665Y-86318776D01*
G37*
X143590665Y-86318776D02*
X143315578Y-86593863D01*
X143166701Y-86953283D01*
X143166701Y-87342315D01*
X143315578Y-87701735D01*
X143590665Y-87976822D01*
X143950085Y-88125699D01*
X144339117Y-88125699D01*
X144698537Y-87976822D01*
X144973624Y-87701735D01*
X145122501Y-87342315D01*
X145122501Y-87337900D01*
X157371162Y-87337900D01*
X164195351Y-94162090D01*
X164118577Y-94238864D01*
X163969700Y-94598284D01*
X163969700Y-94746951D01*
X162289042Y-96427610D01*
X162228597Y-96467998D01*
X162188210Y-96528442D01*
X162068600Y-96707450D01*
X162012417Y-96989901D01*
X162026600Y-97061204D01*
X162026599Y-100791305D01*
X161890223Y-100462064D01*
X161615136Y-100186977D01*
X161255716Y-100038100D01*
X160866684Y-100038100D01*
X160507264Y-100186977D01*
X160389441Y-100304800D01*
X156834989Y-100304800D01*
X153804244Y-97274056D01*
X153863292Y-96977200D01*
X153748039Y-96397782D01*
X153419825Y-95906575D01*
X152928618Y-95578361D01*
X152495456Y-95492200D01*
X152202944Y-95492200D01*
X152052344Y-95522156D01*
X152006300Y-95476112D01*
X152006300Y-95309484D01*
X151857423Y-94950064D01*
X151582336Y-94674977D01*
X151222916Y-94526100D01*
X150833884Y-94526100D01*
X150474464Y-94674977D01*
X150199377Y-94950064D01*
X150050500Y-95309484D01*
X150050500Y-95511105D01*
X149955456Y-95492200D01*
X149662944Y-95492200D01*
X149229782Y-95578361D01*
X148738575Y-95906575D01*
X148410361Y-96397782D01*
X148295108Y-96977200D01*
X148410361Y-97556618D01*
X148738575Y-98047825D01*
X149036961Y-98247200D01*
X148738575Y-98446575D01*
X148410361Y-98937782D01*
X148295108Y-99517200D01*
X148410361Y-100096618D01*
X148738575Y-100587825D01*
X149057678Y-100801043D01*
X148927842Y-100862017D01*
X148537555Y-101290276D01*
X148367724Y-101700310D01*
X148489045Y-101930200D01*
X149682200Y-101930200D01*
X149682200Y-101910200D01*
X149936200Y-101910200D01*
X149936200Y-101930200D01*
X149956200Y-101930200D01*
X149956200Y-102184200D01*
X149936200Y-102184200D01*
X149936200Y-103378019D01*
X150166092Y-103498686D01*
X150690558Y-103252383D01*
X150879239Y-103045345D01*
X150901043Y-103154965D01*
X151041391Y-103365009D01*
X151251435Y-103505357D01*
X151499200Y-103554640D01*
X153199200Y-103554640D01*
X153446965Y-103505357D01*
X153657009Y-103365009D01*
X153797357Y-103154965D01*
X153846640Y-102907200D01*
X153846640Y-101207200D01*
X153797357Y-100959435D01*
X153657009Y-100749391D01*
X153446965Y-100609043D01*
X153401581Y-100600016D01*
X153419825Y-100587825D01*
X153748039Y-100096618D01*
X153863292Y-99517200D01*
X153820455Y-99301844D01*
X155987978Y-101469367D01*
X156027654Y-101528746D01*
X156087033Y-101568422D01*
X156087035Y-101568424D01*
X156262902Y-101685935D01*
X156262903Y-101685935D01*
X156262904Y-101685936D01*
X156470354Y-101727200D01*
X156470357Y-101727200D01*
X156540399Y-101741132D01*
X156610441Y-101727200D01*
X157919678Y-101727200D01*
X157775364Y-101786977D01*
X157500277Y-102062064D01*
X157351400Y-102421484D01*
X157351400Y-102584451D01*
X156214952Y-103720900D01*
X155460302Y-103720900D01*
X155389009Y-103706719D01*
X155317716Y-103720900D01*
X155317712Y-103720900D01*
X155106558Y-103762901D01*
X154867107Y-103922897D01*
X154826720Y-103983341D01*
X153896310Y-104913751D01*
X153819536Y-104836977D01*
X153460116Y-104688100D01*
X153071084Y-104688100D01*
X152711664Y-104836977D01*
X152606541Y-104942100D01*
X147610788Y-104942100D01*
X147539490Y-104927918D01*
X147468192Y-104942100D01*
X147383732Y-104958900D01*
X138765459Y-104958900D01*
X138660336Y-104853777D01*
X138300916Y-104704900D01*
X137911884Y-104704900D01*
X137552464Y-104853777D01*
X137277377Y-105128864D01*
X137128500Y-105488284D01*
X137128500Y-105877316D01*
X137277377Y-106236736D01*
X137552464Y-106511823D01*
X137911884Y-106660700D01*
X138300916Y-106660700D01*
X138660336Y-106511823D01*
X138765459Y-106406700D01*
X146850100Y-106406700D01*
X146850100Y-106474216D01*
X146998977Y-106833636D01*
X147274064Y-107108723D01*
X147633484Y-107257600D01*
X148022516Y-107257600D01*
X148381936Y-107108723D01*
X148487059Y-107003600D01*
X153482812Y-107003600D01*
X153554110Y-107017782D01*
X153625408Y-107003600D01*
X153836562Y-106961599D01*
X154076013Y-106801603D01*
X154116403Y-106741155D01*
X155688859Y-105168700D01*
X156443502Y-105168700D01*
X156514800Y-105182882D01*
X156586098Y-105168700D01*
X156797252Y-105126699D01*
X157036703Y-104966703D01*
X157077093Y-104906255D01*
X158389449Y-103593900D01*
X158523816Y-103593900D01*
X158883236Y-103445023D01*
X159158323Y-103169936D01*
X159307200Y-102810516D01*
X159307200Y-102421484D01*
X159158323Y-102062064D01*
X158883236Y-101786977D01*
X158738922Y-101727200D01*
X160389441Y-101727200D01*
X160507264Y-101845023D01*
X160866684Y-101993900D01*
X161255716Y-101993900D01*
X161615136Y-101845023D01*
X161890223Y-101569936D01*
X162026599Y-101240695D01*
X162026599Y-104439334D01*
X162012417Y-104510632D01*
X162026599Y-104581929D01*
X162068600Y-104793083D01*
X162228596Y-105032534D01*
X162289042Y-105072923D01*
X164408378Y-107192261D01*
X164447647Y-107251031D01*
X164383235Y-107263843D01*
X164173191Y-107404191D01*
X164032843Y-107614235D01*
X163983560Y-107862000D01*
X163983560Y-109562000D01*
X164032843Y-109809765D01*
X164173191Y-110019809D01*
X164383235Y-110160157D01*
X164631000Y-110209440D01*
X166331000Y-110209440D01*
X166578765Y-110160157D01*
X166788809Y-110019809D01*
X166929157Y-109809765D01*
X166938184Y-109764381D01*
X166950375Y-109782625D01*
X167441582Y-110110839D01*
X167874744Y-110197000D01*
X168167256Y-110197000D01*
X168600418Y-110110839D01*
X169091625Y-109782625D01*
X169291000Y-109484239D01*
X169490375Y-109782625D01*
X169981582Y-110110839D01*
X170414744Y-110197000D01*
X170707256Y-110197000D01*
X171140418Y-110110839D01*
X171631625Y-109782625D01*
X171844843Y-109463522D01*
X171905817Y-109593358D01*
X172334076Y-109983645D01*
X172744110Y-110153476D01*
X172974000Y-110032155D01*
X172974000Y-108839000D01*
X172954000Y-108839000D01*
X172954000Y-108585000D01*
X172974000Y-108585000D01*
X172974000Y-107391845D01*
X173228000Y-107391845D01*
X173228000Y-108585000D01*
X173248000Y-108585000D01*
X173248000Y-108839000D01*
X173228000Y-108839000D01*
X173228000Y-110032155D01*
X173457890Y-110153476D01*
X173867924Y-109983645D01*
X174296183Y-109593358D01*
X174357157Y-109463522D01*
X174570375Y-109782625D01*
X175061582Y-110110839D01*
X175494744Y-110197000D01*
X175787256Y-110197000D01*
X176220418Y-110110839D01*
X176711625Y-109782625D01*
X176911000Y-109484239D01*
X177110375Y-109782625D01*
X177601582Y-110110839D01*
X178034744Y-110197000D01*
X178327256Y-110197000D01*
X178760418Y-110110839D01*
X179251625Y-109782625D01*
X179579839Y-109291418D01*
X179695092Y-108712000D01*
X179579839Y-108132582D01*
X179251625Y-107641375D01*
X178760418Y-107313161D01*
X178327256Y-107227000D01*
X178034744Y-107227000D01*
X177601582Y-107313161D01*
X177110375Y-107641375D01*
X176911000Y-107939761D01*
X176711625Y-107641375D01*
X176220418Y-107313161D01*
X175787256Y-107227000D01*
X175494744Y-107227000D01*
X175061582Y-107313161D01*
X174570375Y-107641375D01*
X174357157Y-107960478D01*
X174296183Y-107830642D01*
X173867924Y-107440355D01*
X173457890Y-107270524D01*
X173228000Y-107391845D01*
X172974000Y-107391845D01*
X172744110Y-107270524D01*
X172334076Y-107440355D01*
X171905817Y-107830642D01*
X171844843Y-107960478D01*
X171631625Y-107641375D01*
X171140418Y-107313161D01*
X170707256Y-107227000D01*
X170414744Y-107227000D01*
X169981582Y-107313161D01*
X169490375Y-107641375D01*
X169291000Y-107939761D01*
X169091625Y-107641375D01*
X168600418Y-107313161D01*
X168167256Y-107227000D01*
X167874744Y-107227000D01*
X167441582Y-107313161D01*
X166950375Y-107641375D01*
X166938184Y-107659619D01*
X166929157Y-107614235D01*
X166788809Y-107404191D01*
X166578765Y-107263843D01*
X166331000Y-107214560D01*
X166313691Y-107214560D01*
X166433500Y-106925316D01*
X166433500Y-106536284D01*
X166284623Y-106176864D01*
X166009536Y-105901777D01*
X165650116Y-105752900D01*
X165261084Y-105752900D01*
X165088149Y-105824532D01*
X163474399Y-104210784D01*
X163474399Y-101257100D01*
X163479352Y-101257100D01*
X167534909Y-105312658D01*
X167575297Y-105373103D01*
X167814748Y-105533099D01*
X168025902Y-105575100D01*
X168025903Y-105575100D01*
X168097199Y-105589282D01*
X168168496Y-105575100D01*
X168555741Y-105575100D01*
X168660864Y-105680223D01*
X169020284Y-105829100D01*
X169409316Y-105829100D01*
X169768736Y-105680223D01*
X170043823Y-105405136D01*
X170192700Y-105045716D01*
X170192700Y-104656684D01*
X170043823Y-104297264D01*
X169768736Y-104022177D01*
X169409316Y-103873300D01*
X169020284Y-103873300D01*
X168660864Y-104022177D01*
X168555741Y-104127300D01*
X168397049Y-104127300D01*
X168123749Y-103854000D01*
X176240005Y-103854000D01*
X176335856Y-104335873D01*
X176608815Y-104744385D01*
X177017327Y-105017344D01*
X177377564Y-105089000D01*
X178120836Y-105089000D01*
X178481073Y-105017344D01*
X178889585Y-104744385D01*
X179162544Y-104335873D01*
X179258395Y-103854000D01*
X179162544Y-103372127D01*
X178919636Y-103008590D01*
X178958899Y-102992327D01*
X179137527Y-102813698D01*
X179234200Y-102580309D01*
X179234200Y-102139750D01*
X179075450Y-101981000D01*
X177876200Y-101981000D01*
X177876200Y-102001000D01*
X177622200Y-102001000D01*
X177622200Y-101981000D01*
X176422950Y-101981000D01*
X176264200Y-102139750D01*
X176264200Y-102580309D01*
X176360873Y-102813698D01*
X176539501Y-102992327D01*
X176578764Y-103008590D01*
X176335856Y-103372127D01*
X176240005Y-103854000D01*
X168123749Y-103854000D01*
X165397440Y-101127691D01*
X176264200Y-101127691D01*
X176264200Y-101568250D01*
X176422950Y-101727000D01*
X177622200Y-101727000D01*
X177622200Y-100777750D01*
X177876200Y-100777750D01*
X177876200Y-101727000D01*
X179075450Y-101727000D01*
X179234200Y-101568250D01*
X179234200Y-101127691D01*
X179137527Y-100894302D01*
X178958899Y-100715673D01*
X178725510Y-100619000D01*
X178034950Y-100619000D01*
X177876200Y-100777750D01*
X177622200Y-100777750D01*
X177463450Y-100619000D01*
X176772890Y-100619000D01*
X176539501Y-100715673D01*
X176360873Y-100894302D01*
X176264200Y-101127691D01*
X165397440Y-101127691D01*
X164503100Y-100233352D01*
X164503100Y-100126800D01*
X167722359Y-100126800D01*
X167792400Y-100140732D01*
X167862441Y-100126800D01*
X167862446Y-100126800D01*
X168069896Y-100085536D01*
X168305146Y-99928346D01*
X168307054Y-99925490D01*
X168365103Y-99886703D01*
X168405493Y-99826255D01*
X169057449Y-99174300D01*
X169206116Y-99174300D01*
X169565536Y-99025423D01*
X169840623Y-98750336D01*
X169989500Y-98390916D01*
X169989500Y-98001884D01*
X169840623Y-97642464D01*
X169565536Y-97367377D01*
X169436070Y-97313750D01*
X176696000Y-97313750D01*
X176696000Y-98004310D01*
X176792673Y-98237699D01*
X176971302Y-98416327D01*
X177204691Y-98513000D01*
X177895250Y-98513000D01*
X178054000Y-98354250D01*
X178054000Y-97155000D01*
X178308000Y-97155000D01*
X178308000Y-98354250D01*
X178466750Y-98513000D01*
X179157309Y-98513000D01*
X179390698Y-98416327D01*
X179569327Y-98237699D01*
X179666000Y-98004310D01*
X179666000Y-97313750D01*
X179507250Y-97155000D01*
X178308000Y-97155000D01*
X178054000Y-97155000D01*
X176854750Y-97155000D01*
X176696000Y-97313750D01*
X169436070Y-97313750D01*
X169206116Y-97218500D01*
X168817084Y-97218500D01*
X168457664Y-97367377D01*
X168182577Y-97642464D01*
X168033700Y-98001884D01*
X168033700Y-98150551D01*
X167543352Y-98640900D01*
X164184259Y-98640900D01*
X164079136Y-98535777D01*
X163719716Y-98386900D01*
X163474399Y-98386900D01*
X163474399Y-97289749D01*
X164985701Y-95778448D01*
X164985701Y-96267340D01*
X164880577Y-96372464D01*
X164731700Y-96731884D01*
X164731700Y-97120916D01*
X164880577Y-97480336D01*
X165155664Y-97755423D01*
X165515084Y-97904300D01*
X165904116Y-97904300D01*
X166263536Y-97755423D01*
X166538623Y-97480336D01*
X166687500Y-97120916D01*
X166687500Y-96731884D01*
X166538623Y-96372464D01*
X166433500Y-96267341D01*
X166433500Y-94723887D01*
X166447682Y-94652589D01*
X166391499Y-94370138D01*
X166271889Y-94191130D01*
X166231502Y-94130687D01*
X166171060Y-94090301D01*
X164028759Y-91948000D01*
X176666908Y-91948000D01*
X176782161Y-92527418D01*
X177110375Y-93018625D01*
X177408761Y-93218000D01*
X177110375Y-93417375D01*
X176782161Y-93908582D01*
X176666908Y-94488000D01*
X176782161Y-95067418D01*
X177110375Y-95558625D01*
X177132033Y-95573096D01*
X176971302Y-95639673D01*
X176792673Y-95818301D01*
X176696000Y-96051690D01*
X176696000Y-96742250D01*
X176854750Y-96901000D01*
X178054000Y-96901000D01*
X178054000Y-96881000D01*
X178308000Y-96881000D01*
X178308000Y-96901000D01*
X179507250Y-96901000D01*
X179666000Y-96742250D01*
X179666000Y-96051690D01*
X179569327Y-95818301D01*
X179390698Y-95639673D01*
X179229967Y-95573096D01*
X179251625Y-95558625D01*
X179579839Y-95067418D01*
X179695092Y-94488000D01*
X179579839Y-93908582D01*
X179251625Y-93417375D01*
X178953239Y-93218000D01*
X179251625Y-93018625D01*
X179579839Y-92527418D01*
X179695092Y-91948000D01*
X179579839Y-91368582D01*
X179251625Y-90877375D01*
X178760418Y-90549161D01*
X178327256Y-90463000D01*
X178034744Y-90463000D01*
X177601582Y-90549161D01*
X177110375Y-90877375D01*
X176782161Y-91368582D01*
X176666908Y-91948000D01*
X164028759Y-91948000D01*
X161553448Y-89472689D01*
X161869418Y-89409839D01*
X162360625Y-89081625D01*
X162560000Y-88783239D01*
X162759375Y-89081625D01*
X163250582Y-89409839D01*
X163683744Y-89496000D01*
X163976256Y-89496000D01*
X164409418Y-89409839D01*
X164900625Y-89081625D01*
X164915096Y-89059967D01*
X164981673Y-89220698D01*
X165160301Y-89399327D01*
X165393690Y-89496000D01*
X166084250Y-89496000D01*
X166243000Y-89337250D01*
X166243000Y-88138000D01*
X166497000Y-88138000D01*
X166497000Y-89337250D01*
X166655750Y-89496000D01*
X167346310Y-89496000D01*
X167579699Y-89399327D01*
X167758327Y-89220698D01*
X167855000Y-88987309D01*
X167855000Y-88322150D01*
X168695000Y-88322150D01*
X168695000Y-89012709D01*
X168791673Y-89246098D01*
X168970301Y-89424727D01*
X169203690Y-89521400D01*
X169894250Y-89521400D01*
X170053000Y-89362650D01*
X170053000Y-88163400D01*
X168853750Y-88163400D01*
X168695000Y-88322150D01*
X167855000Y-88322150D01*
X167855000Y-88296750D01*
X167696250Y-88138000D01*
X166497000Y-88138000D01*
X166243000Y-88138000D01*
X166223000Y-88138000D01*
X166223000Y-87884000D01*
X166243000Y-87884000D01*
X166243000Y-86684750D01*
X166497000Y-86684750D01*
X166497000Y-87884000D01*
X167696250Y-87884000D01*
X167855000Y-87725250D01*
X167855000Y-87060091D01*
X168695000Y-87060091D01*
X168695000Y-87750650D01*
X168853750Y-87909400D01*
X170053000Y-87909400D01*
X170053000Y-86710150D01*
X170307000Y-86710150D01*
X170307000Y-87909400D01*
X170327000Y-87909400D01*
X170327000Y-88163400D01*
X170307000Y-88163400D01*
X170307000Y-89362650D01*
X170465750Y-89521400D01*
X171156310Y-89521400D01*
X171389699Y-89424727D01*
X171568327Y-89246098D01*
X171634904Y-89085367D01*
X171649375Y-89107025D01*
X172140582Y-89435239D01*
X172573744Y-89521400D01*
X172866256Y-89521400D01*
X173299418Y-89435239D01*
X173790625Y-89107025D01*
X173990000Y-88808639D01*
X174189375Y-89107025D01*
X174680582Y-89435239D01*
X175113744Y-89521400D01*
X175406256Y-89521400D01*
X175839418Y-89435239D01*
X176330625Y-89107025D01*
X176530000Y-88808639D01*
X176729375Y-89107025D01*
X177220582Y-89435239D01*
X177653744Y-89521400D01*
X177946256Y-89521400D01*
X178379418Y-89435239D01*
X178870625Y-89107025D01*
X179198839Y-88615818D01*
X179314092Y-88036400D01*
X179198839Y-87456982D01*
X178870625Y-86965775D01*
X178379418Y-86637561D01*
X177946256Y-86551400D01*
X177653744Y-86551400D01*
X177220582Y-86637561D01*
X176729375Y-86965775D01*
X176530000Y-87264161D01*
X176330625Y-86965775D01*
X175839418Y-86637561D01*
X175406256Y-86551400D01*
X175113744Y-86551400D01*
X174680582Y-86637561D01*
X174189375Y-86965775D01*
X173990000Y-87264161D01*
X173790625Y-86965775D01*
X173299418Y-86637561D01*
X172866256Y-86551400D01*
X172573744Y-86551400D01*
X172140582Y-86637561D01*
X171649375Y-86965775D01*
X171634904Y-86987433D01*
X171568327Y-86826702D01*
X171389699Y-86648073D01*
X171156310Y-86551400D01*
X170465750Y-86551400D01*
X170307000Y-86710150D01*
X170053000Y-86710150D01*
X169894250Y-86551400D01*
X169203690Y-86551400D01*
X168970301Y-86648073D01*
X168791673Y-86826702D01*
X168695000Y-87060091D01*
X167855000Y-87060091D01*
X167855000Y-87034691D01*
X167758327Y-86801302D01*
X167579699Y-86622673D01*
X167346310Y-86526000D01*
X166655750Y-86526000D01*
X166497000Y-86684750D01*
X166243000Y-86684750D01*
X166084250Y-86526000D01*
X165393690Y-86526000D01*
X165160301Y-86622673D01*
X164981673Y-86801302D01*
X164915096Y-86962033D01*
X164900625Y-86940375D01*
X164409418Y-86612161D01*
X163976256Y-86526000D01*
X163683744Y-86526000D01*
X163250582Y-86612161D01*
X162759375Y-86940375D01*
X162560000Y-87238761D01*
X162360625Y-86940375D01*
X161869418Y-86612161D01*
X161436256Y-86526000D01*
X161143744Y-86526000D01*
X160710582Y-86612161D01*
X160219375Y-86940375D01*
X159891161Y-87431582D01*
X159828311Y-87747553D01*
X158388758Y-86308000D01*
X179884000Y-86308000D01*
X179884001Y-110288664D01*
X126897200Y-110338137D01*
X126897200Y-102414090D01*
X148367724Y-102414090D01*
X148537555Y-102824124D01*
X148927842Y-103252383D01*
X149452308Y-103498686D01*
X149682200Y-103378019D01*
X149682200Y-102184200D01*
X148489045Y-102184200D01*
X148367724Y-102414090D01*
X126897200Y-102414090D01*
X126897200Y-90131831D01*
X149149000Y-90131831D01*
X149149000Y-91020969D01*
X149489259Y-91842426D01*
X150117974Y-92471141D01*
X150939431Y-92811400D01*
X151828569Y-92811400D01*
X152650026Y-92471141D01*
X153278741Y-91842426D01*
X153619000Y-91020969D01*
X153619000Y-90131831D01*
X153278741Y-89310374D01*
X152650026Y-88681659D01*
X151828569Y-88341400D01*
X150939431Y-88341400D01*
X150117974Y-88681659D01*
X149489259Y-89310374D01*
X149149000Y-90131831D01*
X126897200Y-90131831D01*
X126897200Y-86308000D01*
X143616681Y-86308000D01*
X143590665Y-86318776D01*
G04 #@! TD*
M02*
